<?xml version="1.0" standalone="no"?>
 <!DOCTYPE svg PUBLIC "-//W3C//DTD SVG 1.1//EN" 
 "http://www.w3.org/Graphics/SVG/1.1/DTD/svg11.dtd"> 
<svg xmlns="http://www.w3.org/2000/svg" version="1.1" 
    width="3.57632cm" height="6.9977cm" viewBox="0 0 14080 27550 ">
<title>SVG Picture created as VacuBot-Cmts_User.svg date 2015/04/12 11:41:17 </title>
  <desc>Picture generated by PCBNEW </desc>
<g style="fill:#000000; fill-opacity:1;stroke:#000000; stroke-opacity:1;
stroke-linecap:round; stroke-linejoin:round; "
 transform="translate(0 0) scale(1 1)">
</g>
<g style="fill:#000084; fill-opacity:0.0; 
stroke:#000084; stroke-width:19.685; stroke-opacity:1; 
stroke-linecap:round; stroke-linejoin:round;">
<path d="M6790 25033
L6763 25033
" />
<path d="M6763 25074
L6763 24996
L6801 24996
" />
<path d="M6831 25074
L6831 24996
" />
<path d="M6906 25074
L6868 25074
L6868 24996
" />
<path d="M6921 24996
L6966 24996
" />
<path d="M6943 25074
L6943 24996
" />
<path d="M6992 25033
L7018 25033
" />
<path d="M7030 25074
L6992 25074
L6992 24996
L7030 24996
" />
<path d="M7108 25074
L7082 25037
" />
<path d="M7063 25074
L7063 24996
L7093 24996
L7101 25000
L7105 25003
L7108 25011
L7108 25022
L7105 25029
L7101 25033
L7093 25037
L7063 25037
" />
</g> 
</svg>
