<?xml version="1.0" standalone="no"?>
 <!DOCTYPE svg PUBLIC "-//W3C//DTD SVG 1.1//EN" 
 "http://www.w3.org/Graphics/SVG/1.1/DTD/svg11.dtd"> 
<svg xmlns="http://www.w3.org/2000/svg" version="1.1" 
    width="3.57632cm" height="6.9977cm" viewBox="0 0 14080 27550 ">
<title>SVG Picture created as VacuBot-B_CrtYd.svg date 2015/04/12 11:41:17 </title>
  <desc>Picture generated by PCBNEW </desc>
<g style="fill:#000000; fill-opacity:1;stroke:#000000; stroke-opacity:1;
stroke-linecap:round; stroke-linejoin:round; "
 transform="translate(0 0) scale(1 1)">
</g>
<g style="fill:#C1C100; fill-opacity:0.0; 
stroke:#C1C100; stroke-width:19.685; stroke-opacity:1; 
stroke-linecap:round; stroke-linejoin:round;">
<path d="M3942 23031
L5713 23031
" />
<path d="M5713 23031
L5713 16732
" />
<path d="M5713 16732
L3942 16732
" />
<path d="M3942 16732
L3942 23031
" />
<path d="M12406 15354
L10635 15354
" />
<path d="M10635 15354
L10635 19291
" />
<path d="M10635 19291
L12406 19291
" />
<path d="M12406 19291
L12406 15354
" />
<path d="M3942 16732
L5713 16732
" />
<path d="M5713 16732
L5713 12795
" />
<path d="M5713 12795
L3942 12795
" />
<path d="M3942 12795
L3942 16732
" />
<path d="M12406 19685
L10635 19685
" />
<path d="M10635 19685
L10635 23031
" />
<path d="M10635 23031
L12406 23031
" />
<path d="M12406 23031
L12406 19685
" />
<path d="M12406 4035
L10635 4035
" />
<path d="M10635 4035
L10635 7381
" />
<path d="M10635 7381
L12406 7381
" />
<path d="M12406 7381
L12406 4035
" />
</g> 
</svg>
