<?xml version="1.0" standalone="no"?>
 <!DOCTYPE svg PUBLIC "-//W3C//DTD SVG 1.1//EN" 
 "http://www.w3.org/Graphics/SVG/1.1/DTD/svg11.dtd"> 
<svg xmlns="http://www.w3.org/2000/svg" version="1.1" 
    width="3.57632cm" height="6.9977cm" viewBox="0 0 14080 27550 ">
<title>SVG Picture created as VacuBot-F_Cu.svg date 2015/04/12 11:41:17 </title>
  <desc>Picture generated by PCBNEW </desc>
<g style="fill:#000000; fill-opacity:1;stroke:#000000; stroke-opacity:1;
stroke-linecap:round; stroke-linejoin:round; "
 transform="translate(0 0) scale(1 1)">
</g>
<g style="fill:#840000; fill-opacity:0.0; 
stroke:#840000; stroke-width:49.2126; stroke-opacity:1; 
stroke-linecap:round; stroke-linejoin:round;">
</g>
<g style="fill:#840000; fill-opacity:1.0; 
stroke:#840000; stroke-width:49.2126; stroke-opacity:1; 
stroke-linecap:round; stroke-linejoin:round;">
<polyline style="fill-rule:evenodd;"
points="7116,22121
7283,22121
7283,22170
7116,22170
7116,22121
" /> 
<polyline style="fill-rule:evenodd;"
points="7116,22317
7283,22317
7283,22367
7116,22367
7116,22317
" /> 
<polyline style="fill-rule:evenodd;"
points="7116,22514
7283,22514
7283,22563
7116,22563
7116,22514
" /> 
<polyline style="fill-rule:evenodd;"
points="7116,22711
7283,22711
7283,22760
7116,22760
7116,22711
" /> 
<polyline style="fill-rule:evenodd;"
points="7884,22711
8051,22711
8051,22760
7884,22760
7884,22711
" /> 
<polyline style="fill-rule:evenodd;"
points="7884,22514
8051,22514
8051,22563
7884,22563
7884,22514
" /> 
<polyline style="fill-rule:evenodd;"
points="7884,22317
8051,22317
8051,22367
7884,22367
7884,22317
" /> 
<polyline style="fill-rule:evenodd;"
points="7884,22121
8051,22121
8051,22170
7884,22170
7884,22121
" /> 
<polyline style="fill-rule:evenodd;"
points="7431,22150
7736,22150
7736,22731
7431,22731
7431,22150
" /> 
<circle cx="7584.06" cy="22283.5" r="73.8189" /> 
<circle cx="7584.06" cy="22598.4" r="73.8189" /> 
<polyline style="fill-rule:evenodd;"
points="7707,12918
7707,12869
7903,12869
7903,12918
7707,12918
" /> 
<polyline style="fill-rule:evenodd;"
points="7707,13115
7707,13065
7903,13065
7903,13115
7707,13115
" /> 
<polyline style="fill-rule:evenodd;"
points="7707,13312
7707,13262
7903,13262
7903,13312
7707,13312
" /> 
<polyline style="fill-rule:evenodd;"
points="7707,13508
7707,13459
7903,13459
7903,13508
7707,13508
" /> 
<polyline style="fill-rule:evenodd;"
points="8445,13508
8445,13459
8642,13459
8642,13508
8445,13508
" /> 
<polyline style="fill-rule:evenodd;"
points="8445,13312
8445,13262
8642,13262
8642,13312
8445,13312
" /> 
<polyline style="fill-rule:evenodd;"
points="8445,13115
8445,13065
8642,13065
8642,13115
8445,13115
" /> 
<polyline style="fill-rule:evenodd;"
points="8445,12918
8445,12869
8642,12869
8642,12918
8445,12918
" /> 
<polyline style="fill-rule:evenodd;"
points="8297,12918
8248,12918
8248,12721
8297,12721
8297,12918
" /> 
<polyline style="fill-rule:evenodd;"
points="8100,12918
8051,12918
8051,12721
8100,12721
8100,12918
" /> 
<polyline style="fill-rule:evenodd;"
points="8100,13656
8051,13656
8051,13459
8100,13459
8100,13656
" /> 
<polyline style="fill-rule:evenodd;"
points="8297,13656
8248,13656
8248,13459
8297,13459
8297,13656
" /> 
<polyline style="fill-rule:evenodd;"
points="7608,10743
7608,10674
7874,10674
7874,10743
7608,10743
" /> 
<polyline style="fill-rule:evenodd;"
points="7608,10979
7608,10910
7874,10910
7874,10979
7608,10979
" /> 
<polyline style="fill-rule:evenodd;"
points="8474,10979
8474,10910
8740,10910
8740,10979
8474,10979
" /> 
<polyline style="fill-rule:evenodd;"
points="8474,10743
8474,10674
8740,10674
8740,10743
8474,10743
" /> 
<polyline style="fill-rule:evenodd;"
points="7972,11392
7903,11392
7903,11126
7972,11126
7972,11392
" /> 
<polyline style="fill-rule:evenodd;"
points="8209,11392
8140,11392
8140,11126
8209,11126
8209,11392
" /> 
<polyline style="fill-rule:evenodd;"
points="8445,11392
8376,11392
8376,11126
8445,11126
8445,11392
" /> 
<polyline style="fill-rule:evenodd;"
points="8445,10526
8376,10526
8376,10260
8445,10260
8445,10526
" /> 
<polyline style="fill-rule:evenodd;"
points="8209,10526
8140,10526
8140,10260
8209,10260
8209,10526
" /> 
<polyline style="fill-rule:evenodd;"
points="7972,10526
7903,10526
7903,10260
7972,10260
7972,10526
" /> 
<polyline style="fill-rule:evenodd;"
points="7677,24660
7677,24945
7470,24945
7470,24660
7677,24660
" /> 
<polyline style="fill-rule:evenodd;"
points="7106,24660
7106,24945
6900,24945
6900,24660
7106,24660
" /> 
</g>
<g style="fill:#840000; fill-opacity:1.0; 
stroke:#840000; stroke-width:98.4252; stroke-opacity:1; 
stroke-linecap:round; stroke-linejoin:round;">
</g>
<g style="fill:#840000; fill-opacity:0.0; 
stroke:#840000; stroke-width:98.4252; stroke-opacity:1; 
stroke-linecap:round; stroke-linejoin:round;">
<path d="M9011 19783
L9306 19783
" />
<path d="M9011 19586
L9306 19586
" />
<path d="M9011 19389
L9306 19389
" />
<path d="M9011 19192
L9306 19192
" />
<path d="M9011 18996
L9306 18996
" />
<path d="M9011 18799
L9306 18799
" />
<path d="M9011 18602
L9306 18602
" />
<path d="M9011 18405
L9306 18405
" />
<path d="M8863 18257
L8863 17962
" />
<path d="M8666 18257
L8666 17962
" />
<path d="M8469 18257
L8469 17962
" />
<path d="M8273 18257
L8273 17962
" />
<path d="M8076 18257
L8076 17962
" />
<path d="M7879 18257
L7879 17962
" />
<path d="M7682 18257
L7682 17962
" />
<path d="M7485 18257
L7485 17962
" />
<path d="M7042 18405
L7337 18405
" />
<path d="M7042 18602
L7337 18602
" />
<path d="M7042 18799
L7337 18799
" />
<path d="M7042 18996
L7337 18996
" />
<path d="M7042 19192
L7337 19192
" />
<path d="M7042 19389
L7337 19389
" />
<path d="M7042 19586
L7337 19586
" />
<path d="M7042 19783
L7337 19783
" />
<path d="M7485 20226
L7485 19931
" />
<path d="M7682 20226
L7682 19931
" />
<path d="M7879 20226
L7879 19931
" />
<path d="M8076 20226
L8076 19931
" />
<path d="M8273 20226
L8273 19931
" />
<path d="M8469 20226
L8469 19931
" />
<path d="M8666 20226
L8666 19931
" />
<path d="M8863 20226
L8863 19931
" />
</g>
<g style="fill:#840000; fill-opacity:0.0; 
stroke:#840000; stroke-width:49.2126; stroke-opacity:1; 
stroke-linecap:round; stroke-linejoin:round;">
</g>
<g style="fill:#840000; fill-opacity:1.0; 
stroke:#840000; stroke-width:49.2126; stroke-opacity:1; 
stroke-linecap:round; stroke-linejoin:round;">
<polyline style="fill-rule:evenodd;"
points="8858,19778
7490,19778
7490,18410
8858,18410
8858,19778
" /> 
<polyline style="fill-rule:evenodd;"
points="8779,19699
8553,19699
8553,19473
8779,19473
8779,19699
" /> 
<polyline style="fill-rule:evenodd;"
points="8779,19404
8553,19404
8553,19178
8779,19178
8779,19404
" /> 
<polyline style="fill-rule:evenodd;"
points="8779,19010
8553,19010
8553,18784
8779,18784
8779,19010
" /> 
<polyline style="fill-rule:evenodd;"
points="8779,18715
8553,18715
8553,18489
8779,18489
8779,18715
" /> 
<polyline style="fill-rule:evenodd;"
points="8484,18715
8258,18715
8258,18489
8484,18489
8484,18715
" /> 
<polyline style="fill-rule:evenodd;"
points="8484,19404
8258,19404
8258,19178
8484,19178
8484,19404
" /> 
<polyline style="fill-rule:evenodd;"
points="8484,19699
8258,19699
8258,19473
8484,19473
8484,19699
" /> 
<polyline style="fill-rule:evenodd;"
points="7795,19699
7569,19699
7569,19473
7795,19473
7795,19699
" /> 
<polyline style="fill-rule:evenodd;"
points="8090,19699
7864,19699
7864,19473
8090,19473
8090,19699
" /> 
<polyline style="fill-rule:evenodd;"
points="7795,19404
7569,19404
7569,19178
7795,19178
7795,19404
" /> 
<polyline style="fill-rule:evenodd;"
points="7795,18715
7569,18715
7569,18489
7795,18489
7795,18715
" /> 
<polyline style="fill-rule:evenodd;"
points="7795,19010
7569,19010
7569,18784
7795,18784
7795,19010
" /> 
<polyline style="fill-rule:evenodd;"
points="8090,19404
7864,19404
7864,19178
8090,19178
8090,19404
" /> 
<polyline style="fill-rule:evenodd;"
points="8484,19010
8258,19010
8258,18784
8484,18784
8484,19010
" /> 
<polyline style="fill-rule:evenodd;"
points="8090,18715
7864,18715
7864,18489
8090,18489
8090,18715
" /> 
<polyline style="fill-rule:evenodd;"
points="8090,19010
7864,19010
7864,18784
8090,18784
8090,19010
" /> 
<polyline style="fill-rule:evenodd;"
points="8858,19778
8277,19778
8277,19197
8858,19197
8858,19778
" /> 
<polyline style="fill-rule:evenodd;"
points="8858,18991
8277,18991
8277,18410
8858,18410
8858,18991
" /> 
<polyline style="fill-rule:evenodd;"
points="8071,18991
7490,18991
7490,18410
8071,18410
8071,18991
" /> 
<polyline style="fill-rule:evenodd;"
points="8071,19778
7490,19778
7490,19197
8071,19197
8071,19778
" /> 
<polyline style="fill-rule:evenodd;"
points="8356,21973
9764,21973
9764,22396
8356,22396
8356,21973
" /> 
<polyline style="fill-rule:evenodd;"
points="8356,23075
9764,23075
9764,23499
8356,23499
8356,23075
" /> 
</g>
<g style="fill:#840000; fill-opacity:1.0; 
stroke:#840000; stroke-width:511.811; stroke-opacity:1; 
stroke-linecap:round; stroke-linejoin:round;">
</g>
<g style="fill:#840000; fill-opacity:0.0; 
stroke:#840000; stroke-width:511.811; stroke-opacity:1; 
stroke-linecap:round; stroke-linejoin:round;">
<path d="M4788 17519
L4513 17519
" />
<path d="M4788 18110
L4513 18110
" />
<path d="M4788 18700
L4513 18700
" />
<path d="M4788 19291
L4513 19291
" />
<path d="M4788 19881
L4513 19881
" />
<path d="M4788 20472
L4513 20472
" />
<path d="M4788 21062
L4513 21062
" />
<path d="M4788 21653
L4513 21653
" />
<path d="M4788 22244
L4513 22244
" />
<path d="M11560 18503
L11836 18503
" />
<path d="M11560 17913
L11836 17913
" />
<path d="M11560 17322
L11836 17322
" />
<path d="M11560 16732
L11836 16732
" />
<path d="M11560 16141
L11836 16141
" />
<path d="M4788 13582
L4513 13582
" />
<path d="M4788 14173
L4513 14173
" />
<path d="M4788 14763
L4513 14763
" />
<path d="M4788 15354
L4513 15354
" />
<path d="M4788 15944
L4513 15944
" />
<path d="M11560 22244
L11836 22244
" />
<path d="M11560 21653
L11836 21653
" />
<path d="M11560 21062
L11836 21062
" />
<path d="M11560 20472
L11836 20472
" />
<path d="M11560 6594
L11836 6594
" />
<path d="M11560 6003
L11836 6003
" />
<path d="M11560 5413
L11836 5413
" />
<path d="M11560 4822
L11836 4822
" />
</g>
<g style="fill:#840000; fill-opacity:0.0; 
stroke:#840000; stroke-width:314.961; stroke-opacity:1; 
stroke-linecap:round; stroke-linejoin:round;">
<path d="M9552 4921
L9788 4921
" />
<path d="M10497 4547
L10733 4547
" />
<path d="M10497 5295
L10733 5295
" />
<path d="M9552 6397
L9788 6397
" />
<path d="M10497 6023
L10733 6023
" />
<path d="M10497 6771
L10733 6771
" />
</g>
<g style="fill:#840000; fill-opacity:0.0; 
stroke:#840000; stroke-width:49.2126; stroke-opacity:1; 
stroke-linecap:round; stroke-linejoin:round;">
</g>
<g style="fill:#840000; fill-opacity:1.0; 
stroke:#840000; stroke-width:49.2126; stroke-opacity:1; 
stroke-linecap:round; stroke-linejoin:round;">
<polyline style="fill-rule:evenodd;"
points="7687,14502
7687,14335
7874,14335
7874,14502
7687,14502
" /> 
<polyline style="fill-rule:evenodd;"
points="7687,14798
7687,14630
7874,14630
7874,14798
7687,14798
" /> 
<polyline style="fill-rule:evenodd;"
points="7687,15093
7687,14926
7874,14926
7874,15093
7687,15093
" /> 
<polyline style="fill-rule:evenodd;"
points="7687,15388
7687,15221
7874,15221
7874,15388
7687,15388
" /> 
<polyline style="fill-rule:evenodd;"
points="7687,15684
7687,15516
7874,15516
7874,15684
7687,15684
" /> 
<polyline style="fill-rule:evenodd;"
points="7687,15979
7687,15812
7874,15812
7874,15979
7687,15979
" /> 
<polyline style="fill-rule:evenodd;"
points="8474,15979
8474,15812
8661,15812
8661,15979
8474,15979
" /> 
<polyline style="fill-rule:evenodd;"
points="8474,15684
8474,15516
8661,15516
8661,15684
8474,15684
" /> 
<polyline style="fill-rule:evenodd;"
points="8474,15388
8474,15221
8661,15221
8661,15388
8474,15388
" /> 
<polyline style="fill-rule:evenodd;"
points="8474,15093
8474,14926
8661,14926
8661,15093
8474,15093
" /> 
<polyline style="fill-rule:evenodd;"
points="8474,14798
8474,14630
8661,14630
8661,14798
8474,14798
" /> 
<polyline style="fill-rule:evenodd;"
points="8474,14502
8474,14335
8661,14335
8661,14502
8474,14502
" /> 
<polyline style="fill-rule:evenodd;"
points="8223,5339
8960,5339
8960,6077
8223,6077
8223,5339
" /> 
<circle cx="5591.93" cy="5708.66" r="368.894" /> 
<circle cx="11127.4" cy="10826.8" r="703.74" /> 
<circle cx="5221.85" cy="10826.8" r="703.74" /> 
<circle cx="5123.43" cy="24409.4" r="703.74" /> 
<circle cx="11225.8" cy="24409.4" r="703.74" /> 
<polyline style="fill-rule:evenodd;"
points="8966,8115
8966,7829
9173,7829
9173,8115
8966,8115
" /> 
<polyline style="fill-rule:evenodd;"
points="9537,8115
9537,7829
9744,7829
9744,8115
9537,8115
" /> 
<polyline style="fill-rule:evenodd;"
points="10925,7829
10925,8115
10718,8115
10718,7829
10925,7829
" /> 
<polyline style="fill-rule:evenodd;"
points="10354,7829
10354,8115
10148,8115
10148,7829
10354,7829
" /> 
<polyline style="fill-rule:evenodd;"
points="8563,7140
8563,7426
8356,7426
8356,7140
8563,7140
" /> 
<polyline style="fill-rule:evenodd;"
points="7992,7140
7992,7426
7785,7426
7785,7140
7992,7140
" /> 
<polyline style="fill-rule:evenodd;"
points="8563,7829
8563,8115
8356,8115
8356,7829
8563,7829
" /> 
<polyline style="fill-rule:evenodd;"
points="7992,7829
7992,8115
7785,8115
7785,7829
7992,7829
" /> 
<polyline style="fill-rule:evenodd;"
points="6791,15802
6791,16087
6585,16087
6585,15802
6791,15802
" /> 
<polyline style="fill-rule:evenodd;"
points="6220,15802
6220,16087
6014,16087
6014,15802
6220,15802
" /> 
<polyline style="fill-rule:evenodd;"
points="6791,15211
6791,15497
6585,15497
6585,15211
6791,15211
" /> 
<polyline style="fill-rule:evenodd;"
points="6220,15211
6220,15497
6014,15497
6014,15211
6220,15211
" /> 
<polyline style="fill-rule:evenodd;"
points="5964,18016
6250,18016
6250,18223
5964,18223
5964,18016
" /> 
<polyline style="fill-rule:evenodd;"
points="5964,18587
6250,18587
6250,18794
5964,18794
5964,18587
" /> 
<polyline style="fill-rule:evenodd;"
points="5374,18016
5659,18016
5659,18223
5374,18223
5374,18016
" /> 
<polyline style="fill-rule:evenodd;"
points="5374,18587
5659,18587
5659,18794
5374,18794
5374,18587
" /> 
<polyline style="fill-rule:evenodd;"
points="9655,19335
9655,19050
9862,19050
9862,19335
9655,19335
" /> 
<polyline style="fill-rule:evenodd;"
points="10226,19335
10226,19050
10433,19050
10433,19335
10226,19335
" /> 
<polyline style="fill-rule:evenodd;"
points="9655,19926
9655,19640
9862,19640
9862,19926
9655,19926
" /> 
<polyline style="fill-rule:evenodd;"
points="10226,19926
10226,19640
10433,19640
10433,19926
10226,19926
" /> 
<polyline style="fill-rule:evenodd;"
points="6791,14030
6791,14315
6585,14315
6585,14030
6791,14030
" /> 
<polyline style="fill-rule:evenodd;"
points="6220,14030
6220,14315
6014,14315
6014,14030
6220,14030
" /> 
<polyline style="fill-rule:evenodd;"
points="6791,14621
6791,14906
6585,14906
6585,14621
6791,14621
" /> 
<polyline style="fill-rule:evenodd;"
points="6220,14621
6220,14906
6014,14906
6014,14621
6220,14621
" /> 
<polyline style="fill-rule:evenodd;"
points="7047,23233
7333,23233
7333,23439
7047,23439
7047,23233
" /> 
<polyline style="fill-rule:evenodd;"
points="7047,23804
7333,23804
7333,24010
7047,24010
7047,23804
" /> 
<polyline style="fill-rule:evenodd;"
points="7923,24010
7638,24010
7638,23804
7923,23804
7923,24010
" /> 
<polyline style="fill-rule:evenodd;"
points="7923,23439
7638,23439
7638,23233
7923,23233
7923,23439
" /> 
<polyline style="fill-rule:evenodd;"
points="9153,21313
9153,21599
8947,21599
8947,21313
9153,21313
" /> 
<polyline style="fill-rule:evenodd;"
points="8583,21313
8583,21599
8376,21599
8376,21313
8583,21313
" /> 
<polyline style="fill-rule:evenodd;"
points="6033,22750
5590,22750
5590,22465
6033,22465
6033,22750
" /> 
<polyline style="fill-rule:evenodd;"
points="6033,22022
5590,22022
5590,21737
6033,21737
6033,22022
" /> 
<polyline style="fill-rule:evenodd;"
points="9724,12682
10167,12682
10167,12967
9724,12967
9724,12682
" /> 
<polyline style="fill-rule:evenodd;"
points="9724,13410
10167,13410
10167,13695
9724,13695
9724,13410
" /> 
<polyline style="fill-rule:evenodd;"
points="9724,14650
10167,14650
10167,14936
9724,14936
9724,14650
" /> 
<polyline style="fill-rule:evenodd;"
points="9724,15378
10167,15378
10167,15664
9724,15664
9724,15378
" /> 
<polyline style="fill-rule:evenodd;"
points="8248,23902
8691,23902
8691,24187
8248,24187
8248,23902
" /> 
<polyline style="fill-rule:evenodd;"
points="8248,24630
8691,24630
8691,24916
8248,24916
8248,24630
" /> 
<polyline style="fill-rule:evenodd;"
points="8937,23902
9380,23902
9380,24187
8937,24187
8937,23902
" /> 
<polyline style="fill-rule:evenodd;"
points="8937,24630
9380,24630
9380,24916
8937,24916
8937,24630
" /> 
<polyline style="fill-rule:evenodd;"
points="8189,16510
8189,16953
7903,16953
7903,16510
8189,16510
" /> 
<polyline style="fill-rule:evenodd;"
points="7461,16510
7461,16953
7175,16953
7175,16510
7461,16510
" /> 
<polyline style="fill-rule:evenodd;"
points="6742,22632
6457,22632
6457,22426
6742,22426
6742,22632
" /> 
<polyline style="fill-rule:evenodd;"
points="6742,22062
6457,22062
6457,21855
6742,21855
6742,22062
" /> 
<polyline style="fill-rule:evenodd;"
points="7785,8804
7785,8518
7992,8518
7992,8804
7785,8804
" /> 
<polyline style="fill-rule:evenodd;"
points="8356,8804
8356,8518
8563,8518
8563,8804
8356,8804
" /> 
<polyline style="fill-rule:evenodd;"
points="9016,12800
9301,12800
9301,13006
9016,13006
9016,12800
" /> 
<polyline style="fill-rule:evenodd;"
points="9016,13371
9301,13371
9301,13577
9016,13577
9016,13371
" /> 
<polyline style="fill-rule:evenodd;"
points="9016,14768
9301,14768
9301,14975
9016,14975
9016,14768
" /> 
<polyline style="fill-rule:evenodd;"
points="9016,15339
9301,15339
9301,15546
9016,15546
9016,15339
" /> 
<polyline style="fill-rule:evenodd;"
points="8071,17278
8071,17563
7864,17563
7864,17278
8071,17278
" /> 
<polyline style="fill-rule:evenodd;"
points="7500,17278
7500,17563
7293,17563
7293,17278
7500,17278
" /> 
<polyline style="fill-rule:evenodd;"
points="7874,5565
7874,5851
7667,5851
7667,5565
7874,5565
" /> 
<polyline style="fill-rule:evenodd;"
points="7303,5565
7303,5851
7096,5851
7096,5565
7303,5565
" /> 
</g>
<g style="fill:#C1C1C1; fill-opacity:1.0; 
stroke:#C1C1C1; stroke-width:49.2126; stroke-opacity:1; 
stroke-linecap:round; stroke-linejoin:round;">
<circle cx="11127.4" cy="19094.5" r="110.394" /> 
<circle cx="5910.83" cy="16830.7" r="110.394" /> 
<circle cx="6599.8" cy="23031.5" r="110.394" /> 
<circle cx="6009.25" cy="21063" r="110.394" /> 
<circle cx="7091.93" cy="21653.5" r="110.394" /> 
<circle cx="9355.71" cy="8464.57" r="110.394" /> 
<circle cx="9946.26" cy="9448.82" r="110.394" /> 
<circle cx="5418.7" cy="13878" r="110.394" /> 
<circle cx="9650.99" cy="21456.7" r="110.394" /> 
<circle cx="9158.86" cy="17421.3" r="110.394" /> 
<circle cx="8469.88" cy="16830.7" r="110.394" /> 
<circle cx="8836.62" cy="15009.8" r="110.394" /> 
<circle cx="6435.11" cy="16282.2" r="110.394" /> 
<circle cx="5339.96" cy="19716.5" r="110.394" /> 
<circle cx="6698.23" cy="19841.7" r="110.394" /> 
<circle cx="9552.56" cy="12401.6" r="110.394" /> 
<circle cx="9552.56" cy="13976.4" r="110.394" /> 
<circle cx="6501.38" cy="24409.4" r="110.394" /> 
<circle cx="6895.08" cy="12500" r="110.394" /> 
<circle cx="10438.4" cy="15157.5" r="110.394" /> 
<circle cx="7189.6" cy="13191.4" r="110.394" /> 
<circle cx="8711.79" cy="17610.1" r="110.394" /> 
<circle cx="6796.65" cy="18110.2" r="110.394" /> 
<circle cx="6478.91" cy="19333.5" r="110.394" /> 
<circle cx="6289.7" cy="19778.5" r="110.394" /> 
<circle cx="7190.36" cy="15748" r="110.394" /> 
<circle cx="7091.93" cy="13582.7" r="110.394" /> 
<circle cx="6981.65" cy="17681" r="110.394" /> 
<circle cx="7387.21" cy="16141.7" r="110.394" /> 
<circle cx="6639.9" cy="19024.1" r="110.394" /> 
<circle cx="7487.92" cy="13560.2" r="110.394" /> 
<circle cx="8174.61" cy="11712.6" r="110.394" /> 
<circle cx="8910.82" cy="10728.3" r="110.394" /> 
<circle cx="10370.2" cy="16776.9" r="110.394" /> 
<circle cx="10241.5" cy="11811" r="110.394" /> 
<circle cx="8154.14" cy="20477.5" r="110.394" /> 
<circle cx="8785.3" cy="12666.6" r="110.394" /> 
<circle cx="9601.58" cy="17784.5" r="110.394" /> 
<circle cx="10507" cy="18270.5" r="110.394" /> 
<circle cx="8528.1" cy="20646.8" r="110.394" /> 
<circle cx="10545.9" cy="17302.3" r="110.394" /> 
<circle cx="9211.36" cy="20498.4" r="110.394" /> 
<circle cx="10635.2" cy="15649.6" r="110.394" /> 
<circle cx="9044.98" cy="18142.6" r="110.394" /> 
<circle cx="9090.88" cy="16600.1" r="110.394" /> 
<circle cx="6600.96" cy="20762.1" r="110.394" /> 
<circle cx="11341.1" cy="15649.6" r="110.394" /> 
</g>
<g style="fill:#840000; fill-opacity:1.0; 
stroke:#840000; stroke-width:393.701; stroke-opacity:1; 
stroke-linecap:round; stroke-linejoin:round;">
</g>
<g style="fill:#840000; fill-opacity:0.0; 
stroke:#840000; stroke-width:393.701; stroke-opacity:1; 
stroke-linecap:round; stroke-linejoin:round;">
<path d="M5477 16830
L5719 16830
" />
<path d="M4788 17519
L5477 16830
" />
<path d="M4650 17519
L4788 17519
" />
<path d="M5719 16830
L5910 16830
" />
</g>
<g style="fill:#840000; fill-opacity:0.0; 
stroke:#840000; stroke-width:472.441; stroke-opacity:1; 
stroke-linecap:round; stroke-linejoin:round;">
<path d="M7771 5708
L8591 5708
" />
</g>
<g style="fill:#840000; fill-opacity:0.0; 
stroke:#840000; stroke-width:118.11; stroke-opacity:1; 
stroke-linecap:round; stroke-linejoin:round;">
<path d="M6786 22342
L6599 22529
" />
<path d="M7200 22342
L6786 22342
" />
<path d="M6609 22539
L6599 22529
" />
<path d="M7200 22539
L6609 22539
" />
</g>
<g style="fill:#840000; fill-opacity:0.0; 
stroke:#840000; stroke-width:393.701; stroke-opacity:1; 
stroke-linecap:round; stroke-linejoin:round;">
<path d="M5891 22529
L5812 22608
" />
<path d="M6599 22529
L5891 22529
" />
<path d="M6599 23031
L6599 22529
" />
<path d="M6144 21197
L6636 21197
" />
<path d="M6009 21062
L6144 21197
" />
<path d="M6636 21197
L6956 21518
" />
<path d="M6956 21518
L7091 21653
" />
</g>
<g style="fill:#840000; fill-opacity:0.0; 
stroke:#840000; stroke-width:78.7402; stroke-opacity:1; 
stroke-linecap:round; stroke-linejoin:round;">
<path d="M7190 23966
L7190 23907
" />
<path d="M7446 22145
L7584 22283
" />
<path d="M7200 22145
L7446 22145
" />
<path d="M7150 23907
L7190 23907
" />
<path d="M6904 23661
L7150 23907
" />
<path d="M6904 23114
L6904 23661
" />
<path d="M6928 23090
L6904 23114
" />
<path d="M7215 23090
L6928 23090
" />
<path d="M7485 22820
L7215 23090
" />
<path d="M7485 22696
L7485 22820
" />
<path d="M7584 22598
L7485 22696
" />
<path d="M5871 23661
L5123 24409
" />
<path d="M6904 23661
L5871 23661
" />
<path d="M9316 6397
L9670 6397
" />
<path d="M8837 6397
L9316 6397
" />
<path d="M8213 7021
L8837 6397
" />
<path d="M8213 7687
L8213 7021
" />
<path d="M8460 7933
L8213 7687
" />
<path d="M8460 7972
L8460 7933
" />
<path d="M7200 6007
L7200 5708
" />
<path d="M8213 7021
L7200 6007
" />
</g>
<g style="fill:#840000; fill-opacity:0.0; 
stroke:#840000; stroke-width:472.441; stroke-opacity:1; 
stroke-linecap:round; stroke-linejoin:round;">
<path d="M5591 5708
L7200 5708
" />
<path d="M8922 4921
L9670 4921
" />
<path d="M7696 4921
L8922 4921
" />
<path d="M7200 5417
L7696 4921
" />
<path d="M7200 5708
L7200 5417
" />
<path d="M7617 6417
L9651 6417
" />
<path d="M7200 6000
L7617 6417
" />
<path d="M7200 5708
L7200 6000
" />
</g>
<g style="fill:#840000; fill-opacity:0.0; 
stroke:#840000; stroke-width:393.701; stroke-opacity:1; 
stroke-linecap:round; stroke-linejoin:round;">
<path d="M11225 23574
L11225 24409
" />
<path d="M11028 22023
L11028 23377
" />
<path d="M11028 23377
L11225 23574
" />
<path d="M11399 21653
L11028 22023
" />
<path d="M11698 21653
L11399 21653
" />
<path d="M5812 21879
L6521 21879
" />
<path d="M8568 24773
L9355 24773
" />
<path d="M10861 24773
L11225 24409
" />
<path d="M9355 24773
L10861 24773
" />
<path d="M7603 24773
L7574 24803
" />
<path d="M8568 24773
L7603 24773
" />
<path d="M7190 24108
L7190 23907
" />
<path d="M7574 24492
L7190 24108
" />
<path d="M7574 24803
L7574 24492
" />
<path d="M5625 23907
L5123 24409
" />
<path d="M7190 23907
L5625 23907
" />
</g>
<g style="fill:#840000; fill-opacity:0.0; 
stroke:#840000; stroke-width:236.22; stroke-opacity:1; 
stroke-linecap:round; stroke-linejoin:round;">
<path d="M8460 7972
L9070 7972
" />
</g>
<g style="fill:#840000; fill-opacity:0.0; 
stroke:#840000; stroke-width:196.85; stroke-opacity:1; 
stroke-linecap:round; stroke-linejoin:round;">
<path d="M5123 23574
L5123 24409
" />
<path d="M5369 23328
L5123 23574
" />
<path d="M5369 22244
L5369 23328
" />
<path d="M5733 21879
L5369 22244
" />
<path d="M5812 21879
L5733 21879
" />
</g>
<g style="fill:#840000; fill-opacity:0.0; 
stroke:#840000; stroke-width:393.701; stroke-opacity:1; 
stroke-linecap:round; stroke-linejoin:round;">
<path d="M6521 21879
L6599 21958
" />
</g>
<g style="fill:#840000; fill-opacity:0.0; 
stroke:#840000; stroke-width:78.7402; stroke-opacity:1; 
stroke-linecap:round; stroke-linejoin:round;">
<path d="M6786 22145
L6599 21958
" />
<path d="M7200 22145
L6786 22145
" />
</g>
<g style="fill:#840000; fill-opacity:0.0; 
stroke:#840000; stroke-width:196.85; stroke-opacity:1; 
stroke-linecap:round; stroke-linejoin:round;">
<path d="M7584 22283
L7328 22027
" />
<path d="M7328 22027
L6668 22027
" />
<path d="M6668 22027
L6599 21958
" />
</g>
<g style="fill:#840000; fill-opacity:0.0; 
stroke:#840000; stroke-width:393.701; stroke-opacity:1; 
stroke-linecap:round; stroke-linejoin:round;">
<path d="M9070 8185
L9946 9061
" />
<path d="M9070 7972
L9070 8185
" />
<path d="M9946 9061
L9946 9257
" />
<path d="M9946 9257
L9946 9448
" />
<path d="M5418 11023
L5221 10826
" />
<path d="M5418 13877
L5418 11023
" />
</g>
<g style="fill:#840000; fill-opacity:0.0; 
stroke:#840000; stroke-width:118.11; stroke-opacity:1; 
stroke-linecap:round; stroke-linejoin:round;">
<path d="M4532 23818
L5123 24409
" />
<path d="M4119 23405
L4532 23818
" />
<path d="M4119 11929
L4119 23405
" />
<path d="M5221 10826
L4119 11929
" />
<path d="M11836 21653
L11698 21653
" />
<path d="M12229 21259
L11836 21653
" />
<path d="M12229 11929
L12229 21259
" />
<path d="M11127 10826
L12229 11929
" />
</g>
<g style="fill:#840000; fill-opacity:0.0; 
stroke:#840000; stroke-width:78.7402; stroke-opacity:1; 
stroke-linecap:round; stroke-linejoin:round;">
<path d="M8312 22539
L9060 23287
" />
<path d="M7967 22539
L8312 22539
" />
<path d="M8568 23779
L9060 23287
" />
<path d="M8568 24045
L8568 23779
" />
<path d="M8430 23907
L8568 24045
" />
<path d="M7780 23907
L8430 23907
" />
</g>
<g style="fill:#840000; fill-opacity:0.0; 
stroke:#840000; stroke-width:236.22; stroke-opacity:1; 
stroke-linecap:round; stroke-linejoin:round;">
<path d="M9552 23287
L9060 23287
" />
<path d="M10025 22814
L9552 23287
" />
<path d="M10025 21830
L10025 22814
" />
<path d="M9650 21456
L10025 21830
" />
<path d="M9050 21456
L9650 21456
" />
<path d="M4660 18120
L4650 18110
" />
<path d="M5517 18120
L4660 18120
" />
<path d="M6107 18120
L5517 18120
" />
<path d="M6117 14173
L6117 14763
" />
<path d="M9867 12903
L9946 12824
" />
<path d="M9158 12903
L9867 12903
" />
<path d="M7967 16811
L8046 16732
" />
<path d="M7967 17421
L7967 16811
" />
<path d="M6688 15354
L6688 15944
" />
</g>
<g style="fill:#840000; fill-opacity:0.0; 
stroke:#840000; stroke-width:196.85; stroke-opacity:1; 
stroke-linecap:round; stroke-linejoin:round;">
<path d="M6117 14783
L6688 15354
" />
<path d="M6117 14763
L6117 14783
" />
<path d="M9021 15009
L9158 14872
" />
</g>
<g style="fill:#840000; fill-opacity:0.0; 
stroke:#840000; stroke-width:118.11; stroke-opacity:1; 
stroke-linecap:round; stroke-linejoin:round;">
<path d="M9158 18602
L9599 18602
" />
<path d="M7682 17706
L7967 17421
" />
<path d="M7682 18110
L7682 17706
" />
<path d="M8971 13090
L9158 12903
" />
<path d="M8543 13090
L8971 13090
" />
<path d="M7805 13090
L7805 13090
" />
<path d="M7805 13090
L8302 13090
" />
<path d="M8302 13090
L8302 13090
" />
<path d="M8302 13090
L8543 13090
" />
<path d="M8568 15009
L8332 15009
" />
<path d="M8332 15009
L8312 15029
" />
<path d="M8519 15551
L8568 15600
" />
<path d="M8312 15029
L8312 15523
" />
<path d="M8312 15523
L8339 15551
" />
<path d="M8339 15551
L8519 15551
" />
<path d="M8379 10944
L8607 10944
" />
<path d="M8143 10708
L8379 10944
" />
<path d="M7741 10708
L8143 10708
" />
<path d="M7741 10708
L7741 10590
" />
<path d="M7938 8710
L7889 8661
" />
<path d="M7938 10393
L7938 8710
" />
</g>
<g style="fill:#840000; fill-opacity:0.0; 
stroke:#840000; stroke-width:236.22; stroke-opacity:1; 
stroke-linecap:round; stroke-linejoin:round;">
<path d="M9158 14872
L9562 14872
" />
<path d="M9562 14872
L9641 14793
" />
<path d="M9641 14793
L9946 14793
" />
</g>
<g style="fill:#840000; fill-opacity:0.0; 
stroke:#840000; stroke-width:118.11; stroke-opacity:1; 
stroke-linecap:round; stroke-linejoin:round;">
<path d="M7741 10708
L7465 10708
" />
<path d="M7465 10708
L6705 11469
" />
</g>
<g style="fill:#840000; fill-opacity:0.0; 
stroke:#840000; stroke-width:236.22; stroke-opacity:1; 
stroke-linecap:round; stroke-linejoin:round;">
<path d="M7584 10590
L7741 10590
" />
<path d="M6705 11469
L7584 10590
" />
<path d="M7741 10590
L7877 10454
" />
</g>
<g style="fill:#840000; fill-opacity:0.0; 
stroke:#840000; stroke-width:118.11; stroke-opacity:1; 
stroke-linecap:round; stroke-linejoin:round;">
<path d="M7877 10454
L7938 10393
" />
</g>
<g style="fill:#840000; fill-opacity:0.0; 
stroke:#840000; stroke-width:236.22; stroke-opacity:1; 
stroke-linecap:round; stroke-linejoin:round;">
<path d="M7877 9076
L7877 10454
" />
<path d="M7889 9064
L7877 9076
" />
<path d="M7889 8661
L7889 9064
" />
<path d="M4650 14173
L4749 14271
" />
<path d="M4749 14271
L5654 14271
" />
<path d="M5654 14271
L5753 14173
" />
<path d="M5753 14173
L6117 14173
" />
</g>
<g style="fill:#840000; fill-opacity:0.0; 
stroke:#840000; stroke-width:118.11; stroke-opacity:1; 
stroke-linecap:round; stroke-linejoin:round;">
<path d="M8784 13061
L9001 13061
" />
<path d="M8543 12893
L8617 12893
" />
<path d="M9001 13061
L9158 12903
" />
<path d="M8617 12893
L8784 13061
" />
</g>
<g style="fill:#840000; fill-opacity:0.0; 
stroke:#840000; stroke-width:196.85; stroke-opacity:1; 
stroke-linecap:round; stroke-linejoin:round;">
<path d="M9599 18256
L9158 17814
" />
<path d="M9158 17814
L9158 17421
" />
<path d="M8145 16830
L8046 16732
" />
<path d="M8469 16830
L8145 16830
" />
<path d="M9599 18602
L9599 18256
" />
<path d="M8836 15009
L9021 15009
" />
<path d="M8568 15009
L8836 15009
" />
</g>
<g style="fill:#840000; fill-opacity:0.0; 
stroke:#840000; stroke-width:236.22; stroke-opacity:1; 
stroke-linecap:round; stroke-linejoin:round;">
<path d="M6688 15944
L6688 16028
" />
<path d="M6304 16412
L6435 16282
" />
<path d="M6107 18120
L6107 17755
" />
<path d="M6688 16028
L6570 16147
" />
<path d="M6304 17559
L6304 16412
" />
<path d="M6570 16147
L6435 16282
" />
<path d="M6107 17755
L6304 17559
" />
<path d="M6117 12057
L6705 11469
" />
<path d="M6117 14173
L6117 12057
" />
<path d="M10428 13228
L10428 13907
" />
<path d="M10025 12824
L10428 13228
" />
<path d="M10428 13907
L9946 14389
" />
<path d="M9946 12824
L10025 12824
" />
<path d="M9946 14389
L9946 14793
" />
</g>
<g style="fill:#840000; fill-opacity:0.0; 
stroke:#840000; stroke-width:78.7402; stroke-opacity:1; 
stroke-linecap:round; stroke-linejoin:round;">
<path d="M9158 23385
L9060 23287
" />
<path d="M9158 24045
L9158 23385
" />
</g>
<g style="fill:#840000; fill-opacity:0.0; 
stroke:#840000; stroke-width:236.22; stroke-opacity:1; 
stroke-linecap:round; stroke-linejoin:round;">
<path d="M11068 18503
L11698 18503
" />
<path d="M10969 18602
L11068 18503
" />
<path d="M9599 18602
L10969 18602
" />
</g>
<g style="fill:#840000; fill-opacity:0.0; 
stroke:#840000; stroke-width:78.7402; stroke-opacity:1; 
stroke-linecap:round; stroke-linejoin:round;">
<path d="M8543 13287
L8543 13484
" />
<path d="M8076 13356
L8076 13558
" />
<path d="M8007 13287
L8076 13356
" />
<path d="M7805 13287
L8007 13287
" />
<path d="M9149 13484
L9158 13474
" />
<path d="M8543 13484
L9149 13484
" />
<path d="M7485 17509
L7397 17421
" />
<path d="M7485 18110
L7485 17509
" />
<path d="M7318 17342
L7397 17421
" />
<path d="M7318 16732
L7318 17342
" />
<path d="M8843 18425
L8666 18602
" />
<path d="M9139 18425
L8843 18425
" />
<path d="M9158 18405
L9139 18425
" />
<path d="M9158 19586
L8666 19586
" />
<path d="M7505 18425
L7682 18602
" />
<path d="M7505 18129
L7505 18425
" />
<path d="M7485 18110
L7505 18129
" />
<path d="M7603 16368
L7899 16368
" />
<path d="M7318 16653
L7603 16368
" />
<path d="M7899 16368
L8371 15895
" />
</g>
<g style="fill:#840000; fill-opacity:0.0; 
stroke:#840000; stroke-width:118.11; stroke-opacity:1; 
stroke-linecap:round; stroke-linejoin:round;">
<path d="M8273 13558
L8076 13558
" />
<path d="M8469 13558
L8543 13484
" />
<path d="M8273 13558
L8469 13558
" />
<path d="M8543 13484
L8543 13287
" />
<path d="M8558 14419
L8273 14133
" />
<path d="M8568 14419
L8558 14419
" />
<path d="M8273 13558
L8273 14133
" />
<path d="M7780 14714
L7780 15009
" />
<path d="M8017 14714
L7780 14714
" />
<path d="M8036 14714
L8017 14714
" />
<path d="M8332 14419
L8036 14714
" />
<path d="M8568 14419
L8332 14419
" />
</g>
<g style="fill:#840000; fill-opacity:0.0; 
stroke:#840000; stroke-width:78.7402; stroke-opacity:1; 
stroke-linecap:round; stroke-linejoin:round;">
<path d="M8371 15895
L8568 15895
" />
<path d="M7780 15009
L7977 15009
" />
<path d="M7977 15009
L8135 15167
" />
<path d="M8135 15167
L8135 15659
" />
<path d="M8135 15659
L8371 15895
" />
</g>
<g style="fill:#840000; fill-opacity:0.0; 
stroke:#840000; stroke-width:118.11; stroke-opacity:1; 
stroke-linecap:round; stroke-linejoin:round;">
<path d="M9021 15305
L9158 15442
" />
<path d="M8568 15305
L9021 15305
" />
<path d="M8706 15895
L9158 15442
" />
<path d="M8568 15895
L8706 15895
" />
<path d="M8115 15622
L8339 15846
" />
<path d="M8115 15108
L8115 15622
" />
<path d="M8017 15009
L8115 15108
" />
<path d="M8339 15846
L8568 15846
" />
<path d="M8568 15846
L8568 15895
" />
<path d="M7780 15009
L8017 15009
" />
<path d="M8332 15895
L8568 15895
" />
<path d="M7879 16348
L8332 15895
" />
<path d="M7623 16348
L7879 16348
" />
<path d="M7318 16653
L7623 16348
" />
<path d="M7318 16732
L7318 16653
" />
<path d="M8174 10393
L8410 10393
" />
<path d="M8568 14419
L8568 14714
" />
<path d="M8938 11259
L8587 11259
" />
<path d="M8587 11259
L8410 11259
" />
</g>
<g style="fill:#840000; fill-opacity:0.0; 
stroke:#840000; stroke-width:393.701; stroke-opacity:1; 
stroke-linecap:round; stroke-linejoin:round;">
<path d="M8938 11787
L9552 12401
" />
<path d="M8938 11259
L8938 11787
" />
<path d="M9552 13946
L9946 13553
" />
<path d="M9552 13976
L9552 13946
" />
<path d="M9237 13553
L9158 13474
" />
<path d="M9946 13553
L9237 13553
" />
<path d="M9158 13582
L9552 13976
" />
<path d="M9158 13474
L9158 13582
" />
<path d="M9109 14419
L9552 13976
" />
<path d="M8568 14419
L9109 14419
" />
<path d="M9867 15442
L9946 15521
" />
<path d="M9158 15442
L9867 15442
" />
</g>
<g style="fill:#840000; fill-opacity:0.0; 
stroke:#840000; stroke-width:236.22; stroke-opacity:1; 
stroke-linecap:round; stroke-linejoin:round;">
<path d="M8460 10344
L8410 10393
" />
<path d="M8460 8661
L8460 10344
" />
<path d="M8410 10393
L9119 10393
" />
<path d="M9242 10516
L9242 10955
" />
<path d="M9119 10393
L9242 10516
" />
<path d="M8938 11259
L9242 10955
" />
</g>
<g style="fill:#840000; fill-opacity:0.0; 
stroke:#840000; stroke-width:393.701; stroke-opacity:1; 
stroke-linecap:round; stroke-linejoin:round;">
<path d="M6895 24803
L6501 24409
" />
<path d="M7003 24803
L6895 24803
" />
</g>
<g style="fill:#840000; fill-opacity:0.0; 
stroke:#840000; stroke-width:118.11; stroke-opacity:1; 
stroke-linecap:round; stroke-linejoin:round;">
<path d="M6895 12401
L6895 12500
" />
<path d="M7938 11259
L7938 11358
" />
<path d="M7938 11358
L6895 12401
" />
</g>
<g style="fill:#840000; fill-opacity:0.0; 
stroke:#840000; stroke-width:393.701; stroke-opacity:1; 
stroke-linecap:round; stroke-linejoin:round;">
<path d="M9946 15521
L10074 15521
" />
<path d="M10303 15292
L10438 15157
" />
<path d="M10074 15521
L10303 15292
" />
<path d="M9552 12401
L10386 12401
" />
<path d="M10386 12401
L10832 12847
" />
<path d="M10832 14763
L10438 15157
" />
<path d="M10832 12847
L10832 14763
" />
</g>
<g style="fill:#840000; fill-opacity:0.0; 
stroke:#840000; stroke-width:118.11; stroke-opacity:1; 
stroke-linecap:round; stroke-linejoin:round;">
<path d="M7380 13191
L7189 13191
" />
<path d="M7476 13287
L7380 13191
" />
<path d="M8046 13287
L7476 13287
" />
<path d="M8076 13316
L8046 13287
" />
<path d="M8076 13558
L8076 13316
" />
</g>
<g style="fill:#840000; fill-opacity:0.0; 
stroke:#840000; stroke-width:78.7402; stroke-opacity:1; 
stroke-linecap:round; stroke-linejoin:round;">
<path d="M8902 22342
L9060 22185
" />
<path d="M7967 22342
L8902 22342
" />
<path d="M8962 17168
L8711 17419
" />
<path d="M10913 17969
L10176 17969
" />
<path d="M9375 17168
L8962 17168
" />
<path d="M11560 17322
L10913 17969
" />
<path d="M8711 17419
L8711 17610
" />
<path d="M11698 17322
L11560 17322
" />
<path d="M10176 17969
L9375 17168
" />
<path d="M7190 18799
L7002 18799
" />
<path d="M6796 18592
L6796 18110
" />
<path d="M7002 18799
L6796 18592
" />
<path d="M10956 17336
L10956 17490
" />
<path d="M10202 17772
L9440 17010
" />
<path d="M8458 17737
L8516 17795
" />
<path d="M11698 16732
L11560 16732
" />
<path d="M11560 16732
L10956 17336
" />
<path d="M10956 17490
L10674 17772
" />
<path d="M8873 17010
L8458 17425
" />
<path d="M8458 17425
L8458 17737
" />
<path d="M10674 17772
L10202 17772
" />
<path d="M9440 17010
L8873 17010
" />
<path d="M8516 17795
L8539 17795
" />
<path d="M8666 17922
L8666 18110
" />
<path d="M8539 17795
L8666 17922
" />
<path d="M9509 16853
L10227 17571
" />
<path d="M8076 18110
L8076 17834
" />
<path d="M8301 17609
L8301 17360
" />
<path d="M8808 16853
L9509 16853
" />
<path d="M10650 17571
L10799 17423
" />
<path d="M11560 16141
L11698 16141
" />
<path d="M8301 17360
L8808 16853
" />
<path d="M10227 17571
L10650 17571
" />
<path d="M10799 17423
L10799 16903
" />
<path d="M10799 16903
L11560 16141
" />
<path d="M8076 17834
L8301 17609
" />
<path d="M6117 15354
L4650 15354
" />
<path d="M6535 19389
L6478 19333
" />
<path d="M7190 19389
L6535 19389
" />
<path d="M6117 15944
L6117 15905
" />
<path d="M5910 15698
L5034 15698
" />
<path d="M5034 15698
L4788 15944
" />
<path d="M4788 15944
L4650 15944
" />
<path d="M6117 15905
L5910 15698
" />
<path d="M6481 19586
L6424 19643
" />
<path d="M7190 19586
L6481 19586
" />
<path d="M6424 19643
L6289 19778
" />
<path d="M5123 19291
L4650 19291
" />
<path d="M5517 18897
L5123 19291
" />
<path d="M5517 18690
L5517 18897
" />
<path d="M5556 18444
L6363 18444
" />
<path d="M5517 18484
L5556 18444
" />
<path d="M5517 18690
L5517 18484
" />
<path d="M7780 15600
L7337 15600
" />
<path d="M7337 15600
L7325 15613
" />
<path d="M7325 15613
L7190 15748
" />
<path d="M6363 18444
L6540 18267
" />
<path d="M6540 18267
L6540 16588
" />
<path d="M6540 16588
L7190 15938
" />
<path d="M7190 15938
L7190 15748
" />
<path d="M6363 18444
L6424 18444
" />
<path d="M6976 18996
L7190 18996
" />
<path d="M6424 18444
L6976 18996
" />
<path d="M7741 11082
L6641 12182
" />
<path d="M7741 10944
L7741 11082
" />
<path d="M6641 12182
L6641 12621
" />
<path d="M6641 12621
L6914 12893
" />
<path d="M6914 12893
L7209 12893
" />
<path d="M7547 12949
L7603 12893
" />
<path d="M7265 12949
L7547 12949
" />
<path d="M7603 12893
L7805 12893
" />
<path d="M7209 12893
L7265 12949
" />
<path d="M7209 12893
L7112 12893
" />
<path d="M7112 12893
L6936 13069
" />
<path d="M6936 13069
L6936 13427
" />
<path d="M6936 13427
L6956 13447
" />
<path d="M6956 13447
L7091 13582
" />
<path d="M4788 19881
L4650 19881
" />
<path d="M5979 18690
L4788 19881
" />
<path d="M6107 18690
L5979 18690
" />
<path d="M6981 17680
L6981 16448
" />
<path d="M6981 16448
L7153 16276
" />
<path d="M7153 16276
L7252 16276
" />
<path d="M7252 16276
L7387 16141
" />
<path d="M7780 15895
L7771 15895
" />
<path d="M7771 15895
L7525 16141
" />
<path d="M7525 16141
L7387 16141
" />
<path d="M6480 19024
L6639 19024
" />
<path d="M6107 18690
L6147 18690
" />
<path d="M7190 19192
L6808 19192
" />
<path d="M6147 18690
L6480 19024
" />
<path d="M6808 19192
L6774 19159
" />
<path d="M6774 19159
L6639 19024
" />
<path d="M7563 13484
L7487 13560
" />
<path d="M7805 13484
L7563 13484
" />
<path d="M8174 11259
L8174 11712
" />
<path d="M8607 10708
L8891 10708
" />
<path d="M8891 10708
L8910 10728
" />
<path d="M10376 11946
L10241 11811
" />
<path d="M11147 12716
L10376 11946
" />
<path d="M10370 16776
L10930 16216
" />
<path d="M10930 15110
L11147 14894
" />
<path d="M11147 14894
L11147 12716
" />
<path d="M10930 16216
L10930 15110
" />
<path d="M5123 20472
L4650 20472
" />
<path d="M5501 20094
L5123 20472
" />
<path d="M7052 20393
L6753 20094
" />
<path d="M8539 20393
L7052 20393
" />
<path d="M8666 20266
L8539 20393
" />
<path d="M8666 20078
L8666 20266
" />
<path d="M6753 20094
L5501 20094
" />
<path d="M8697 12578
L8785 12666
" />
<path d="M8115 12578
L8697 12578
" />
<path d="M8076 12819
L8076 12618
" />
<path d="M8076 12618
L8115 12578
" />
<path d="M8327 20742
L7178 20742
" />
<path d="M8327 20742
L8327 20742
" />
<path d="M7178 20742
L6687 20252
" />
<path d="M4788 21062
L4650 21062
" />
<path d="M5599 20252
L4788 21062
" />
<path d="M6687 20252
L5599 20252
" />
<path d="M8863 20078
L8863 20339
" />
<path d="M8863 20339
L8460 20742
" />
<path d="M8460 20742
L8327 20742
" />
<path d="M10087 18270
L9736 17919
" />
<path d="M10507 18270
L10087 18270
" />
<path d="M9736 17919
L9601 17784
" />
<path d="M8528 20674
L8528 20646
" />
<path d="M8460 20742
L8528 20674
" />
</g>
<g style="fill:#840000; fill-opacity:0.0; 
stroke:#840000; stroke-width:236.22; stroke-opacity:1; 
stroke-linecap:round; stroke-linejoin:round;">
<path d="M7889 7283
L7889 7972
" />
</g>
<g style="fill:#840000; fill-opacity:0.0; 
stroke:#840000; stroke-width:78.7402; stroke-opacity:1; 
stroke-linecap:round; stroke-linejoin:round;">
<path d="M10623 17033
L10545 17111
" />
<path d="M7889 8011
L8135 8257
" />
<path d="M7889 7972
L7889 8011
" />
<path d="M8564 8257
L9631 9324
" />
<path d="M9631 9324
L9631 10832
" />
<path d="M11304 12506
L11304 14959
" />
<path d="M9631 10832
L11304 12506
" />
<path d="M11087 15176
L11087 16383
" />
<path d="M8135 8257
L8564 8257
" />
<path d="M11087 16383
L10623 16848
" />
<path d="M10623 16848
L10623 17033
" />
<path d="M11304 14959
L11087 15176
" />
<path d="M10545 17111
L10545 17302
" />
<path d="M9158 19783
L9158 20445
" />
<path d="M9158 20445
L9211 20498
" />
<path d="M5123 21318
L4788 21653
" />
<path d="M6694 20497
L5906 20497
" />
<path d="M7161 20964
L6694 20497
" />
<path d="M4788 21653
L4650 21653
" />
<path d="M5906 20497
L5123 21280
" />
<path d="M8568 20964
L7161 20964
" />
<path d="M5123 21280
L5123 21318
" />
<path d="M9034 20498
L8568 20964
" />
<path d="M9211 20498
L9034 20498
" />
<path d="M7967 23149
L7780 23336
" />
<path d="M7967 22736
L7967 23149
" />
<path d="M7190 23336
L7780 23336
" />
<path d="M8479 21456
L8479 21496
" />
<path d="M7967 21968
L8233 21702
" />
<path d="M8273 21702
L8479 21496
" />
<path d="M8233 21702
L8273 21702
" />
<path d="M7967 22145
L7967 21968
" />
</g>
<g style="fill:#840000; fill-opacity:0.0; 
stroke:#840000; stroke-width:236.22; stroke-opacity:1; 
stroke-linecap:round; stroke-linejoin:round;">
<path d="M9641 7972
L10251 7972
" />
</g>
<g style="fill:#840000; fill-opacity:0.0; 
stroke:#840000; stroke-width:78.7402; stroke-opacity:1; 
stroke-linecap:round; stroke-linejoin:round;">
<path d="M9012 18110
L9044 18142
" />
<path d="M8863 18110
L9012 18110
" />
<path d="M9684 16600
L9281 16600
" />
<path d="M9281 16600
L9090 16600
" />
<path d="M10635 15649
L9684 16600
" />
<path d="M5694 20932
L5878 20748
" />
<path d="M5694 21338
L5694 20932
" />
<path d="M5878 20748
L6395 20748
" />
<path d="M4650 22244
L4788 22244
" />
<path d="M4788 22244
L5694 21338
" />
<path d="M6410 20762
L6600 20762
" />
<path d="M6395 20748
L6410 20762
" />
<path d="M10320 8897
L10320 11299
" />
<path d="M9641 7972
L9641 8218
" />
<path d="M9641 8218
L10320 8897
" />
<path d="M11476 15514
L11341 15649
" />
<path d="M11476 12455
L11476 15514
" />
<path d="M10320 11299
L11476 12455
" />
</g>
<g style="fill:#840000; fill-opacity:0.0; 
stroke:#840000; stroke-width:472.441; stroke-opacity:1; 
stroke-linecap:round; stroke-linejoin:round;">
<path d="M10635 6003
L11698 6003
" />
<path d="M10615 6023
L10635 6003
" />
<path d="M11422 4547
L11698 4822
" />
<path d="M10615 4547
L11422 4547
" />
</g>
<g style="fill:#840000; fill-opacity:0.0; 
stroke:#840000; stroke-width:78.7402; stroke-opacity:1; 
stroke-linecap:round; stroke-linejoin:round;">
<path d="M8666 7283
L8460 7283
" />
<path d="M9292 7283
L8666 7283
" />
<path d="M10064 6511
L9292 7283
" />
<path d="M10064 5728
L10064 6511
" />
<path d="M10497 5295
L10064 5728
" />
<path d="M10615 5295
L10497 5295
" />
</g>
<g style="fill:#840000; fill-opacity:0.0; 
stroke:#840000; stroke-width:236.22; stroke-opacity:1; 
stroke-linecap:round; stroke-linejoin:round;">
<path d="M10615 7765
L10822 7972
" />
<path d="M10615 6771
L10615 7765
" />
</g>
<g style="fill:#840000; fill-opacity:0.0; 
stroke:#840000; stroke-width:78.7402; stroke-opacity:1; 
stroke-linecap:round; stroke-linejoin:round;">
<path d="M7436 15305
L7584 15305
" />
<path d="M6895 14763
L7436 15305
" />
<path d="M7584 15305
L7780 15305
" />
<path d="M6688 14763
L6895 14763
" />
<path d="M7780 14468
L7485 14468
" />
<path d="M7780 14419
L7780 14468
" />
<path d="M7485 14468
L7190 14173
" />
<path d="M7190 14173
L6688 14173
" />
<path d="M11560 21062
L11698 21062
" />
<path d="M10330 19783
L10330 19832
" />
<path d="M10350 19783
L10330 19783
" />
<path d="M10697 19783
L10350 19783
" />
<path d="M10824 19909
L10697 19783
" />
<path d="M10824 20188
L10824 19909
" />
<path d="M11205 20569
L10824 20188
" />
<path d="M11205 20619
L11205 20569
" />
<path d="M11413 20827
L11205 20619
" />
<path d="M11462 20827
L11413 20827
" />
<path d="M11698 21062
L11462 20827
" />
<path d="M11560 20472
L11698 20472
" />
<path d="M10330 19192
L10330 19242
" />
<path d="M11330 20472
L11698 20472
" />
<path d="M10981 20123
L11330 20472
" />
<path d="M10981 19844
L10981 20123
" />
<path d="M10330 19192
L10981 19844
" />
<path d="M9759 19714
L9759 19783
" />
<path d="M9434 19389
L9759 19714
" />
<path d="M9158 19389
L9434 19389
" />
<path d="M9158 19192
L9759 19192
" />
</g>
<g style="fill:#840000; fill-opacity:1.0; 
stroke:#840000; stroke-width:78.7402; stroke-opacity:1; 
stroke-linecap:round; stroke-linejoin:round;">
<polyline style="fill-rule:evenodd;"
points="9788,22401
9785,22401
8387,22401
8374,22394
8373,22394
8372,22393
8359,22389
8345,22385
8344,22385
8343,22384
8329,22383
8314,22381
8312,22381
8312,22381
8312,22381
8312,22381
8121,22381
8109,22376
8076,22371
7879,22371
7879,22313
8076,22313
8095,22312
8127,22302
8154,22283
8176,22258
8190,22227
8194,22194
8194,22179
8197,22176
8206,22158
8212,22140
8213,22122
8213,21945
8269,21889
9749,21889
9788,21928
9788,22401
" /> 
<polyline style="fill-rule:evenodd;"
points="9906,24028
9906,24034
9905,24038
9903,24041
9899,24046
9779,24165
9775,24169
9771,24171
9767,24172
9761,24173
7807,24173
7801,24172
7797,24171
7794,24169
7789,24165
7630,24006
7627,24002
7625,23998
7624,23994
7623,23988
7623,23806
7624,23800
7625,23796
7627,23793
7630,23788
7829,23590
7833,23586
7837,23584
7841,23583
7841,23583
7948,23583
7967,23581
7968,23581
7972,23580
7991,23575
7995,23572
7999,23571
8005,23567
8008,23566
8010,23564
8026,23553
8047,23529
8107,23469
8118,23455
8127,23438
8133,23419
8135,23402
8135,22887
8154,22874
8176,22848
8190,22818
8194,22785
8194,22687
8193,22667
8183,22636
8164,22608
8139,22586
8109,22573
8076,22568
7902,22568
7905,22565
7908,22562
7911,22560
7915,22559
7921,22559
9904,22559
9906,22559
9906,22560
9906,24028
" /> 
<polyline style="fill-rule:evenodd;"
points="12269,24402
12248,24611
12212,24731
12212,22246
12212,21065
12205,20992
12185,20922
12151,20858
12105,20801
12065,20767
12102,20737
12148,20681
12183,20617
12204,20547
12212,20475
12212,18506
12205,18433
12185,18363
12151,18299
12105,18242
12065,18208
12102,18178
12148,18122
12183,18058
12204,17988
12212,17915
12205,17843
12185,17773
12151,17708
12105,17651
12065,17617
12102,17588
12148,17531
12183,17467
12204,17398
12212,17325
12205,17252
12185,17182
12151,17118
12105,17061
12065,17027
12102,16997
12148,16941
12183,16877
12204,16807
12212,16734
12205,16662
12185,16592
12151,16527
12105,16470
12065,16436
12102,16407
12148,16350
12183,16286
12204,16216
12212,16144
12212,6597
12205,6524
12185,6454
12151,6389
12105,6332
12065,6299
12102,6269
12148,6213
12183,6148
12204,6079
12212,6006
12205,5933
12185,5863
12151,5799
12105,5742
12065,5708
12102,5678
12148,5622
12183,5558
12204,5488
12212,5415
12205,5343
12185,5273
12151,5208
12105,5151
12065,5117
12102,5088
12148,5031
12183,4967
12204,4898
12212,4825
12205,4752
12185,4682
12151,4618
12105,4561
12049,4514
11985,4479
11916,4456
11843,4448
11838,4448
11825,4448
11673,4296
11647,4275
11622,4254
11621,4253
11619,4252
11590,4237
11562,4221
11560,4221
11558,4220
11527,4210
11496,4200
11494,4200
11492,4199
11460,4196
11427,4192
11423,4192
11423,4192
11423,4192
11422,4192
10615,4192
10546,4199
10480,4219
10419,4252
10365,4295
10351,4313
10343,4317
10301,4351
10267,4393
10241,4440
10225,4491
10219,4545
10224,4598
10240,4650
10264,4698
10298,4740
10339,4774
10350,4780
10362,4795
10415,4839
10475,4872
10541,4893
10610,4901
10615,4901
11193,4901
11211,4962
11244,5027
11290,5084
11330,5118
11294,5147
11247,5204
11213,5268
11191,5338
11183,5410
11190,5483
11211,5553
11244,5618
11270,5649
10635,5649
10602,5652
10570,5655
10568,5656
10566,5656
10535,5665
10503,5674
10501,5675
10500,5676
10471,5691
10442,5706
10440,5707
10439,5708
10413,5729
10388,5749
10385,5752
10385,5752
10385,5752
10384,5753
10365,5773
10351,5789
10343,5794
10301,5828
10267,5869
10241,5916
10225,5968
10221,6003
10221,5793
10449,5566
10491,5570
10495,5570
10735,5570
10789,5565
10840,5550
10888,5524
10929,5490
10964,5449
10989,5402
11005,5350
11011,5297
11006,5243
10991,5192
10966,5144
10932,5102
10891,5067
10844,5041
10792,5025
10739,5019
10735,5019
10495,5019
10442,5024
10390,5040
10343,5065
10301,5099
10267,5141
10241,5188
10225,5239
10219,5293
10224,5345
9953,5616
9943,5628
9934,5639
9934,5640
9933,5640
9926,5653
9919,5666
9919,5667
9918,5667
9914,5681
9910,5695
9910,5696
9910,5697
9908,5711
9906,5726
9906,5727
9906,5727
9906,5727
9906,5728
9906,6446
9227,7125
9104,7125
9104,6102
9104,5315
9102,5295
9092,5264
9074,5236
9048,5214
9018,5201
8985,5196
8198,5196
8179,5198
8147,5207
8119,5226
8098,5251
8084,5282
8079,5315
8079,5354
7771,5354
7702,5361
7636,5381
7574,5413
7521,5457
7477,5510
7444,5571
7423,5637
7416,5706
7423,5775
7442,5841
7474,5902
7517,5956
7570,6001
7631,6034
7697,6055
7766,6062
7771,6062
8079,6062
8079,6102
8081,6121
8091,6153
8109,6180
8135,6202
8165,6216
8198,6220
8985,6220
9004,6219
9036,6209
9064,6190
9085,6165
9099,6135
9104,6102
9104,7125
8706,7125
8706,7116
8705,7096
8695,7065
8676,7037
8651,7015
8620,7002
8587,6997
8332,6997
8312,6999
8281,7008
8253,7027
8231,7052
8218,7083
8213,7116
8213,7450
8214,7469
8224,7501
8243,7529
8268,7551
8299,7564
8332,7569
8587,7569
8607,7567
8638,7557
8666,7539
8688,7514
8701,7483
8706,7450
8706,7440
9292,7440
9307,7439
9321,7438
9322,7438
9323,7437
9337,7433
9351,7429
9351,7429
9352,7429
9365,7422
9378,7415
9379,7415
9379,7414
9391,7405
9402,7396
9403,7395
9403,7395
9403,7395
9404,7394
10175,6623
10184,6611
10194,6600
10194,6600
10195,6599
10202,6586
10209,6573
10209,6573
10209,6572
10214,6558
10218,6544
10218,6543
10218,6542
10220,6528
10221,6513
10221,6512
10221,6512
10221,6512
10221,6511
10221,6042
10224,6075
10240,6126
10264,6174
10298,6216
10339,6251
10350,6257
10363,6272
10416,6316
10477,6349
10543,6370
10611,6377
10680,6371
10727,6358
11270,6358
11247,6385
11213,6449
11191,6519
11183,6591
11190,6664
11211,6734
11244,6799
11290,6856
11346,6903
11410,6938
11480,6960
11552,6968
11557,6968
11838,6968
11911,6961
11981,6940
12045,6906
12102,6859
12148,6803
12183,6739
12204,6669
12212,6597
12212,16144
12205,16071
12185,16001
12151,15936
12105,15880
12049,15833
11985,15797
11916,15775
11843,15767
11838,15767
11565,15767
11582,15729
11593,15681
11594,15624
11593,15619
11596,15614
11606,15603
11606,15602
11606,15602
11613,15589
11620,15576
11621,15575
11621,15575
11625,15561
11630,15547
11630,15546
11630,15545
11631,15531
11633,15516
11633,15515
11633,15515
11633,15515
11633,15514
11633,12455
11632,12440
11630,12426
11630,12425
11630,12424
11626,12410
11622,12396
11621,12395
11621,12395
11614,12382
11608,12369
11607,12368
11607,12367
11598,12356
11589,12345
11587,12344
11587,12344
11587,12344
11587,12343
10477,11233
10477,8897
10476,8883
10475,8868
10474,8867
10474,8867
10470,8853
10466,8839
10466,8838
10465,8837
10459,8824
10452,8811
10451,8811
10451,8810
10442,8799
10433,8787
10432,8786
10432,8786
10431,8786
10431,8786
9859,8214
9864,8208
10028,8208
10034,8218
10060,8240
10090,8253
10123,8258
10379,8258
10398,8256
10430,8246
10458,8228
10479,8203
10493,8172
10498,8139
10498,7982
10575,8059
10575,8139
10577,8158
10587,8190
10605,8218
10630,8240
10661,8253
10694,8258
10950,8258
10969,8256
11001,8246
11028,8228
11050,8203
11064,8172
11068,8139
11068,7805
11067,7785
11057,7754
11038,7726
11013,7704
10983,7691
10950,7686
10870,7686
10851,7667
10851,7020
10888,7001
10929,6967
10964,6925
10989,6878
11005,6827
11011,6773
11006,6720
10991,6668
10966,6620
10932,6578
10891,6544
10844,6518
10792,6502
10739,6496
10735,6496
10495,6496
10442,6501
10390,6516
10343,6542
10301,6576
10267,6617
10241,6664
10225,6716
10219,6769
10224,6823
10240,6874
10264,6922
10298,6964
10339,6999
10379,7020
10379,7686
10123,7686
10104,7687
10072,7697
10044,7716
10027,7736
9864,7736
9857,7726
9832,7704
9802,7691
9769,7686
9513,7686
9494,7687
9462,7697
9434,7716
9412,7741
9399,7772
9394,7805
9394,8139
9396,8158
9406,8190
9424,8218
9449,8240
9480,8253
9488,8254
9490,8263
9494,8276
9495,8277
9495,8278
9502,8291
9509,8304
9509,8304
9509,8305
9519,8316
9528,8328
9529,8329
9529,8329
9529,8329
9529,8329
10162,8962
10162,11141
9788,10767
9788,9324
9787,9310
9786,9295
9785,9295
9785,9294
9781,9280
9777,9266
9777,9265
9776,9264
9770,9251
9763,9239
9762,9238
9762,9237
9753,9226
9744,9215
9743,9213
9743,9213
9743,9213
9742,9213
8675,8146
8664,8137
8653,8127
8652,8127
8651,8127
8639,8120
8626,8113
8625,8112
8624,8112
8610,8108
8597,8103
8596,8103
8595,8103
8581,8102
8566,8100
8564,8100
8564,8100
8564,8100
8564,8100
8200,8100
8135,8035
8135,7805
8134,7785
8125,7757
8125,7496
8131,7483
8135,7450
8135,7116
8134,7096
8124,7065
8105,7037
8080,7015
8050,7002
8017,6997
7761,6997
7742,6999
7710,7008
7682,7027
7660,7052
7647,7083
7642,7116
7642,7450
7644,7469
7652,7498
7652,7759
7647,7772
7642,7805
7642,8139
7644,8158
7654,8190
7672,8218
7697,8240
7728,8253
7761,8258
7913,8258
7964,8310
7907,8367
7901,8375
7761,8375
7742,8376
7710,8386
7682,8405
7660,8430
7647,8461
7642,8494
7642,8828
7644,8847
7652,8876
7652,9007
7646,9027
7646,9028
7646,9029
7644,9051
7641,9072
7641,9075
7641,9075
7641,9075
7641,9076
7641,10354
7584,10354
7562,10356
7540,10358
7539,10358
7538,10358
7517,10365
7496,10371
7495,10371
7494,10372
7474,10382
7455,10392
7454,10393
7453,10393
7436,10407
7419,10421
7417,10422
7417,10422
7417,10422
7417,10423
6538,11302
5950,11890
5936,11906
5922,11923
5922,11924
5921,11925
5910,11944
5900,11964
5900,11965
5899,11966
5893,11987
5886,12007
5886,12009
5885,12010
5883,12032
5881,12053
5881,12056
5881,12056
5881,12056
5881,12057
5881,13937
5753,13937
5731,13939
5709,13941
5708,13941
5707,13941
5686,13947
5665,13953
5664,13954
5663,13954
5644,13965
5624,13975
5623,13975
5622,13976
5605,13990
5588,14003
5586,14005
5586,14005
5586,14005
5586,14006
5557,14035
5138,14035
5138,14033
5104,13968
5058,13911
5018,13877
5054,13848
5101,13791
5136,13727
5157,13657
5165,13585
5158,13512
5138,13442
5104,13377
5058,13320
5002,13274
4938,13238
4869,13216
4796,13208
4791,13208
4510,13208
4438,13215
4368,13236
4303,13271
4247,13317
4200,13373
4165,13437
4144,13507
4136,13580
4143,13652
4163,13722
4197,13787
4243,13844
4283,13878
4247,13907
4200,13964
4165,14028
4144,14098
4136,14170
4143,14243
4163,14313
4197,14378
4243,14434
4299,14481
4363,14516
4432,14539
4505,14547
4510,14547
4791,14547
4863,14540
4933,14519
4954,14507
5654,14507
5676,14505
5698,14503
5699,14503
5700,14503
5721,14497
5742,14490
5743,14490
5744,14490
5764,14479
5783,14469
5784,14468
5785,14468
5802,14454
5819,14441
5821,14439
5821,14439
5821,14439
5821,14438
5851,14409
5881,14409
5881,14550
5875,14563
5870,14596
5870,14931
5872,14950
5882,14982
5900,15009
5926,15031
5956,15045
5989,15049
6077,15049
6096,15068
5989,15068
5970,15069
5938,15079
5910,15098
5889,15123
5875,15154
5870,15187
5870,15196
5128,15196
5104,15149
5058,15092
5002,15045
4938,15010
4869,14988
4796,14980
4791,14980
4510,14980
4438,14987
4368,15008
4303,15042
4247,15088
4200,15145
4165,15209
4144,15279
4136,15351
4143,15424
4163,15494
4197,15559
4243,15616
4283,15649
4247,15679
4200,15735
4165,15799
4144,15869
4136,15942
4143,16014
4163,16084
4197,16149
4243,16206
4299,16253
4363,16288
4432,16310
4505,16318
4510,16318
4791,16318
4863,16311
4933,16290
4998,16256
5054,16210
5101,16154
5136,16089
5157,16020
5165,15947
5158,15874
5153,15856
5845,15856
5870,15881
5870,16112
5872,16131
5882,16163
5900,16190
5926,16212
5956,16226
5989,16230
6152,16230
6137,16245
6123,16262
6109,16279
6109,16280
6108,16281
6097,16300
6087,16319
6087,16320
6086,16321
6080,16342
6073,16363
6073,16364
6072,16366
6070,16387
6068,16409
6068,16411
6068,16411
6068,16411
6068,16412
6068,16559
6034,16541
5976,16522
5915,16515
5910,16515
5719,16515
5477,16515
5448,16518
5419,16521
5418,16521
5416,16521
5388,16530
5360,16538
5359,16539
5357,16539
5332,16553
5306,16566
5304,16567
5303,16568
5280,16586
5258,16604
5255,16607
5255,16607
5255,16607
5255,16607
4717,17145
4510,17145
4438,17152
4368,17173
4303,17208
4247,17254
4200,17310
4165,17374
4144,17444
4136,17517
4143,17589
4163,17659
4197,17724
4243,17781
4283,17815
4247,17844
4200,17901
4165,17965
4144,18035
4136,18107
4143,18180
4163,18250
4197,18315
4243,18371
4283,18405
4247,18435
4200,18491
4165,18555
4144,18625
4136,18698
4143,18770
4163,18840
4197,18905
4243,18962
4283,18996
4247,19025
4200,19082
4165,19146
4144,19216
4136,19288
4143,19361
4163,19431
4197,19496
4243,19553
4283,19586
4247,19616
4200,19672
4165,19736
4144,19806
4136,19879
4143,19951
4163,20021
4197,20086
4243,20143
4283,20177
4247,20207
4200,20263
4165,20327
4144,20397
4136,20469
4143,20542
4163,20612
4197,20677
4243,20734
4283,20767
4247,20797
4200,20853
4165,20918
4144,20987
4136,21060
4143,21133
4163,21203
4197,21267
4243,21324
4283,21358
4247,21388
4200,21444
4165,21508
4144,21578
4136,21650
4143,21723
4163,21793
4197,21858
4243,21915
4283,21948
4247,21978
4200,22034
4165,22099
4144,22168
4136,22241
4143,22314
4163,22384
4197,22448
4243,22505
4299,22552
4363,22587
4432,22609
4505,22618
4510,22618
4791,22618
4863,22610
4933,22589
4998,22555
5054,22509
5101,22453
5136,22389
5157,22319
5165,22246
5158,22174
5141,22114
5805,21449
5814,21438
5824,21427
5824,21426
5825,21426
5832,21413
5839,21400
5839,21399
5839,21399
5843,21385
5848,21371
5848,21370
5848,21369
5850,21355
5850,21349
5921,21420
5944,21439
5966,21457
5967,21458
5969,21459
5994,21473
6020,21487
6021,21487
6023,21488
6051,21497
6078,21506
6080,21506
6081,21506
6110,21509
6139,21512
6143,21512
6143,21512
6143,21512
6144,21512
6505,21512
6734,21741
6734,21741
6869,21876
6916,21915
6970,21944
7029,21962
7090,21968
7152,21962
7210,21945
7265,21916
7313,21877
7352,21830
7381,21776
7400,21717
7406,21656
7401,21595
7384,21536
7356,21482
7317,21433
7314,21430
7179,21295
7179,21295
6859,20975
6836,20956
6814,20938
6812,20937
6811,20936
6794,20927
6822,20887
6834,20860
7050,21075
7061,21085
7072,21094
7073,21094
7073,21095
7086,21102
7099,21109
7100,21109
7100,21109
7114,21114
7128,21118
7129,21118
7130,21118
7144,21120
7159,21122
7160,21122
7160,21122
7160,21122
7161,21122
8568,21122
8582,21120
8597,21119
8598,21119
8598,21119
8612,21114
8626,21110
8627,21110
8628,21110
8641,21103
8654,21096
8654,21096
8655,21095
8666,21086
8678,21077
8679,21076
8679,21076
8679,21076
8679,21075
9056,20699
9087,20720
9132,20740
9181,20750
9230,20751
9279,20743
9326,20725
9367,20698
9403,20664
9432,20624
9452,20578
9463,20530
9464,20473
9454,20424
9435,20379
9408,20337
9373,20302
9332,20274
9316,20267
9316,19949
9340,19947
9371,19938
9400,19922
9425,19902
9446,19877
9462,19848
9471,19817
9475,19784
9472,19752
9463,19720
9448,19691
9442,19685
9446,19680
9462,19651
9464,19642
9512,19690
9512,19950
9514,19969
9524,20001
9542,20029
9567,20051
9598,20064
9631,20069
9887,20069
9906,20067
9938,20057
9965,20039
9987,20014
10001,19983
10005,19950
10005,19616
10004,19596
9994,19565
9975,19537
9950,19515
9920,19502
9887,19497
9764,19497
9746,19478
9887,19478
9906,19477
9938,19467
9965,19449
9987,19423
10001,19393
10005,19360
10005,19025
10004,19006
9994,18974
9975,18946
9950,18925
9920,18911
9887,18906
9631,18906
9612,18908
9580,18918
9552,18936
9530,18962
9517,18992
9512,19025
9512,19035
9470,19035
9471,19029
9475,18997
9472,18964
9463,18933
9448,18904
9442,18897
9446,18892
9462,18864
9471,18832
9475,18802
9506,18819
9550,18833
9596,18838
9599,18838
10969,18838
10991,18836
11013,18834
11014,18834
11015,18834
11036,18827
11057,18821
11058,18821
11059,18820
11079,18810
11098,18800
11099,18799
11100,18799
11117,18785
11134,18771
11136,18770
11136,18769
11136,18769
11136,18769
11166,18740
11270,18740
11290,18765
11346,18812
11410,18847
11480,18869
11552,18877
11557,18877
11838,18877
11911,18870
11981,18849
12045,18815
12102,18769
12148,18713
12183,18648
12204,18579
12212,18506
12212,20475
12205,20402
12185,20332
12151,20267
12105,20210
12049,20163
11985,20128
11916,20106
11843,20098
11838,20098
11557,20098
11485,20105
11415,20126
11380,20145
11380,19069
11370,19020
11351,18975
11324,18933
11289,18898
11248,18870
11202,18851
11153,18841
11104,18841
11055,18850
11009,18869
10967,18896
10932,18931
10904,18971
10884,19017
10874,19066
10873,19115
10882,19164
10901,19210
10928,19252
10962,19288
11003,19316
11048,19336
11097,19347
11146,19348
11195,19339
11242,19321
11283,19294
11319,19260
11348,19220
11368,19174
11379,19126
11380,19069
11380,20145
11350,20160
11294,20207
11291,20210
11139,20058
11139,19844
11137,19829
11136,19815
11136,19814
11136,19813
11131,19799
11127,19786
11127,19785
11127,19784
11120,19771
11113,19758
11113,19758
11112,19757
11103,19746
11094,19734
11093,19733
11093,19733
11093,19733
11093,19733
10576,19216
10576,19025
10575,19006
10565,18974
10546,18946
10521,18925
10491,18911
10458,18906
10202,18906
10183,18908
10151,18918
10123,18936
10101,18962
10088,18992
10083,19025
10083,19360
10085,19379
10094,19411
10113,19438
10138,19460
10169,19474
10202,19478
10393,19478
10411,19497
10202,19497
10183,19499
10151,19508
10123,19527
10101,19552
10088,19583
10083,19616
10083,19950
10085,19969
10094,20001
10113,20029
10138,20051
10169,20064
10202,20069
10458,20069
10477,20067
10509,20057
10536,20039
10558,20014
10572,19983
10576,19950
10576,19940
10632,19940
10666,19974
10666,20188
10668,20203
10669,20217
10669,20218
10669,20219
10673,20233
10677,20247
10678,20248
10678,20248
10685,20261
10692,20274
10692,20275
10693,20276
10702,20287
10711,20298
10712,20299
10712,20299
10712,20299
10712,20300
11049,20636
11050,20648
11050,20649
11050,20650
11054,20664
11058,20678
11059,20678
11059,20679
11066,20692
11073,20705
11073,20706
11073,20706
11083,20718
11092,20729
11093,20730
11093,20730
11093,20730
11093,20730
11236,20874
11213,20918
11191,20987
11183,21060
11190,21133
11211,21203
11244,21267
11290,21324
11346,21371
11410,21406
11480,21428
11552,21436
11557,21437
11838,21437
11911,21429
11981,21408
12045,21374
12102,21328
12148,21272
12183,21207
12204,21138
12212,21065
12212,22246
12205,22174
12185,22103
12151,22039
12105,21982
12049,21935
11985,21900
11916,21878
11843,21870
11838,21870
11557,21870
11485,21877
11415,21898
11350,21932
11294,21978
11247,22034
11213,22099
11191,22168
11183,22241
11190,22314
11211,22384
11244,22448
11290,22505
11346,22552
11410,22587
11480,22609
11552,22618
11557,22618
11838,22618
11911,22610
11981,22589
12045,22555
12102,22509
12148,22453
12183,22389
12204,22319
12212,22246
12212,24731
12189,24806
12094,24986
11965,25144
11808,25273
11629,25370
11435,25430
11226,25452
11225,25452
10261,25452
10261,22814
10261,21830
10259,21808
10257,21787
10256,21786
10256,21784
10250,21763
10244,21742
10243,21741
10243,21740
10233,21721
10223,21702
10222,21701
10221,21699
10207,21683
10194,21666
10192,21664
10192,21664
10192,21664
10192,21663
9882,21354
9875,21337
9848,21295
9813,21260
9771,21232
9726,21213
9677,21203
9627,21203
9579,21212
9559,21220
9273,21220
9267,21210
9241,21189
9211,21175
9178,21170
8922,21170
8903,21172
8871,21182
8843,21200
8822,21225
8808,21256
8803,21289
8803,21624
8805,21643
8815,21674
8833,21702
8859,21724
8876,21732
8655,21732
8658,21731
8686,21712
8708,21687
8721,21657
8726,21624
8726,21289
8724,21270
8714,21238
8696,21210
8671,21189
8640,21175
8607,21170
8351,21170
8332,21172
8300,21182
8273,21200
8251,21225
8237,21256
8233,21289
8233,21519
8205,21547
8204,21547
8203,21548
8203,21548
8189,21552
8175,21556
8174,21556
8173,21557
8160,21563
8147,21570
8147,21571
8146,21571
8135,21580
8123,21589
8122,21590
8122,21591
8122,21591
8122,21591
7856,21857
7847,21868
7837,21879
7837,21880
7837,21880
7830,21893
7823,21906
7822,21907
7822,21907
7818,21921
7813,21935
7813,21936
7813,21937
7812,21951
7810,21966
7810,21967
7810,21967
7810,21967
7810,21968
7810,21988
7808,21989
7780,22007
7759,22033
7745,22063
7740,22096
7740,22156
7714,22177
7692,22204
7675,22235
7665,22269
7662,22298
7662,22386
7665,22415
7675,22449
7692,22480
7714,22507
7740,22528
7740,22588
7741,22595
7741,22622
7744,22652
7745,22655
7740,22687
7740,22785
7742,22804
7752,22836
7770,22864
7796,22885
7810,22892
7810,23084
7804,23089
7613,23089
7594,23091
7562,23101
7534,23119
7513,23145
7499,23175
7499,23179
7471,23179
7464,23157
7446,23129
7427,23113
7427,22785
7427,22687
7425,22667
7415,22636
7422,22621
7427,22588
7427,22490
7425,22470
7415,22439
7422,22424
7427,22391
7427,22293
7425,22274
7415,22242
7397,22214
7371,22192
7341,22179
7308,22174
7254,22174
7237,22169
7202,22165
7200,22165
6786,22165
6770,22166
6754,22168
6753,22168
6752,22168
6736,22173
6721,22178
6720,22178
6719,22178
6704,22186
6690,22193
6689,22194
6688,22194
6676,22205
6663,22215
6662,22216
6661,22216
6661,22216
6661,22217
6658,22220
6633,22217
6604,22214
6602,22214
6602,22214
6601,22214
6599,22214
5891,22214
5862,22217
5833,22219
5831,22220
5829,22220
5802,22228
5774,22237
5772,22237
5771,22238
5745,22251
5719,22265
5718,22266
5716,22267
5694,22285
5671,22303
5669,22306
5669,22306
5669,22306
5668,22306
5652,22322
5566,22322
5547,22323
5515,22333
5487,22352
5466,22377
5452,22407
5447,22440
5447,22775
5449,22794
5459,22826
5477,22854
5502,22875
5533,22889
5566,22894
5682,22894
5689,22898
5747,22916
5809,22923
5870,22917
5929,22900
5941,22894
6058,22894
6077,22892
6109,22882
6137,22864
6154,22844
6284,22844
6284,23031
6290,23092
6308,23151
6337,23205
6376,23253
6423,23292
6477,23321
6536,23340
6597,23346
6658,23340
6717,23323
6772,23295
6820,23256
6859,23209
6889,23155
6907,23096
6914,23035
6914,23031
6914,22716
6973,22716
6973,22785
6974,22804
6984,22836
7003,22864
7028,22885
7058,22899
7091,22904
7308,22904
7327,22902
7359,22892
7387,22874
7408,22848
7422,22818
7427,22785
7427,23113
7421,23108
7390,23094
7357,23089
7023,23089
7003,23091
6972,23101
6944,23119
6922,23145
6909,23175
6904,23208
6904,23464
6905,23483
6915,23515
6934,23543
6959,23564
6990,23578
7023,23583
7357,23583
7376,23581
7408,23571
7436,23553
7458,23527
7471,23497
7472,23494
7499,23494
7506,23515
7524,23543
7550,23564
7580,23578
7613,23583
7514,23682
7495,23705
7478,23736
7468,23769
7465,23798
7465,23996
7468,24025
7478,24059
7495,24090
7514,24112
7683,24282
7706,24301
7737,24317
7770,24327
7799,24330
8219,24330
8223,24331
8715,24331
8722,24330
8908,24330
8912,24331
9404,24331
9411,24330
9769,24330
9798,24327
9832,24317
9863,24301
9885,24282
10016,24152
10034,24129
10051,24098
10061,24065
10064,24036
10064,23109
10192,22981
10205,22965
10219,22948
10220,22947
10221,22946
10231,22927
10242,22908
10242,22906
10243,22905
10249,22884
10256,22864
10256,22862
10256,22861
10258,22839
10261,22818
10261,22815
10261,22815
10261,22815
10261,22814
10261,25452
7318,25452
7318,24805
7312,24744
7295,24685
7266,24630
7243,24602
7238,24584
7220,24557
7194,24535
7164,24521
7134,24517
7127,24513
7068,24495
7027,24490
6724,24186
6676,24147
6622,24118
6563,24100
6502,24094
6441,24100
6382,24117
6327,24146
6280,24185
6240,24232
6211,24286
6193,24345
6186,24406
6191,24467
6208,24526
6237,24580
6275,24629
6278,24632
6672,25025
6694,25044
6717,25063
6718,25063
6719,25064
6745,25078
6771,25092
6772,25093
6774,25093
6801,25102
6829,25111
6831,25111
6832,25111
6861,25114
6890,25118
6893,25118
6893,25118
6894,25118
6895,25118
7003,25118
7064,25112
7123,25094
7133,25088
7150,25087
7182,25077
7210,25059
7231,25033
7245,25003
7245,25002
7264,24979
7293,24925
7311,24866
7318,24805
7318,25452
5130,25452
4920,25432
4726,25373
4546,25277
4388,25149
4259,24992
4162,24813
4102,24619
4080,24410
4080,24409
4080,5619
4156,5031
4343,4474
4635,3963
5021,3520
5486,3159
6011,2896
6578,2740
7171,2696
7186,2696
7187,2696
7188,2696
7190,2696
10923,2696
11190,2722
11440,2798
11670,2921
11873,3086
12039,3287
12163,3516
12241,3766
12269,4032
12269,4035
12269,24402
" /> 
<polyline style="fill-rule:evenodd;"
points="10694,12634
10693,12640
10692,12644
10690,12648
10688,12651
10685,12653
10681,12655
10677,12656
10671,12657
10311,12657
10309,12638
10299,12606
10281,12578
10255,12557
10225,12543
10192,12538
9700,12538
9681,12540
9649,12550
9621,12568
9599,12594
9586,12624
9581,12657
9330,12657
9326,12656
9038,12656
9038,12641
9028,12593
9009,12547
8982,12505
8947,12470
8906,12442
8860,12423
8811,12413
8762,12413
8713,12422
8713,12422
8699,12421
8697,12421
8697,12421
8697,12421
8697,12421
8115,12421
8101,12422
8086,12423
8085,12424
8084,12424
8071,12428
8057,12432
8056,12432
8055,12433
8042,12439
8029,12446
8029,12447
8028,12447
8017,12456
8005,12465
8004,12466
8004,12466
8004,12467
8004,12467
7964,12506
7955,12518
7946,12529
7945,12529
7945,12530
7938,12543
7931,12556
7931,12556
7930,12557
7926,12571
7922,12585
7922,12586
7921,12586
7920,12601
7918,12615
7918,12617
7918,12617
7918,12617
7918,12618
7918,12651
7915,12657
6900,12657
6799,12556
6799,12247
7852,11194
7862,11182
7871,11171
7871,11170
7872,11170
7879,11157
7886,11144
7886,11143
7886,11143
7891,11129
7893,11122
7899,11122
7918,11121
7949,11111
7977,11092
7999,11067
8013,11036
8017,11003
8017,10885
8069,10885
8167,10983
8115,10983
8096,10985
8064,10995
8036,11013
8015,11038
8001,11069
7996,11102
7996,11417
7998,11436
8008,11468
8017,11481
8017,11513
8015,11514
7979,11549
7951,11590
7932,11635
7921,11684
7921,11733
7930,11782
7948,11828
7975,11870
8009,11906
8050,11934
8096,11954
8144,11965
8194,11966
8243,11957
8289,11939
8331,11913
8367,11878
8395,11838
8415,11792
8426,11744
8427,11687
8418,11639
8399,11593
8371,11551
8336,11516
8332,11513
8332,11482
8333,11480
8347,11450
8352,11417
8352,11119
8360,11120
8376,11122
8378,11122
8378,11122
8378,11122
8379,11122
8446,11122
8450,11122
8765,11122
8784,11121
8816,11111
8843,11092
8865,11067
8879,11036
8883,11003
8883,10980
8930,10981
8979,10973
9025,10955
9067,10928
9103,10894
9131,10853
9152,10808
9163,10760
9163,10703
9154,10654
9135,10608
9107,10567
9072,10532
9031,10504
8986,10485
8937,10475
8887,10475
8839,10484
8792,10502
8751,10530
8750,10530
8450,10530
8431,10532
8399,10542
8371,10560
8349,10586
8336,10616
8331,10646
8268,10583
8255,10573
8243,10562
8242,10562
8241,10561
8227,10553
8212,10545
8212,10545
8211,10545
8195,10540
8179,10535
8179,10535
8178,10534
8161,10533
8145,10531
8143,10531
8143,10531
8143,10531
8143,10531
8116,10531
8116,10236
8115,10229
8115,9128
8120,9114
8120,9112
8120,9111
8122,9089
8125,9068
8125,9065
8125,9065
8125,9065
8125,9064
8125,8874
8131,8861
8135,8828
8135,8494
8134,8474
8124,8443
8105,8415
8101,8411
8102,8411
8103,8412
8104,8412
8118,8413
8133,8415
8134,8415
8134,8415
8134,8415
8135,8415
8499,8415
9473,9390
9473,10832
9475,10847
9476,10861
9476,10862
9476,10863
9481,10877
9485,10891
9485,10892
9485,10892
9492,10905
9499,10918
9499,10919
9500,10920
9509,10931
9518,10942
9519,10943
9519,10943
9519,10943
9519,10944
10103,11528
10103,11598
10082,11612
10046,11647
10018,11688
9999,11734
9988,11782
9988,11832
9997,11881
10015,11927
10042,11969
10076,12004
10117,12033
10162,12052
10211,12063
10261,12064
10270,12062
10694,12486
10694,12634
" /> 
<polyline style="fill-rule:evenodd;"
points="10891,14927
10819,14999
10809,15010
10800,15021
10800,15022
10799,15023
10792,15035
10785,15048
10785,15049
10785,15050
10780,15064
10776,15078
10776,15078
10776,15079
10774,15094
10773,15108
10773,15110
10773,15110
10773,15110
10773,15110
10773,15437
10756,15425
10710,15406
10661,15396
10612,15396
10563,15405
10517,15424
10475,15451
10440,15486
10412,15527
10392,15572
10382,15621
10381,15670
10383,15678
9619,16442
9290,16442
9287,16439
9252,16404
9211,16376
9166,16357
9117,16347
9067,16346
9019,16356
8973,16374
8931,16401
8896,16436
8868,16477
8848,16523
8838,16571
8837,16621
8846,16670
8856,16695
8808,16695
8793,16697
8779,16698
8778,16698
8777,16698
8763,16702
8749,16706
8749,16707
8748,16707
8735,16714
8722,16721
8722,16721
8721,16722
8710,16731
8704,16735
8694,16711
8666,16669
8632,16634
8590,16606
8545,16587
8496,16577
8446,16577
8398,16586
8352,16605
8338,16614
8332,16614
8332,16486
8331,16467
8321,16435
8302,16407
8277,16385
8246,16372
8213,16367
7879,16367
7860,16369
7828,16379
7800,16397
7778,16422
7765,16453
7760,16486
7760,16700
7750,16717
7750,16719
7749,16720
7743,16741
7736,16761
7736,16763
7736,16764
7734,16786
7731,16807
7731,16810
7731,16810
7731,16810
7731,16811
7731,17208
7725,17220
7721,17253
7721,17417
7557,17581
7546,17594
7536,17606
7535,17607
7535,17608
7527,17622
7519,17636
7519,17637
7518,17638
7514,17654
7509,17669
7509,17670
7508,17671
7507,17687
7505,17704
7505,17706
7505,17706
7505,17706
7505,17706
7505,18110
7508,18144
7515,18166
7515,18259
7518,18291
7527,18323
7543,18351
7563,18377
7588,18398
7617,18413
7643,18421
7643,18442
7642,18447
7641,18451
7639,18455
7636,18458
7633,18460
7630,18462
7626,18463
7620,18464
7495,18464
7503,18439
7506,18406
7503,18374
7494,18342
7479,18313
7459,18288
7434,18267
7405,18251
7374,18241
7341,18238
7339,18238
7041,18238
7014,18240
7017,18235
7037,18190
7048,18142
7049,18085
7040,18036
7021,17990
6993,17949
6978,17934
7001,17934
7050,17925
7096,17907
7138,17881
7174,17847
7202,17806
7222,17761
7233,17712
7234,17656
7225,17607
7206,17561
7178,17520
7143,17484
7139,17481
7139,16513
7218,16434
7252,16434
7266,16432
7281,16431
7281,16431
7282,16431
7296,16427
7310,16422
7311,16422
7312,16422
7325,16415
7337,16408
7338,16408
7339,16407
7350,16398
7356,16394
7357,16394
7406,16395
7455,16386
7501,16368
7543,16342
7579,16307
7599,16279
7610,16273
7611,16273
7612,16272
7623,16263
7634,16254
7635,16253
7635,16253
7635,16253
7636,16253
7766,16122
7899,16122
7918,16121
7949,16111
7977,16092
7999,16067
8013,16036
8017,16003
8017,15787
8016,15768
8009,15748
8013,15741
8017,15708
8017,15492
8016,15472
8009,15453
8013,15446
8017,15413
8017,15196
8017,14527
8017,14311
8016,14291
8006,14260
7987,14232
7962,14210
7932,14197
7899,14192
7662,14192
7643,14193
7611,14203
7584,14222
7562,14247
7548,14278
7544,14305
7301,14061
7290,14052
7279,14043
7278,14042
7277,14042
7265,14035
7252,14028
7251,14028
7250,14027
7236,14023
7223,14019
7222,14019
7221,14018
7207,14017
7192,14015
7190,14015
7190,14015
7190,14015
7190,14015
6935,14015
6935,14005
6933,13986
6923,13954
6905,13927
6879,13905
6849,13891
6816,13887
6560,13887
6541,13888
6509,13898
6481,13917
6460,13942
6446,13972
6441,14005
6441,14340
6443,14359
6453,14391
6471,14419
6497,14440
6527,14454
6560,14459
6816,14459
6835,14457
6867,14447
6895,14429
6916,14403
6930,14373
6935,14340
6935,14330
7125,14330
7374,14579
7385,14589
7396,14598
7397,14598
7398,14599
7410,14606
7423,14613
7424,14613
7425,14613
7439,14618
7452,14622
7453,14622
7454,14622
7468,14624
7483,14625
7485,14625
7485,14625
7485,14625
7485,14625
7597,14625
7599,14627
7629,14641
7662,14646
7899,14646
7918,14644
7949,14634
7977,14616
7999,14590
8013,14560
8017,14527
8017,15196
8016,15177
8006,15145
7987,15118
7962,15096
7932,15082
7899,15078
7662,15078
7643,15079
7611,15089
7584,15108
7562,15133
7556,15147
7501,15147
7006,14652
6995,14643
6984,14633
6983,14633
6982,14632
6969,14626
6957,14619
6956,14618
6955,14618
6941,14614
6935,14612
6935,14596
6933,14577
6923,14545
6905,14517
6879,14496
6849,14482
6816,14477
6560,14477
6541,14479
6509,14489
6481,14507
6460,14533
6446,14563
6441,14596
6441,14801
6364,14723
6364,14596
6362,14577
6353,14548
6353,14386
6359,14373
6364,14340
6364,14005
6362,13986
6353,13958
6353,12829
6621,12824
6796,12998
6791,13007
6791,13008
6791,13009
6786,13023
6782,13037
6782,13037
6782,13038
6780,13053
6779,13067
6779,13069
6779,13069
6779,13069
6779,13069
6779,13427
6780,13441
6781,13456
6781,13457
6782,13457
6786,13471
6790,13485
6790,13486
6790,13487
6797,13500
6804,13513
6804,13513
6805,13514
6814,13525
6823,13537
6824,13538
6824,13538
6824,13538
6825,13538
6839,13552
6839,13554
6838,13603
6847,13652
6865,13698
6892,13740
6927,13776
6967,13804
7013,13824
7061,13835
7111,13836
7160,13827
7206,13809
7248,13783
7284,13748
7298,13728
7323,13753
7363,13782
7409,13802
7457,13812
7507,13813
7556,13805
7602,13787
7644,13760
7680,13726
7709,13685
7724,13652
7928,13652
7947,13650
7979,13640
8007,13622
8028,13596
8042,13566
8047,13533
8047,13435
8045,13415
8035,13384
8017,13356
7991,13334
7961,13321
7928,13316
7682,13316
7663,13317
7634,13326
7585,13326
7563,13317
7514,13307
7464,13306
7416,13316
7370,13334
7328,13361
7293,13396
7281,13414
7254,13386
7212,13358
7167,13339
7118,13329
7093,13329
7093,13135
7161,13067
7165,13070
7176,13079
7177,13080
7178,13080
7190,13087
7203,13094
7204,13094
7205,13095
7219,13099
7232,13104
7233,13104
7234,13104
7249,13105
7263,13107
7265,13107
7265,13107
7265,13107
7265,13107
7547,13107
7561,13106
7563,13105
7563,13139
7565,13158
7575,13190
7593,13218
7619,13240
7649,13253
7682,13258
7751,13258
7753,13259
7768,13263
7768,13263
7769,13263
7787,13265
7803,13267
7803,13267
7803,13267
7803,13267
7805,13267
8301,13267
8301,13267
8301,13267
8301,13267
8302,13267
8543,13267
8971,13267
8988,13266
9004,13264
9005,13264
9006,13264
9021,13259
9037,13255
9038,13254
9039,13254
9053,13246
9068,13239
9069,13238
9069,13238
9082,13227
9095,13217
9096,13216
9096,13216
9096,13216
9097,13215
9126,13186
9162,13150
9326,13150
9345,13148
9373,13139
9867,13139
9889,13137
9910,13135
9912,13135
9913,13135
9934,13128
9955,13122
9956,13122
9957,13121
9976,13111
9977,13111
10192,13326
10192,13809
9779,14222
9765,14239
9751,14256
9750,14257
9749,14258
9739,14277
9729,14296
9728,14297
9728,14298
9721,14319
9715,14340
9715,14341
9714,14343
9712,14364
9710,14386
9710,14388
9710,14388
9710,14388
9710,14389
9710,14507
9700,14507
9681,14508
9649,14518
9621,14537
9601,14560
9597,14561
9596,14561
9595,14561
9574,14567
9553,14573
9552,14574
9551,14574
9531,14585
9512,14595
9511,14595
9510,14596
9493,14610
9476,14623
9474,14625
9474,14625
9474,14625
9474,14626
9464,14635
9371,14635
9359,14630
9326,14625
8991,14625
8972,14626
8940,14636
8912,14655
8891,14680
8877,14711
8872,14744
8872,14758
8863,14756
8813,14756
8764,14765
8718,14784
8714,14786
8686,14782
8450,14782
8431,14784
8399,14794
8371,14812
8354,14832
8332,14832
8315,14834
8299,14835
8298,14835
8297,14836
8282,14840
8266,14845
8265,14845
8264,14846
8250,14853
8235,14861
8234,14861
8234,14862
8221,14872
8208,14882
8207,14884
8207,14884
8207,14884
8206,14884
8187,14904
8176,14916
8166,14929
8165,14930
8165,14930
8157,14945
8149,14959
8149,14960
8148,14961
8144,14977
8139,14992
8139,14993
8138,14994
8137,15010
8135,15027
8135,15028
8135,15028
8135,15028
8135,15029
8135,15523
8136,15539
8138,15556
8138,15557
8138,15558
8143,15573
8147,15589
8148,15590
8148,15591
8156,15605
8163,15620
8164,15620
8164,15621
8175,15634
8185,15647
8186,15648
8186,15648
8186,15648
8187,15648
8214,15676
8227,15686
8239,15697
8240,15697
8241,15698
8255,15706
8270,15714
8271,15714
8271,15714
8287,15719
8303,15724
8304,15724
8304,15724
8321,15726
8333,15727
8343,15759
8361,15787
8386,15808
8417,15822
8450,15827
8686,15827
8705,15825
8737,15815
8765,15797
8786,15772
8800,15741
8805,15708
8805,15492
8803,15472
8793,15441
8775,15413
8749,15391
8719,15378
8686,15373
8489,15373
8489,15236
8686,15236
8705,15235
8714,15232
8758,15251
8806,15262
8856,15263
8905,15254
8951,15236
8967,15226
9021,15226
9040,15224
9060,15222
9061,15222
9063,15222
9082,15216
9101,15210
9102,15210
9103,15210
9121,15200
9138,15191
9139,15190
9140,15190
9156,15177
9172,15165
9173,15163
9173,15163
9173,15163
9174,15162
9218,15118
9326,15118
9345,15117
9373,15108
9562,15108
9584,15106
9605,15104
9607,15103
9608,15103
9629,15097
9650,15091
9651,15090
9652,15090
9671,15080
9679,15076
9700,15079
10192,15079
10211,15077
10243,15067
10271,15049
10292,15024
10306,14993
10311,14960
10311,14625
10309,14606
10299,14575
10281,14547
10255,14525
10225,14511
10192,14507
10182,14507
10182,14487
10595,14074
10609,14057
10623,14040
10624,14039
10624,14038
10635,14019
10645,14000
10646,13999
10646,13998
10653,13977
10659,13956
10659,13955
10660,13954
10662,13932
10664,13910
10664,13908
10664,13908
10664,13908
10664,13907
10664,13228
10662,13206
10660,13184
10660,13183
10660,13182
10653,13161
10647,13140
10647,13139
10646,13138
10636,13119
10626,13099
10625,13098
10625,13097
10611,13080
10597,13063
10596,13061
10596,13061
10596,13061
10595,13061
10311,12776
10311,12748
10868,12737
10873,12737
10877,12738
10880,12740
10883,12742
10886,12744
10888,12747
10889,12750
10890,12754
10891,12759
10891,14927
" /> 
</g>
<g style="fill:#FFFFFF; fill-opacity:1.0; 
stroke:#FFFFFF; stroke-width:49.2126; stroke-opacity:1; 
stroke-linecap:round; stroke-linejoin:round;">
<circle cx="11127.4" cy="19094.5" r="40.3937" /> 
<circle cx="5910.83" cy="16830.7" r="40.3937" /> 
<circle cx="6599.8" cy="23031.5" r="40.3937" /> 
<circle cx="6009.25" cy="21063" r="40.3937" /> 
<circle cx="7091.93" cy="21653.5" r="40.3937" /> 
<circle cx="9355.71" cy="8464.57" r="40.3937" /> 
<circle cx="9946.26" cy="9448.82" r="40.3937" /> 
<circle cx="5418.7" cy="13878" r="40.3937" /> 
<circle cx="9650.99" cy="21456.7" r="40.3937" /> 
<circle cx="9158.86" cy="17421.3" r="40.3937" /> 
<circle cx="8469.88" cy="16830.7" r="40.3937" /> 
<circle cx="8836.62" cy="15009.8" r="40.3937" /> 
<circle cx="6435.11" cy="16282.2" r="40.3937" /> 
<circle cx="5339.96" cy="19716.5" r="40.3937" /> 
<circle cx="6698.23" cy="19841.7" r="40.3937" /> 
<circle cx="9552.56" cy="12401.6" r="40.3937" /> 
<circle cx="9552.56" cy="13976.4" r="40.3937" /> 
<circle cx="6501.38" cy="24409.4" r="40.3937" /> 
<circle cx="6895.08" cy="12500" r="40.3937" /> 
<circle cx="10438.4" cy="15157.5" r="40.3937" /> 
<circle cx="7189.6" cy="13191.4" r="40.3937" /> 
<circle cx="8711.79" cy="17610.1" r="40.3937" /> 
<circle cx="6796.65" cy="18110.2" r="40.3937" /> 
<circle cx="6478.91" cy="19333.5" r="40.3937" /> 
<circle cx="6289.7" cy="19778.5" r="40.3937" /> 
<circle cx="7190.36" cy="15748" r="40.3937" /> 
<circle cx="7091.93" cy="13582.7" r="40.3937" /> 
<circle cx="6981.65" cy="17681" r="40.3937" /> 
<circle cx="7387.21" cy="16141.7" r="40.3937" /> 
<circle cx="6639.9" cy="19024.1" r="40.3937" /> 
<circle cx="7487.92" cy="13560.2" r="40.3937" /> 
<circle cx="8174.61" cy="11712.6" r="40.3937" /> 
<circle cx="8910.82" cy="10728.3" r="40.3937" /> 
<circle cx="10370.2" cy="16776.9" r="40.3937" /> 
<circle cx="10241.5" cy="11811" r="40.3937" /> 
<circle cx="8154.14" cy="20477.5" r="40.3937" /> 
<circle cx="8785.3" cy="12666.6" r="40.3937" /> 
<circle cx="9601.58" cy="17784.5" r="40.3937" /> 
<circle cx="10507" cy="18270.5" r="40.3937" /> 
<circle cx="8528.1" cy="20646.8" r="40.3937" /> 
<circle cx="10545.9" cy="17302.3" r="40.3937" /> 
<circle cx="9211.36" cy="20498.4" r="40.3937" /> 
<circle cx="10635.2" cy="15649.6" r="40.3937" /> 
<circle cx="9044.98" cy="18142.6" r="40.3937" /> 
<circle cx="9090.88" cy="16600.1" r="40.3937" /> 
<circle cx="6600.96" cy="20762.1" r="40.3937" /> 
<circle cx="11341.1" cy="15649.6" r="40.3937" /> 
<circle cx="7584.06" cy="22283.5" r="40.3937" /> 
<circle cx="7584.06" cy="22598.4" r="40.3937" /> 
<circle cx="8666.73" cy="19586.6" r="40.3937" /> 
<circle cx="8666.73" cy="19291.3" r="40.3937" /> 
<circle cx="8666.73" cy="18897.6" r="40.3937" /> 
<circle cx="8666.73" cy="18602.4" r="40.3937" /> 
<circle cx="8371.46" cy="18602.4" r="40.3937" /> 
<circle cx="8371.46" cy="19291.3" r="40.3937" /> 
<circle cx="8371.46" cy="19586.6" r="40.3937" /> 
<circle cx="7682.48" cy="19586.6" r="40.3937" /> 
<circle cx="7977.76" cy="19586.6" r="40.3937" /> 
<circle cx="7682.48" cy="19291.3" r="40.3937" /> 
<circle cx="7682.48" cy="18602.4" r="40.3937" /> 
<circle cx="7682.48" cy="18897.6" r="40.3937" /> 
<circle cx="7977.76" cy="19291.3" r="40.3937" /> 
<circle cx="8371.46" cy="18897.6" r="40.3937" /> 
<circle cx="7977.76" cy="18602.4" r="40.3937" /> 
<circle cx="7977.76" cy="18897.6" r="40.3937" /> 
<circle cx="4650.99" cy="17519.7" r="113.189" /> 
<circle cx="4650.99" cy="18110.2" r="113.189" /> 
<circle cx="4650.99" cy="18700.8" r="113.189" /> 
<circle cx="4650.99" cy="19291.3" r="113.189" /> 
<circle cx="4650.99" cy="19881.9" r="113.189" /> 
<circle cx="4650.99" cy="20472.4" r="113.189" /> 
<circle cx="4650.99" cy="21063" r="113.189" /> 
<circle cx="4650.99" cy="21653.5" r="113.189" /> 
<circle cx="4650.99" cy="22244.1" r="113.189" /> 
<circle cx="11698.2" cy="18503.9" r="113.189" /> 
<circle cx="11698.2" cy="17913.4" r="113.189" /> 
<circle cx="11698.2" cy="17322.8" r="113.189" /> 
<circle cx="11698.2" cy="16732.3" r="113.189" /> 
<circle cx="11698.2" cy="16141.7" r="113.189" /> 
<circle cx="4650.99" cy="13582.7" r="113.189" /> 
<circle cx="4650.99" cy="14173.2" r="113.189" /> 
<circle cx="4650.99" cy="14763.8" r="113.189" /> 
<circle cx="4650.99" cy="15354.3" r="113.189" /> 
<circle cx="4650.99" cy="15944.9" r="113.189" /> 
<circle cx="11698.2" cy="22244.1" r="113.189" /> 
<circle cx="11698.2" cy="21653.5" r="113.189" /> 
<circle cx="11698.2" cy="21063" r="113.189" /> 
<circle cx="11698.2" cy="20472.4" r="113.189" /> 
<circle cx="11698.2" cy="6594.49" r="113.189" /> 
<circle cx="11698.2" cy="6003.94" r="113.189" /> 
<circle cx="11698.2" cy="5413.39" r="113.189" /> 
<circle cx="11698.2" cy="4822.83" r="113.189" /> 
<circle cx="8591.93" cy="5708.66" r="132.894" /> 
<circle cx="5591.93" cy="5708.66" r="132.894" /> 
<circle cx="11127.4" cy="10826.8" r="585.63" /> 
<circle cx="5221.85" cy="10826.8" r="585.63" /> 
<circle cx="5123.43" cy="24409.4" r="585.63" /> 
<circle cx="11225.8" cy="24409.4" r="585.63" /> 
</g> 
</svg>
