<?xml version="1.0" standalone="no"?>
 <!DOCTYPE svg PUBLIC "-//W3C//DTD SVG 1.1//EN" 
 "http://www.w3.org/Graphics/SVG/1.1/DTD/svg11.dtd"> 
<svg xmlns="http://www.w3.org/2000/svg" version="1.1" 
    width="3.57632cm" height="6.9977cm" viewBox="0 0 14080 27550 ">
<title>SVG Picture created as VacuBot-B_SilkS.svg date 2015/04/12 11:41:17 </title>
  <desc>Picture generated by PCBNEW </desc>
<g style="fill:#000000; fill-opacity:1;stroke:#000000; stroke-opacity:1;
stroke-linecap:round; stroke-linejoin:round; "
 transform="translate(0 0) scale(1 1)">
</g>
<g style="fill:#840084; fill-opacity:0.0; 
stroke:#840084; stroke-width:196.85; stroke-opacity:1; 
stroke-linecap:round; stroke-linejoin:round;">
<path d="M6444 12223
L7231 12485
L6444 12748
" />
<path d="M7006 12973
L7006 13348
" />
<path d="M7231 12898
L6444 13160
L7231 13423
" />
<path d="M7156 14135
L7194 14098
L7231 13985
L7231 13910
L7194 13798
L7119 13723
L7044 13685
L6894 13648
L6781 13648
L6631 13685
L6556 13723
L6481 13798
L6444 13910
L6444 13985
L6481 14098
L6519 14135
" />
<path d="M6444 14473
L7081 14473
L7156 14510
L7194 14548
L7231 14623
L7231 14773
L7194 14848
L7156 14885
L7081 14923
L6444 14923
" />
<path d="M6444 15298
L7081 15298
L7156 15335
L7194 15373
L7231 15448
L7231 15598
L7194 15673
L7156 15710
L7081 15748
L6444 15748
" />
<path d="M7231 16122
L6444 16122
L7006 16385
L6444 16647
L7231 16647
" />
<path d="M7156 18072
L7194 18035
L7231 17922
L7231 17847
L7194 17735
L7119 17660
L7044 17622
L6894 17585
L6781 17585
L6631 17622
L6556 17660
L6481 17735
L6444 17847
L6444 17922
L6481 18035
L6519 18072
" />
<path d="M6444 18560
L6444 18710
L6481 18785
L6556 18860
L6706 18897
L6969 18897
L7119 18860
L7194 18785
L7231 18710
L7231 18560
L7194 18485
L7119 18410
L6969 18372
L6706 18372
L6556 18410
L6481 18485
L6444 18560
" />
<path d="M7231 19235
L6444 19235
L7231 19685
L6444 19685
" />
<path d="M6444 19947
L6444 20397
" />
<path d="M7231 20172
L6444 20172
" />
<path d="M7231 21109
L6856 20847
" />
<path d="M7231 20659
L6444 20659
L6444 20959
L6481 21034
L6519 21072
L6594 21109
L6706 21109
L6781 21072
L6819 21034
L6856 20959
L6856 20659
" />
<path d="M6444 21597
L6444 21747
L6481 21822
L6556 21897
L6706 21934
L6969 21934
L7119 21897
L7194 21822
L7231 21747
L7231 21597
L7194 21522
L7119 21447
L6969 21409
L6706 21409
L6556 21447
L6481 21522
L6444 21597
" />
<path d="M7231 22647
L7231 22272
L6444 22272
" />
<path d="M7231 23284
L7231 22909
L6444 22909
" />
<path d="M6819 23547
L6819 23809
" />
<path d="M7231 23922
L7231 23547
L6444 23547
L6444 23922
" />
<path d="M7231 24709
L6856 24446
" />
<path d="M7231 24259
L6444 24259
L6444 24559
L6481 24634
L6519 24671
L6594 24709
L6706 24709
L6781 24671
L6819 24634
L6856 24559
L6856 24259
" />
<path d="M8493 13404
L8530 13517
L8530 13704
L8493 13779
L8455 13817
L8380 13854
L8305 13854
L8230 13817
L8193 13779
L8155 13704
L8118 13554
L8080 13479
L8043 13442
L7968 13404
L7893 13404
L7818 13442
L7780 13479
L7743 13554
L7743 13742
L7780 13854
" />
<path d="M8005 14079
L8005 14379
" />
<path d="M7743 14191
L8418 14191
L8493 14229
L8530 14304
L8530 14379
" />
<path d="M8493 14941
L8530 14866
L8530 14716
L8493 14641
L8418 14604
L8118 14604
L8043 14641
L8005 14716
L8005 14866
L8043 14941
L8118 14979
L8193 14979
L8268 14604
" />
<path d="M8005 15204
L8005 15504
" />
<path d="M8530 15316
L7855 15316
L7780 15354
L7743 15429
L7743 15504
" />
<path d="M8530 16104
L8118 16104
L8043 16066
L8005 15991
L8005 15841
L8043 15766
" />
<path d="M8493 16104
L8530 16029
L8530 15841
L8493 15766
L8418 15729
L8343 15729
L8268 15766
L8230 15841
L8230 16029
L8193 16104
" />
<path d="M8005 16479
L8530 16479
" />
<path d="M8080 16479
L8043 16516
L8005 16591
L8005 16704
L8043 16779
L8118 16816
L8530 16816
" />
<path d="M8530 17791
L7743 17791
" />
<path d="M8118 17791
L8118 18241
" />
<path d="M8530 18241
L7743 18241
" />
<path d="M8530 18953
L8118 18953
L8043 18916
L8005 18841
L8005 18691
L8043 18616
" />
<path d="M8493 18953
L8530 18878
L8530 18691
L8493 18616
L8418 18578
L8343 18578
L8268 18616
L8230 18691
L8230 18878
L8193 18953
" />
<path d="M8530 19328
L8005 19328
" />
<path d="M8080 19328
L8043 19366
L8005 19441
L8005 19553
L8043 19628
L8118 19666
L8530 19666
" />
<path d="M8118 19666
L8043 19703
L8005 19778
L8005 19891
L8043 19966
L8118 20003
L8530 20003
" />
<path d="M8530 20378
L8005 20378
" />
<path d="M8080 20378
L8043 20416
L8005 20491
L8005 20603
L8043 20678
L8118 20716
L8530 20716
" />
<path d="M8118 20716
L8043 20753
L8005 20828
L8005 20941
L8043 21016
L8118 21053
L8530 21053
" />
<path d="M8530 21428
L8005 21428
" />
<path d="M7743 21428
L7780 21391
L7818 21428
L7780 21466
L7743 21428
L7818 21428
" />
<path d="M8005 21803
L8530 21803
" />
<path d="M8080 21803
L8043 21841
L8005 21916
L8005 22028
L8043 22103
L8118 22140
L8530 22140
" />
<path d="M8005 22853
L8643 22853
L8718 22815
L8755 22778
L8793 22703
L8793 22590
L8755 22515
" />
<path d="M8493 22853
L8530 22778
L8530 22628
L8493 22553
L8455 22515
L8380 22478
L8155 22478
L8080 22515
L8043 22553
L8005 22628
L8005 22778
L8043 22853
" />
<path d="M8530 23565
L8118 23565
L8043 23528
L8005 23453
L8005 23303
L8043 23228
" />
<path d="M8493 23565
L8530 23490
L8530 23303
L8493 23228
L8418 23190
L8343 23190
L8268 23228
L8230 23303
L8230 23490
L8193 23565
" />
<path d="M9305 14041
L10092 14041
" />
<path d="M9342 14041
L9305 14116
L9305 14266
L9342 14341
L9380 14379
L9455 14416
L9680 14416
L9755 14379
L9792 14341
L9830 14266
L9830 14116
L9792 14041
" />
<path d="M9830 14754
L9305 14754
" />
<path d="M9455 14754
L9380 14791
L9342 14829
L9305 14904
L9305 14979
" />
<path d="M9305 15241
L9980 15241
L10054 15204
L10092 15129
L10092 15091
" />
<path d="M9042 15241
L9080 15204
L9117 15241
L9080 15279
L9042 15241
L9117 15241
" />
<path d="M9792 15954
L9830 15879
L9830 15729
L9792 15654
L9755 15616
L9680 15579
L9455 15579
L9380 15616
L9342 15654
L9305 15729
L9305 15879
L9342 15954
" />
<path d="M9305 16179
L9305 16479
" />
<path d="M9042 16291
L9717 16291
L9792 16329
L9830 16404
L9830 16479
" />
<path d="M9755 16741
L9792 16779
L9830 16741
L9792 16704
L9755 16741
L9830 16741
" />
<path d="M9305 17116
L9830 17116
" />
<path d="M9380 17116
L9342 17154
L9305 17229
L9305 17341
L9342 17416
L9417 17454
L9830 17454
" />
<path d="M9792 18128
L9830 18053
L9830 17904
L9792 17829
L9717 17791
L9417 17791
L9342 17829
L9305 17904
L9305 18053
L9342 18128
L9417 18166
L9492 18166
L9567 17791
" />
<path d="M9305 18391
L9305 18691
" />
<path d="M9042 18503
L9717 18503
L9792 18541
L9830 18616
L9830 18691
" />
<path d="M9830 20003
L9455 19741
" />
<path d="M9830 19553
L9042 19553
L9042 19853
L9080 19928
L9117 19966
L9192 20003
L9305 20003
L9380 19966
L9417 19928
L9455 19853
L9455 19553
" />
<path d="M9042 20491
L9042 20566
L9080 20641
L9117 20678
L9192 20716
L9342 20753
L9530 20753
L9680 20716
L9755 20678
L9792 20641
L9830 20566
L9830 20491
L9792 20416
L9755 20378
L9680 20341
L9530 20303
L9342 20303
L9192 20341
L9117 20378
L9080 20416
L9042 20491
" />
<path d="M9755 21091
L9792 21128
L9830 21091
L9792 21053
L9755 21091
L9830 21091
" />
<path d="M9042 21616
L9042 21691
L9080 21766
L9117 21803
L9192 21841
L9342 21878
L9530 21878
L9680 21841
L9755 21803
L9792 21766
L9830 21691
L9830 21616
L9792 21541
L9755 21503
L9680 21466
L9530 21428
L9342 21428
L9192 21466
L9117 21503
L9080 21541
L9042 21616
" />
<path d="M9755 22215
L9792 22253
L9830 22215
L9792 22178
L9755 22215
L9830 22215
" />
<path d="M9042 22740
L9042 22815
L9080 22890
L9117 22928
L9192 22965
L9342 23003
L9530 23003
L9680 22965
L9755 22928
L9792 22890
L9830 22815
L9830 22740
L9792 22665
L9755 22628
L9680 22590
L9530 22553
L9342 22553
L9192 22590
L9117 22628
L9080 22665
L9042 22740
" />
</g>
<g style="fill:#840084; fill-opacity:0.0; 
stroke:#840084; stroke-width:50; stroke-opacity:1; 
stroke-linecap:round; stroke-linejoin:round;">
<path d="M5427 19707
L5190 19707
L5190 19797
L5202 19820
L5213 19831
L5235 19842
L5269 19842
L5292 19831
L5303 19820
L5314 19797
L5314 19707
" />
<path d="M5269 20044
L5427 20044
" />
<path d="M5179 19988
L5348 19932
L5348 20078
" />
<path d="M4049 19561
L3812 19561
L3981 19640
L3812 19718
L4049 19718
" />
<path d="M4026 19966
L4037 19955
L4049 19921
L4049 19898
L4037 19865
L4015 19842
L3992 19831
L3947 19820
L3914 19820
L3869 19831
L3846 19842
L3824 19865
L3812 19898
L3812 19921
L3824 19955
L3835 19966
" />
<path d="M3812 20067
L4004 20067
L4026 20078
L4037 20089
L4049 20112
L4049 20157
L4037 20179
L4026 20191
L4004 20202
L3812 20202
" />
<path d="M11135 17148
L10899 17148
L10899 17238
L10910 17260
L10922 17272
L10944 17283
L10978 17283
L11000 17272
L11012 17260
L11023 17238
L11023 17148
" />
<path d="M11135 17508
L11135 17373
" />
<path d="M11135 17440
L10899 17440
L10933 17418
L10955 17395
L10967 17373
" />
<path d="M12513 16901
L12277 16901
L12277 16991
L12288 17013
L12300 17024
L12322 17035
L12356 17035
L12378 17024
L12390 17013
L12401 16991
L12401 16901
" />
<path d="M12513 17272
L12401 17193
" />
<path d="M12513 17137
L12277 17137
L12277 17227
L12288 17249
L12300 17260
L12322 17272
L12356 17272
L12378 17260
L12390 17249
L12401 17227
L12401 17137
" />
<path d="M12277 17418
L12277 17463
L12288 17485
L12311 17508
L12356 17519
L12435 17519
L12480 17508
L12502 17485
L12513 17463
L12513 17418
L12502 17395
L12480 17373
L12435 17362
L12356 17362
L12311 17373
L12288 17395
L12277 17418
" />
<path d="M12288 17744
L12277 17722
L12277 17688
L12288 17654
L12311 17632
L12333 17620
L12378 17609
L12412 17609
L12457 17620
L12480 17632
L12502 17654
L12513 17688
L12513 17710
L12502 17744
L12491 17755
L12412 17755
L12412 17710
" />
<path d="M5427 14589
L5190 14589
L5190 14679
L5202 14701
L5213 14713
L5235 14724
L5269 14724
L5292 14713
L5303 14701
L5314 14679
L5314 14589
" />
<path d="M5190 14803
L5190 14949
L5280 14870
L5280 14904
L5292 14926
L5303 14938
L5325 14949
L5382 14949
L5404 14938
L5415 14926
L5427 14904
L5427 14836
L5415 14814
L5404 14803
" />
<path d="M4037 14178
L4049 14212
L4049 14268
L4037 14291
L4026 14302
L4004 14313
L3981 14313
L3959 14302
L3947 14291
L3936 14268
L3925 14223
L3914 14201
L3902 14190
L3880 14178
L3857 14178
L3835 14190
L3824 14201
L3812 14223
L3812 14280
L3824 14313
" />
<path d="M4049 14527
L4049 14415
L3812 14415
" />
<path d="M3981 14595
L3981 14707
" />
<path d="M4049 14572
L3812 14651
L4049 14730
" />
<path d="M3812 14775
L4049 14853
L3812 14932
" />
<path d="M3925 15011
L3925 15089
" />
<path d="M4049 15123
L4049 15011
L3812 15011
L3812 15123
" />
<path d="M4037 15213
L4049 15247
L4049 15303
L4037 15326
L4026 15337
L4004 15348
L3981 15348
L3959 15337
L3947 15326
L3936 15303
L3925 15258
L3914 15236
L3902 15224
L3880 15213
L3857 15213
L3835 15224
L3824 15236
L3812 15258
L3812 15314
L3824 15348
" />
<path d="M11135 21183
L10899 21183
L10899 21273
L10910 21296
L10922 21307
L10944 21318
L10978 21318
L11000 21307
L11012 21296
L11023 21273
L11023 21183
" />
<path d="M10922 21408
L10910 21420
L10899 21442
L10899 21498
L10910 21521
L10922 21532
L10944 21543
L10967 21543
L11000 21532
L11135 21397
L11135 21543
" />
<path d="M12513 20964
L12277 20964
" />
<path d="M12390 20964
L12390 21099
" />
<path d="M12513 21099
L12277 21099
" />
<path d="M12277 21257
L12277 21302
L12288 21324
L12311 21347
L12356 21358
L12435 21358
L12480 21347
L12502 21324
L12513 21302
L12513 21257
L12502 21234
L12480 21212
L12435 21200
L12356 21200
L12311 21212
L12288 21234
L12277 21257
" />
<path d="M12502 21448
L12513 21482
L12513 21538
L12502 21560
L12491 21571
L12468 21583
L12446 21583
L12423 21571
L12412 21560
L12401 21538
L12390 21493
L12378 21470
L12367 21459
L12345 21448
L12322 21448
L12300 21459
L12288 21470
L12277 21493
L12277 21549
L12288 21583
" />
<path d="M12277 21650
L12277 21785
" />
<path d="M12513 21718
L12277 21718
" />
<path d="M11135 5534
L10899 5534
L10899 5624
L10910 5646
L10922 5658
L10944 5669
L10978 5669
L11000 5658
L11012 5646
L11023 5624
L11023 5534
" />
<path d="M10899 5883
L10899 5770
L11012 5759
L11000 5770
L10989 5793
L10989 5849
L11000 5871
L11012 5883
L11034 5894
L11090 5894
L11113 5883
L11124 5871
L11135 5849
L11135 5793
L11124 5770
L11113 5759
" />
<path d="M12513 4617
L12277 4617
L12277 4707
L12288 4730
L12300 4741
L12322 4752
L12356 4752
L12378 4741
L12390 4730
L12401 4707
L12401 4617
" />
<path d="M12277 4853
L12468 4853
L12491 4865
L12502 4876
L12513 4898
L12513 4943
L12502 4966
L12491 4977
L12468 4988
L12277 4988
" />
<path d="M12513 5101
L12277 5101
L12446 5179
L12277 5258
L12513 5258
" />
<path d="M12513 5371
L12277 5371
L12277 5461
L12288 5483
L12300 5494
L12322 5506
L12356 5506
L12378 5494
L12390 5483
L12401 5461
L12401 5371
" />
<path d="M12423 5607
L12423 5787
" />
<path d="M12277 5866
L12513 5944
L12277 6023
" />
<path d="M12446 6091
L12446 6203
" />
<path d="M12513 6068
L12277 6147
L12513 6226
" />
<path d="M12513 6417
L12513 6304
L12277 6304
" />
<path d="M12277 6462
L12513 6541
L12277 6619
" />
<path d="M12390 6698
L12390 6777
" />
<path d="M12513 6811
L12513 6698
L12277 6698
L12277 6811
" />
</g>
<g style="fill:#840084; fill-opacity:0.0; 
stroke:#840084; stroke-width:59.0551; stroke-opacity:1; 
stroke-linecap:round; stroke-linejoin:round;">
<path d="M4575 8014
L4593 7995
L4612 7939
L4612 7902
L4593 7845
L4556 7808
L4518 7789
L4443 7770
L4387 7770
L4312 7789
L4275 7808
L4237 7845
L4218 7902
L4218 7939
L4237 7995
L4256 8014
" />
<path d="M4612 8389
L4612 8164
" />
<path d="M4612 8277
L4218 8277
L4275 8239
L4312 8202
L4331 8164
" />
<path d="M4218 8520
L4218 8764
L4368 8633
L4368 8689
L4387 8727
L4406 8745
L4443 8764
L4537 8764
L4575 8745
L4593 8727
L4612 8689
L4612 8577
L4593 8539
L4575 8520
" />
<path d="M6187 6636
L6187 6561
L6206 6524
L6224 6505
L6281 6467
L6356 6449
L6506 6449
L6543 6467
L6562 6486
L6581 6524
L6581 6599
L6562 6636
L6543 6655
L6506 6674
L6412 6674
L6374 6655
L6356 6636
L6337 6599
L6337 6524
L6356 6486
L6374 6467
L6412 6449
" />
<path d="M6356 6899
L6337 6861
L6318 6842
L6281 6824
L6262 6824
L6224 6842
L6206 6861
L6187 6899
L6187 6974
L6206 7011
L6224 7030
L6262 7049
L6281 7049
L6318 7030
L6337 7011
L6356 6974
L6356 6899
L6374 6861
L6393 6842
L6431 6824
L6506 6824
L6543 6842
L6562 6861
L6581 6899
L6581 6974
L6562 7011
L6543 7030
L6506 7049
L6431 7049
L6393 7030
L6374 7011
L6356 6974
" />
<path d="M6187 7292
L6187 7330
L6206 7367
L6224 7386
L6262 7405
L6337 7424
L6431 7424
L6506 7405
L6543 7386
L6562 7367
L6581 7330
L6581 7292
L6562 7255
L6543 7236
L6506 7217
L6431 7199
L6337 7199
L6262 7217
L6224 7236
L6206 7255
L6187 7292
" />
<path d="M6318 7761
L6581 7761
" />
<path d="M6318 7592
L6524 7592
L6562 7611
L6581 7649
L6581 7705
L6562 7742
L6543 7761
" />
<path d="M6374 8080
L6374 7949
" />
<path d="M6581 7949
L6187 7949
L6187 8136
" />
</g>
<g style="fill:#840084; fill-opacity:0.0; 
stroke:#840084; stroke-width:50; stroke-opacity:1; 
stroke-linecap:round; stroke-linejoin:round;">
<path d="M4139 16929
L5517 16929
" />
<path d="M5517 16929
L5517 22834
" />
<path d="M5517 22834
L4139 22834
" />
<path d="M4139 16929
L4139 22834
" />
<path d="M12210 19094
L10832 19094
" />
<path d="M10832 19094
L10832 15551
" />
<path d="M10832 15551
L12210 15551
" />
<path d="M12210 19094
L12210 15551
" />
<path d="M4139 12992
L5517 12992
" />
<path d="M5517 12992
L5517 16535
" />
<path d="M5517 16535
L4139 16535
" />
<path d="M4139 12992
L4139 16535
" />
<path d="M12210 22834
L10832 22834
" />
<path d="M10832 22834
L10832 19881
" />
<path d="M10832 19881
L12210 19881
" />
<path d="M12210 22834
L12210 19881
" />
<path d="M12210 7185
L10832 7185
" />
<path d="M10832 7185
L10832 4232
" />
<path d="M10832 4232
L12210 4232
" />
<path d="M12210 7185
L12210 4232
" />
<path d="M4237 6988
L4040 6397
" />
<path d="M4237 6988
L4139 6496
" />
<path d="M4139 4724
L3942 5610
" />
<path d="M4237 4429
L4139 4625
" />
<path d="M4237 4527
L4139 4625
" />
<path d="M4237 6889
L4139 6791
" />
<path d="M4237 6791
L4237 6988
" />
<path d="M4139 6496
L4139 6791
" />
<path d="M4237 4429
L4237 4527
" />
<path d="M4237 4527
L4040 4921
" />
<path d="M4237 4625
L4237 4527
" />
<path d="M4139 4921
L4139 4625
" />
<path d="M4040 4921
L4040 5019
" />
<path d="M4040 5019
L4139 4921
" />
<path d="M4040 5019
L4040 6496
" />
</g>
<g style="fill:#840084; fill-opacity:0.0; 
stroke:#840084; stroke-width:59.0551; stroke-opacity:1; 
stroke-linecap:round; stroke-linejoin:round;">
<path d="M4291 4358
L4041 5208
" />
<path d="M4291 7008
L4141 6558
" />
<circle cx="7091.93" cy="5708.66" r="3150" /> 
<path d="M4141 4908
L4141 6508
" />
<path d="M4241 6858
L4241 4608
" />
<path d="M4241 4608
L4241 4958
" />
<path d="M3991 6258
L3991 5208
" />
<path d="M4091 4858
L4091 6558
" />
<path d="M4191 6808
L4191 4608
" />
<path d="M4191 4608
L4191 4658
" />
<path d="M4291 7108
L4291 4308
" />
<path d="M4541 6258
L4541 6608
" />
</g> 
</svg>
