<?xml version="1.0" standalone="no"?>
 <!DOCTYPE svg PUBLIC "-//W3C//DTD SVG 1.1//EN" 
 "http://www.w3.org/Graphics/SVG/1.1/DTD/svg11.dtd"> 
<svg xmlns="http://www.w3.org/2000/svg" version="1.1" 
    width="3.57632cm" height="6.9977cm" viewBox="0 0 14080 27550 ">
<title>SVG Picture created as VacuBot-F_Fab.svg date 2015/04/12 11:41:17 </title>
  <desc>Picture generated by PCBNEW </desc>
<g style="fill:#000000; fill-opacity:1;stroke:#000000; stroke-opacity:1;
stroke-linecap:round; stroke-linejoin:round; "
 transform="translate(0 0) scale(1 1)">
</g>
<g style="fill:#C1C100; fill-opacity:0.0; 
stroke:#C1C100; stroke-width:50; stroke-opacity:1; 
stroke-linecap:round; stroke-linejoin:round;">
<path d="M6388 20736
L6523 20736
" />
<path d="M6456 20973
L6456 20736
" />
<path d="M6602 20973
L6602 20736
" />
<path d="M6658 20995
L6838 20995
" />
<path d="M6861 20736
L6996 20736
" />
<path d="M6928 20973
L6928 20736
" />
<path d="M7075 20973
L7075 20736
L7165 20736
L7187 20748
L7198 20759
L7210 20781
L7210 20815
L7198 20838
L7187 20849
L7165 20860
L7075 20860
" />
<path d="M7300 20961
L7333 20973
L7390 20973
L7412 20961
L7423 20950
L7435 20928
L7435 20905
L7423 20883
L7412 20871
L7390 20860
L7345 20849
L7322 20838
L7311 20826
L7300 20804
L7300 20781
L7311 20759
L7322 20748
L7345 20736
L7401 20736
L7435 20748
" />
<path d="M7637 20736
L7592 20736
L7569 20748
L7558 20759
L7536 20793
L7525 20838
L7525 20928
L7536 20950
L7547 20961
L7569 20973
L7614 20973
L7637 20961
L7648 20950
L7659 20928
L7659 20871
L7648 20849
L7637 20838
L7614 20826
L7569 20826
L7547 20838
L7536 20849
L7525 20871
" />
<path d="M7749 20759
L7761 20748
L7783 20736
L7839 20736
L7862 20748
L7873 20759
L7884 20781
L7884 20804
L7873 20838
L7738 20973
L7884 20973
" />
<path d="M8109 20973
L7974 20973
" />
<path d="M8042 20973
L8042 20736
L8019 20770
L7997 20793
L7974 20804
" />
<path d="M8199 20759
L8211 20748
L8233 20736
L8289 20736
L8312 20748
L8323 20759
L8334 20781
L8334 20804
L8323 20838
L8188 20973
L8334 20973
" />
<path d="M8548 20736
L8436 20736
L8424 20849
L8436 20838
L8458 20826
L8514 20826
L8537 20838
L8548 20849
L8559 20871
L8559 20928
L8548 20950
L8537 20961
L8514 20973
L8458 20973
L8436 20961
L8424 20950
" />
</g>
<g style="fill:#C1C100; fill-opacity:0.0; 
stroke:#C1C100; stroke-width:59.0551; stroke-opacity:1; 
stroke-linecap:round; stroke-linejoin:round;">
<path d="M5311 13087
L5345 13098
L5401 13098
L5424 13087
L5435 13076
L5446 13053
L5446 13031
L5435 13008
L5424 12997
L5401 12986
L5356 12975
L5334 12964
L5323 12952
L5311 12930
L5311 12907
L5323 12885
L5334 12874
L5356 12862
L5413 12862
L5446 12874
" />
<path d="M5514 12862
L5649 12862
" />
<path d="M5581 13098
L5581 12862
" />
<path d="M5671 13121
L5851 13121
" />
<path d="M6020 13098
L5908 13098
L5908 12862
" />
<path d="M6099 13098
L6099 12862
" />
<path d="M6200 13087
L6234 13098
L6290 13098
L6312 13087
L6324 13076
L6335 13053
L6335 13031
L6324 13008
L6312 12997
L6290 12986
L6245 12975
L6222 12964
L6211 12952
L6200 12930
L6200 12907
L6211 12885
L6222 12874
L6245 12862
L6301 12862
L6335 12874
" />
<path d="M6425 12885
L6436 12874
L6459 12862
L6515 12862
L6537 12874
L6549 12885
L6560 12907
L6560 12930
L6549 12964
L6414 13098
L6560 13098
" />
<path d="M6661 13098
L6661 12862
L6717 12862
L6751 12874
L6774 12896
L6785 12919
L6796 12964
L6796 12997
L6785 13042
L6774 13065
L6751 13087
L6717 13098
L6661 13098
" />
<path d="M6897 13098
L6897 12862
" />
<path d="M6897 12975
L7032 12975
" />
<path d="M7032 13098
L7032 12862
" />
<path d="M7269 13098
L7134 13098
" />
<path d="M7201 13098
L7201 12862
L7179 12896
L7156 12919
L7134 12930
" />
<path d="M7359 12885
L7370 12874
L7392 12862
L7449 12862
L7471 12874
L7482 12885
L7494 12907
L7494 12930
L7482 12964
L7347 13098
L7494 13098
" />
</g>
<g style="fill:#C1C100; fill-opacity:0.0; 
stroke:#C1C100; stroke-width:50; stroke-opacity:1; 
stroke-linecap:round; stroke-linejoin:round;">
<path d="M8807 9249
L8841 9260
L8897 9260
L8919 9249
L8931 9237
L8942 9215
L8942 9192
L8931 9170
L8919 9159
L8897 9147
L8852 9136
L8829 9125
L8818 9114
L8807 9091
L8807 9069
L8818 9046
L8829 9035
L8852 9024
L8908 9024
L8942 9035
" />
<path d="M9009 9024
L9144 9024
" />
<path d="M9077 9260
L9077 9024
" />
<path d="M9167 9282
L9347 9282
" />
<path d="M9516 9260
L9403 9260
L9403 9024
" />
<path d="M9594 9260
L9594 9024
L9684 9024
L9707 9035
L9718 9046
L9729 9069
L9729 9102
L9718 9125
L9707 9136
L9684 9147
L9594 9147
" />
<path d="M9819 9249
L9853 9260
L9909 9260
L9932 9249
L9943 9237
L9954 9215
L9954 9192
L9943 9170
L9932 9159
L9909 9147
L9864 9136
L9842 9125
L9830 9114
L9819 9091
L9819 9069
L9830 9046
L9842 9035
L9864 9024
L9920 9024
L9954 9035
" />
<path d="M10044 9046
L10055 9035
L10078 9024
L10134 9024
L10157 9035
L10168 9046
L10179 9069
L10179 9091
L10168 9125
L10033 9260
L10179 9260
" />
<path d="M10393 9024
L10280 9024
L10269 9136
L10280 9125
L10303 9114
L10359 9114
L10382 9125
L10393 9136
L10404 9159
L10404 9215
L10393 9237
L10382 9249
L10359 9260
L10303 9260
L10280 9249
L10269 9237
" />
<path d="M10505 9260
L10505 9024
" />
<path d="M10505 9136
L10640 9136
" />
<path d="M10640 9260
L10640 9024
" />
<path d="M10832 9136
L10865 9147
L10877 9159
L10888 9181
L10888 9215
L10877 9237
L10865 9249
L10843 9260
L10753 9260
L10753 9024
L10832 9024
L10854 9035
L10865 9046
L10877 9069
L10877 9091
L10865 9114
L10854 9125
L10832 9136
L10753 9136
" />
<path d="M10545 22969
L10309 22969
L10545 22834
L10309 22834
" />
<path d="M10545 22587
L10432 22665
" />
<path d="M10545 22722
L10309 22722
L10309 22632
L10320 22609
L10331 22598
L10354 22587
L10387 22587
L10410 22598
L10421 22609
L10432 22632
L10432 22722
" />
<path d="M10320 22362
L10309 22384
L10309 22418
L10320 22452
L10342 22474
L10365 22485
L10410 22497
L10444 22497
L10489 22485
L10511 22474
L10533 22452
L10545 22418
L10545 22395
L10533 22362
L10522 22350
L10444 22350
L10444 22395
" />
<path d="M10387 22148
L10545 22148
" />
<path d="M10297 22204
L10466 22260
L10466 22114
" />
<path d="M10309 21979
L10309 21957
L10320 21934
L10331 21923
L10354 21912
L10399 21901
L10455 21901
L10500 21912
L10522 21923
L10533 21934
L10545 21957
L10545 21979
L10533 22002
L10522 22013
L10500 22024
L10455 22035
L10399 22035
L10354 22024
L10331 22013
L10320 22002
L10309 21979
" />
<path d="M10331 21811
L10320 21799
L10309 21777
L10309 21721
L10320 21698
L10331 21687
L10354 21676
L10376 21676
L10410 21687
L10545 21822
L10545 21676
" />
<path d="M10309 21473
L10309 21518
L10320 21541
L10331 21552
L10365 21574
L10410 21586
L10500 21586
L10522 21574
L10533 21563
L10545 21541
L10545 21496
L10533 21473
L10522 21462
L10500 21451
L10444 21451
L10421 21462
L10410 21473
L10399 21496
L10399 21541
L10410 21563
L10421 21574
L10444 21586
" />
<path d="M10309 21383
L10309 21248
" />
<path d="M10545 21316
L10309 21316
" />
<path d="M10545 21046
L10545 21181
" />
<path d="M10545 21113
L10309 21113
L10342 21136
L10365 21158
L10376 21181
" />
<path d="M10309 20832
L10309 20944
L10421 20956
L10410 20944
L10399 20922
L10399 20866
L10410 20843
L10421 20832
L10444 20821
L10500 20821
L10522 20832
L10533 20843
L10545 20866
L10545 20922
L10533 20944
L10522 20956
" />
<path d="M10309 20674
L10309 20652
L10320 20629
L10331 20618
L10354 20607
L10399 20596
L10455 20596
L10500 20607
L10522 20618
L10533 20629
L10545 20652
L10545 20674
L10533 20697
L10522 20708
L10500 20719
L10455 20731
L10399 20731
L10354 20719
L10331 20708
L10320 20697
L10309 20674
" />
<path d="M10545 20494
L10309 20494
L10477 20416
L10309 20337
L10545 20337
" />
<path d="M6518 12410
L6518 12173
" />
<path d="M6518 12286
L6653 12286
" />
<path d="M6653 12410
L6653 12173
" />
<path d="M6889 12410
L6754 12410
" />
<path d="M6821 12410
L6821 12173
L6799 12207
L6776 12230
L6754 12241
" />
<path d="M6228 9347
L6262 9358
L6318 9358
L6341 9347
L6352 9336
L6363 9313
L6363 9291
L6352 9268
L6341 9257
L6318 9246
L6273 9235
L6251 9223
L6239 9212
L6228 9190
L6228 9167
L6239 9145
L6251 9133
L6273 9122
L6329 9122
L6363 9133
" />
<path d="M6464 9235
L6543 9235
" />
<path d="M6577 9358
L6464 9358
L6464 9122
L6577 9122
" />
<path d="M6667 9291
L6779 9291
" />
<path d="M6644 9358
L6723 9122
L6802 9358
" />
<path d="M6993 9358
L6881 9358
L6881 9122
" />
<path d="M8270 16164
L8281 16130
L8281 16074
L8270 16051
L8258 16040
L8236 16029
L8213 16029
L8191 16040
L8180 16051
L8168 16074
L8157 16119
L8146 16141
L8135 16152
L8112 16164
L8090 16164
L8067 16152
L8056 16141
L8045 16119
L8045 16062
L8056 16029
" />
<path d="M8045 15961
L8045 15826
" />
<path d="M8281 15894
L8045 15894
" />
<path d="M8303 15804
L8303 15624
" />
<path d="M8045 15601
L8281 15523
L8045 15444
" />
<path d="M8281 15253
L8281 15365
L8045 15365
" />
<path d="M8045 15073
L8045 15118
L8056 15140
L8067 15151
L8101 15174
L8146 15185
L8236 15185
L8258 15174
L8270 15163
L8281 15140
L8281 15095
L8270 15073
L8258 15061
L8236 15050
L8180 15050
L8157 15061
L8146 15073
L8135 15095
L8135 15140
L8146 15163
L8157 15174
L8180 15185
" />
<path d="M8281 14825
L8281 14960
" />
<path d="M8281 14893
L8045 14893
L8078 14915
L8101 14938
L8112 14960
" />
<path d="M8146 14690
L8135 14713
L8123 14724
L8101 14735
L8090 14735
L8067 14724
L8056 14713
L8045 14690
L8045 14645
L8056 14623
L8067 14611
L8090 14600
L8101 14600
L8123 14611
L8135 14623
L8146 14645
L8146 14690
L8157 14713
L8168 14724
L8191 14735
L8236 14735
L8258 14724
L8270 14713
L8281 14690
L8281 14645
L8270 14623
L8258 14611
L8236 14600
L8191 14600
L8168 14611
L8157 14623
L8146 14645
" />
<path d="M8045 14454
L8045 14431
L8056 14409
L8067 14398
L8090 14386
L8135 14375
L8191 14375
L8236 14386
L8258 14398
L8270 14409
L8281 14431
L8281 14454
L8270 14476
L8258 14488
L8236 14499
L8191 14510
L8135 14510
L8090 14499
L8067 14488
L8056 14476
L8045 14454
" />
<path d="M8045 14296
L8281 14139
" />
<path d="M8045 14139
L8281 14296
" />
</g>
<g style="fill:#C1C100; fill-opacity:0.0; 
stroke:#C1C100; stroke-width:7.87402; stroke-opacity:1; 
stroke-linecap:round; stroke-linejoin:round;">
<path d="M10445 9373
L10445 9323
L10461 9358
L10478 9323
L10478 9373
" />
<path d="M10497 9323
L10528 9323
L10511 9342
L10519 9342
L10523 9344
L10526 9346
L10528 9351
L10528 9363
L10526 9368
L10523 9370
L10519 9373
L10504 9373
L10499 9370
L10497 9368
" />
<path d="M10588 9373
L10588 9323
" />
<path d="M10611 9373
L10611 9323
L10640 9373
L10640 9323
" />
<path d="M10661 9370
L10669 9373
L10680 9373
L10685 9370
L10688 9368
L10690 9363
L10690 9358
L10688 9353
L10685 9351
L10680 9349
L10671 9346
L10666 9344
L10664 9342
L10661 9337
L10661 9332
L10664 9327
L10666 9325
L10671 9323
L10683 9323
L10690 9325
" />
<path d="M10711 9346
L10728 9346
" />
<path d="M10735 9373
L10711 9373
L10711 9323
L10735 9323
" />
<path d="M10785 9373
L10769 9349
" />
<path d="M10757 9373
L10757 9323
L10776 9323
L10780 9325
L10783 9327
L10785 9332
L10785 9339
L10783 9344
L10780 9346
L10776 9349
L10757 9349
" />
<path d="M10799 9323
L10828 9323
" />
<path d="M10814 9373
L10814 9323
" />
<path d="M10883 9353
L10921 9353
" />
<path d="M10902 9373
L10902 9334
" />
<path d="M10983 9373
L10983 9323
L11002 9323
L11007 9325
L11009 9327
L11011 9332
L11011 9339
L11009 9344
L11007 9346
L11002 9349
L10983 9349
" />
<path d="M11057 9373
L11033 9373
L11033 9323
" />
<path d="M11071 9358
L11095 9358
" />
<path d="M11066 9373
L11083 9323
L11099 9373
" />
<path d="M11114 9370
L11121 9373
L11133 9373
L11138 9370
L11140 9368
L11142 9363
L11142 9358
L11140 9353
L11138 9351
L11133 9349
L11123 9346
L11119 9344
L11116 9342
L11114 9337
L11114 9332
L11116 9327
L11119 9325
L11123 9323
L11135 9323
L11142 9325
" />
<path d="M11157 9323
L11185 9323
" />
<path d="M11171 9373
L11171 9323
" />
<path d="M11202 9373
L11202 9323
" />
<path d="M11254 9368
L11252 9370
L11245 9373
L11240 9373
L11233 9370
L11228 9365
L11226 9361
L11223 9351
L11223 9344
L11226 9334
L11228 9330
L11233 9325
L11240 9323
L11245 9323
L11252 9325
L11254 9327
" />
<path d="M11309 9323
L11321 9373
L11330 9337
L11340 9373
L11352 9323
" />
<path d="M11369 9358
L11392 9358
" />
<path d="M11364 9373
L11380 9323
L11397 9373
" />
<path d="M11438 9373
L11414 9373
L11414 9323
" />
<path d="M11478 9373
L11454 9373
L11454 9323
" />
<path d="M11559 9373
L11530 9373
" />
<path d="M11545 9373
L11545 9323
L11540 9330
L11535 9334
L11530 9337
" />
<path d="M11583 9370
L11583 9373
L11580 9377
L11578 9380
" />
<path d="M11599 9323
L11633 9323
L11611 9373
" />
<path d="M11676 9323
L11652 9323
L11649 9346
L11652 9344
L11657 9342
L11669 9342
L11673 9344
L11676 9346
L11678 9351
L11678 9363
L11676 9368
L11673 9370
L11669 9373
L11657 9373
L11652 9370
L11649 9368
" />
<path d="M11699 9373
L11699 9339
" />
<path d="M11699 9344
L11702 9342
L11707 9339
L11714 9339
L11719 9342
L11721 9346
L11721 9373
" />
<path d="M11721 9346
L11723 9342
L11728 9339
L11735 9339
L11740 9342
L11742 9346
L11742 9373
" />
<path d="M11766 9373
L11766 9339
" />
<path d="M11766 9344
L11769 9342
L11773 9339
L11780 9339
L11785 9342
L11788 9346
L11788 9373
" />
<path d="M11788 9346
L11790 9342
L11795 9339
L11802 9339
L11807 9342
L11809 9346
L11809 9373
" />
<path d="M4539 9373
L4539 9323
L4556 9358
L4573 9323
L4573 9373
" />
<path d="M4592 9323
L4623 9323
L4606 9342
L4613 9342
L4618 9344
L4620 9346
L4623 9351
L4623 9363
L4620 9368
L4618 9370
L4613 9373
L4599 9373
L4594 9370
L4592 9368
" />
<path d="M4682 9373
L4682 9323
" />
<path d="M4706 9373
L4706 9323
L4734 9373
L4734 9323
" />
<path d="M4756 9370
L4763 9373
L4775 9373
L4780 9370
L4782 9368
L4784 9363
L4784 9358
L4782 9353
L4780 9351
L4775 9349
L4765 9346
L4761 9344
L4758 9342
L4756 9337
L4756 9332
L4758 9327
L4761 9325
L4765 9323
L4777 9323
L4784 9325
" />
<path d="M4806 9346
L4823 9346
" />
<path d="M4830 9373
L4806 9373
L4806 9323
L4830 9323
" />
<path d="M4880 9373
L4863 9349
" />
<path d="M4851 9373
L4851 9323
L4870 9323
L4875 9325
L4877 9327
L4880 9332
L4880 9339
L4877 9344
L4875 9346
L4870 9349
L4851 9349
" />
<path d="M4894 9323
L4923 9323
" />
<path d="M4908 9373
L4908 9323
" />
<path d="M4977 9353
L5015 9353
" />
<path d="M4996 9373
L4996 9334
" />
<path d="M5077 9373
L5077 9323
L5096 9323
L5101 9325
L5103 9327
L5106 9332
L5106 9339
L5103 9344
L5101 9346
L5096 9349
L5077 9349
" />
<path d="M5151 9373
L5127 9373
L5127 9323
" />
<path d="M5165 9358
L5189 9358
" />
<path d="M5161 9373
L5177 9323
L5194 9373
" />
<path d="M5208 9370
L5215 9373
L5227 9373
L5232 9370
L5234 9368
L5237 9363
L5237 9358
L5234 9353
L5232 9351
L5227 9349
L5218 9346
L5213 9344
L5211 9342
L5208 9337
L5208 9332
L5211 9327
L5213 9325
L5218 9323
L5230 9323
L5237 9325
" />
<path d="M5251 9323
L5280 9323
" />
<path d="M5265 9373
L5265 9323
" />
<path d="M5296 9373
L5296 9323
" />
<path d="M5349 9368
L5346 9370
L5339 9373
L5334 9373
L5327 9370
L5323 9365
L5320 9361
L5318 9351
L5318 9344
L5320 9334
L5323 9330
L5327 9325
L5334 9323
L5339 9323
L5346 9325
L5349 9327
" />
<path d="M5403 9323
L5415 9373
L5425 9337
L5434 9373
L5446 9323
" />
<path d="M5463 9358
L5487 9358
" />
<path d="M5458 9373
L5475 9323
L5492 9373
" />
<path d="M5532 9373
L5508 9373
L5508 9323
" />
<path d="M5573 9373
L5549 9373
L5549 9323
" />
<path d="M5653 9373
L5625 9373
" />
<path d="M5639 9373
L5639 9323
L5634 9330
L5630 9334
L5625 9337
" />
<path d="M5677 9370
L5677 9373
L5675 9377
L5673 9380
" />
<path d="M5694 9323
L5727 9323
L5706 9373
" />
<path d="M5770 9323
L5746 9323
L5744 9346
L5746 9344
L5751 9342
L5763 9342
L5768 9344
L5770 9346
L5773 9351
L5773 9363
L5770 9368
L5768 9370
L5763 9373
L5751 9373
L5746 9370
L5744 9368
" />
<path d="M5794 9373
L5794 9339
" />
<path d="M5794 9344
L5796 9342
L5801 9339
L5808 9339
L5813 9342
L5815 9346
L5815 9373
" />
<path d="M5815 9346
L5818 9342
L5823 9339
L5830 9339
L5834 9342
L5837 9346
L5837 9373
" />
<path d="M5861 9373
L5861 9339
" />
<path d="M5861 9344
L5863 9342
L5868 9339
L5875 9339
L5880 9342
L5882 9346
L5882 9373
" />
<path d="M5882 9346
L5884 9342
L5889 9339
L5896 9339
L5901 9342
L5903 9346
L5903 9373
" />
<path d="M4441 22955
L4441 22905
L4457 22941
L4474 22905
L4474 22955
" />
<path d="M4493 22905
L4524 22905
L4507 22924
L4515 22924
L4519 22927
L4522 22929
L4524 22934
L4524 22946
L4522 22950
L4519 22953
L4515 22955
L4500 22955
L4496 22953
L4493 22950
" />
<path d="M4584 22955
L4584 22905
" />
<path d="M4607 22955
L4607 22905
L4636 22955
L4636 22905
" />
<path d="M4657 22953
L4665 22955
L4676 22955
L4681 22953
L4684 22950
L4686 22946
L4686 22941
L4684 22936
L4681 22934
L4676 22931
L4667 22929
L4662 22927
L4660 22924
L4657 22919
L4657 22915
L4660 22910
L4662 22908
L4667 22905
L4679 22905
L4686 22908
" />
<path d="M4707 22929
L4724 22929
" />
<path d="M4731 22955
L4707 22955
L4707 22905
L4731 22905
" />
<path d="M4781 22955
L4765 22931
" />
<path d="M4753 22955
L4753 22905
L4772 22905
L4776 22908
L4779 22910
L4781 22915
L4781 22922
L4779 22927
L4776 22929
L4772 22931
L4753 22931
" />
<path d="M4796 22905
L4824 22905
" />
<path d="M4810 22955
L4810 22905
" />
<path d="M4879 22936
L4917 22936
" />
<path d="M4898 22955
L4898 22917
" />
<path d="M4979 22955
L4979 22905
L4998 22905
L5003 22908
L5005 22910
L5007 22915
L5007 22922
L5005 22927
L5003 22929
L4998 22931
L4979 22931
" />
<path d="M5053 22955
L5029 22955
L5029 22905
" />
<path d="M5067 22941
L5091 22941
" />
<path d="M5062 22955
L5079 22905
L5096 22955
" />
<path d="M5110 22953
L5117 22955
L5129 22955
L5134 22953
L5136 22950
L5138 22946
L5138 22941
L5136 22936
L5134 22934
L5129 22931
L5119 22929
L5115 22927
L5112 22924
L5110 22919
L5110 22915
L5112 22910
L5115 22908
L5119 22905
L5131 22905
L5138 22908
" />
<path d="M5153 22905
L5181 22905
" />
<path d="M5167 22955
L5167 22905
" />
<path d="M5198 22955
L5198 22905
" />
<path d="M5250 22950
L5248 22953
L5241 22955
L5236 22955
L5229 22953
L5224 22948
L5222 22943
L5219 22934
L5219 22927
L5222 22917
L5224 22912
L5229 22908
L5236 22905
L5241 22905
L5248 22908
L5250 22910
" />
<path d="M5305 22905
L5317 22955
L5326 22919
L5336 22955
L5348 22905
" />
<path d="M5365 22941
L5388 22941
" />
<path d="M5360 22955
L5376 22905
L5393 22955
" />
<path d="M5434 22955
L5410 22955
L5410 22905
" />
<path d="M5474 22955
L5450 22955
L5450 22905
" />
<path d="M5555 22955
L5526 22955
" />
<path d="M5541 22955
L5541 22905
L5536 22912
L5531 22917
L5526 22919
" />
<path d="M5579 22953
L5579 22955
L5576 22960
L5574 22962
" />
<path d="M5596 22905
L5629 22905
L5607 22955
" />
<path d="M5672 22905
L5648 22905
L5646 22929
L5648 22927
L5653 22924
L5665 22924
L5669 22927
L5672 22929
L5674 22934
L5674 22946
L5672 22950
L5669 22953
L5665 22955
L5653 22955
L5648 22953
L5646 22950
" />
<path d="M5696 22955
L5696 22922
" />
<path d="M5696 22927
L5698 22924
L5703 22922
L5710 22922
L5715 22924
L5717 22929
L5717 22955
" />
<path d="M5717 22929
L5719 22924
L5724 22922
L5731 22922
L5736 22924
L5738 22929
L5738 22955
" />
<path d="M5762 22955
L5762 22922
" />
<path d="M5762 22927
L5765 22924
L5769 22922
L5776 22922
L5781 22924
L5784 22929
L5784 22955
" />
<path d="M5784 22929
L5786 22924
L5791 22922
L5798 22922
L5803 22924
L5805 22929
L5805 22955
" />
<path d="M10543 23250
L10543 23200
L10560 23236
L10576 23200
L10576 23250
" />
<path d="M10596 23200
L10626 23200
L10610 23220
L10617 23220
L10622 23222
L10624 23224
L10626 23229
L10626 23241
L10624 23246
L10622 23248
L10617 23250
L10603 23250
L10598 23248
L10596 23246
" />
<path d="M10686 23250
L10686 23200
" />
<path d="M10710 23250
L10710 23200
L10738 23250
L10738 23200
" />
<path d="M10760 23248
L10767 23250
L10779 23250
L10784 23248
L10786 23246
L10788 23241
L10788 23236
L10786 23231
L10784 23229
L10779 23227
L10769 23224
L10765 23222
L10762 23220
L10760 23215
L10760 23210
L10762 23205
L10765 23203
L10769 23200
L10781 23200
L10788 23203
" />
<path d="M10810 23224
L10826 23224
" />
<path d="M10834 23250
L10810 23250
L10810 23200
L10834 23200
" />
<path d="M10884 23250
L10867 23227
" />
<path d="M10855 23250
L10855 23200
L10874 23200
L10879 23203
L10881 23205
L10884 23210
L10884 23217
L10881 23222
L10879 23224
L10874 23227
L10855 23227
" />
<path d="M10898 23200
L10926 23200
" />
<path d="M10912 23250
L10912 23200
" />
<path d="M10981 23231
L11019 23231
" />
<path d="M11000 23250
L11000 23212
" />
<path d="M11081 23250
L11081 23200
L11100 23200
L11105 23203
L11107 23205
L11110 23210
L11110 23217
L11107 23222
L11105 23224
L11100 23227
L11081 23227
" />
<path d="M11155 23250
L11131 23250
L11131 23200
" />
<path d="M11169 23236
L11193 23236
" />
<path d="M11165 23250
L11181 23200
L11198 23250
" />
<path d="M11212 23248
L11219 23250
L11231 23250
L11236 23248
L11238 23246
L11241 23241
L11241 23236
L11238 23231
L11236 23229
L11231 23227
L11222 23224
L11217 23222
L11215 23220
L11212 23215
L11212 23210
L11215 23205
L11217 23203
L11222 23200
L11234 23200
L11241 23203
" />
<path d="M11255 23200
L11284 23200
" />
<path d="M11269 23250
L11269 23200
" />
<path d="M11300 23250
L11300 23200
" />
<path d="M11353 23246
L11350 23248
L11343 23250
L11338 23250
L11331 23248
L11326 23243
L11324 23239
L11322 23229
L11322 23222
L11324 23212
L11326 23208
L11331 23203
L11338 23200
L11343 23200
L11350 23203
L11353 23205
" />
<path d="M11407 23200
L11419 23250
L11429 23215
L11438 23250
L11450 23200
" />
<path d="M11467 23236
L11491 23236
" />
<path d="M11462 23250
L11479 23200
L11496 23250
" />
<path d="M11536 23250
L11512 23250
L11512 23200
" />
<path d="M11576 23250
L11553 23250
L11553 23200
" />
<path d="M11657 23250
L11629 23250
" />
<path d="M11643 23250
L11643 23200
L11638 23208
L11634 23212
L11629 23215
" />
<path d="M11681 23248
L11681 23250
L11679 23255
L11676 23258
" />
<path d="M11698 23200
L11731 23200
L11710 23250
" />
<path d="M11774 23200
L11750 23200
L11748 23224
L11750 23222
L11755 23220
L11767 23220
L11772 23222
L11774 23224
L11776 23229
L11776 23241
L11774 23246
L11772 23248
L11767 23250
L11755 23250
L11750 23248
L11748 23246
" />
<path d="M11798 23250
L11798 23217
" />
<path d="M11798 23222
L11800 23220
L11805 23217
L11812 23217
L11817 23220
L11819 23224
L11819 23250
" />
<path d="M11819 23224
L11822 23220
L11826 23217
L11834 23217
L11838 23220
L11841 23224
L11841 23250
" />
<path d="M11865 23250
L11865 23217
" />
<path d="M11865 23222
L11867 23220
L11872 23217
L11879 23217
L11884 23220
L11886 23224
L11886 23250
" />
<path d="M11886 23224
L11888 23220
L11893 23217
L11900 23217
L11905 23220
L11907 23224
L11907 23250
" />
</g>
<g style="fill:#C1C100; fill-opacity:0.0; 
stroke:#C1C100; stroke-width:49.2126; stroke-opacity:1; 
stroke-linecap:round; stroke-linejoin:round;">
<path d="M8303 8079
L8168 8079
" />
<path d="M8236 8079
L8236 7843
L8213 7876
L8191 7899
L8168 7910
" />
<path d="M8405 8079
L8405 7843
L8483 8011
L8562 7843
L8562 8079
" />
<path d="M11245 8079
L11110 8079
" />
<path d="M11177 8079
L11177 7843
L11155 7876
L11132 7899
L11110 7910
" />
<path d="M11391 7843
L11414 7843
L11436 7854
L11447 7865
L11459 7888
L11470 7933
L11470 7989
L11459 8034
L11447 8056
L11436 8068
L11414 8079
L11391 8079
L11369 8068
L11357 8056
L11346 8034
L11335 7989
L11335 7933
L11346 7888
L11357 7865
L11369 7854
L11391 7843
" />
<path d="M11616 7843
L11639 7843
L11661 7854
L11672 7865
L11684 7888
L11695 7933
L11695 7989
L11684 8034
L11672 8056
L11661 8068
L11639 8079
L11616 8079
L11594 8068
L11582 8056
L11571 8034
L11560 7989
L11560 7933
L11571 7888
L11582 7865
L11594 7854
L11616 7843
" />
<path d="M11931 8079
L11852 7966
" />
<path d="M11796 8079
L11796 7843
L11886 7843
L11909 7854
L11920 7865
L11931 7888
L11931 7921
L11920 7944
L11909 7955
L11886 7966
L11796 7966
" />
<path d="M8883 7390
L8748 7390
" />
<path d="M8815 7390
L8815 7154
L8793 7187
L8770 7210
L8748 7221
" />
<path d="M9029 7154
L9051 7154
L9074 7165
L9085 7176
L9096 7199
L9108 7244
L9108 7300
L9096 7345
L9085 7367
L9074 7379
L9051 7390
L9029 7390
L9007 7379
L8995 7367
L8984 7345
L8973 7300
L8973 7244
L8984 7199
L8995 7176
L9007 7165
L9029 7154
" />
<path d="M9254 7154
L9276 7154
L9299 7165
L9310 7176
L9321 7199
L9333 7244
L9333 7300
L9321 7345
L9310 7367
L9299 7379
L9276 7390
L9254 7390
L9231 7379
L9220 7367
L9209 7345
L9198 7300
L9198 7244
L9209 7199
L9220 7176
L9231 7165
L9254 7154
" />
<path d="M9569 7390
L9490 7277
" />
<path d="M9434 7390
L9434 7154
L9524 7154
L9546 7165
L9558 7176
L9569 7199
L9569 7232
L9558 7255
L9546 7266
L9524 7277
L9434 7277
" />
<path d="M9091 8079
L8956 8079
" />
<path d="M9023 8079
L9023 7843
L9001 7876
L8978 7899
L8956 7910
" />
<path d="M9192 8079
L9192 7843
L9271 8011
L9350 7843
L9350 8079
" />
<path d="M5874 16330
L5885 16318
L5908 16307
L5964 16307
L5986 16318
L5998 16330
L6009 16352
L6009 16375
L5998 16408
L5863 16543
L6009 16543
" />
<path d="M6110 16521
L6121 16532
L6110 16543
L6099 16532
L6110 16521
L6110 16543
" />
<path d="M6211 16330
L6222 16318
L6245 16307
L6301 16307
L6324 16318
L6335 16330
L6346 16352
L6346 16375
L6335 16408
L6200 16543
L6346 16543
" />
<path d="M6447 16543
L6447 16307
" />
<path d="M6470 16453
L6537 16543
" />
<path d="M6537 16386
L6447 16476
" />
<path d="M7055 15247
L7066 15236
L7089 15224
L7145 15224
L7167 15236
L7179 15247
L7190 15269
L7190 15292
L7179 15326
L7044 15461
L7190 15461
" />
<path d="M7291 15438
L7302 15449
L7291 15461
L7280 15449
L7291 15438
L7291 15461
" />
<path d="M7392 15247
L7404 15236
L7426 15224
L7482 15224
L7505 15236
L7516 15247
L7527 15269
L7527 15292
L7516 15326
L7381 15461
L7527 15461
" />
<path d="M7629 15461
L7629 15224
" />
<path d="M7651 15371
L7719 15461
" />
<path d="M7719 15303
L7629 15393
" />
<path d="M6000 17753
L5989 17741
L5978 17719
L5978 17663
L5989 17640
L6000 17629
L6023 17618
L6045 17618
L6079 17629
L6214 17764
L6214 17618
" />
<path d="M6192 17516
L6203 17505
L6214 17516
L6203 17528
L6192 17516
L6214 17516
" />
<path d="M6000 17415
L5989 17404
L5978 17381
L5978 17325
L5989 17303
L6000 17291
L6023 17280
L6045 17280
L6079 17291
L6214 17426
L6214 17280
" />
<path d="M6214 17179
L5978 17179
" />
<path d="M6124 17156
L6214 17089
" />
<path d="M6057 17089
L6147 17179
" />
<path d="M5410 17753
L5399 17741
L5387 17719
L5387 17663
L5399 17640
L5410 17629
L5432 17618
L5455 17618
L5489 17629
L5623 17764
L5623 17618
" />
<path d="M5601 17516
L5612 17505
L5623 17516
L5612 17528
L5601 17516
L5623 17516
" />
<path d="M5410 17415
L5399 17404
L5387 17381
L5387 17325
L5399 17303
L5410 17291
L5432 17280
L5455 17280
L5489 17291
L5623 17426
L5623 17280
" />
<path d="M5623 17179
L5387 17179
" />
<path d="M5533 17156
L5623 17089
" />
<path d="M5466 17089
L5556 17179
" />
<path d="M8762 19086
L8773 19074
L8796 19063
L8852 19063
L8874 19074
L8886 19086
L8897 19108
L8897 19131
L8886 19164
L8751 19299
L8897 19299
" />
<path d="M8987 19086
L8998 19074
L9021 19063
L9077 19063
L9099 19074
L9111 19086
L9122 19108
L9122 19131
L9111 19164
L8976 19299
L9122 19299
" />
<path d="M9358 19299
L9279 19187
" />
<path d="M9223 19299
L9223 19063
L9313 19063
L9336 19074
L9347 19086
L9358 19108
L9358 19142
L9347 19164
L9336 19176
L9313 19187
L9223 19187
" />
<path d="M8762 19676
L8773 19665
L8796 19654
L8852 19654
L8874 19665
L8886 19676
L8897 19699
L8897 19721
L8886 19755
L8751 19890
L8897 19890
" />
<path d="M8987 19676
L8998 19665
L9021 19654
L9077 19654
L9099 19665
L9111 19676
L9122 19699
L9122 19721
L9111 19755
L8976 19890
L9122 19890
" />
<path d="M9358 19890
L9279 19777
" />
<path d="M9223 19890
L9223 19654
L9313 19654
L9336 19665
L9347 19676
L9358 19699
L9358 19732
L9347 19755
L9336 19766
L9313 19777
L9223 19777
" />
<path d="M6239 13630
L6239 13787
" />
<path d="M6183 13540
L6127 13709
L6273 13709
" />
<path d="M6341 13551
L6498 13551
L6397 13787
" />
<path d="M6588 13787
L6588 13551
" />
<path d="M6611 13697
L6678 13787
" />
<path d="M6678 13630
L6588 13720
" />
<path d="M7224 14713
L7224 14870
" />
<path d="M7167 14623
L7111 14791
L7257 14791
" />
<path d="M7325 14634
L7482 14634
L7381 14870
" />
<path d="M7572 14870
L7572 14634
" />
<path d="M7595 14780
L7662 14870
" />
<path d="M7662 14713
L7572 14803
" />
<path d="M6591 24403
L6580 24392
L6568 24370
L6568 24313
L6580 24291
L6591 24280
L6613 24268
L6636 24268
L6670 24280
L6805 24415
L6805 24268
" />
<path d="M6670 24133
L6658 24156
L6647 24167
L6625 24178
L6613 24178
L6591 24167
L6580 24156
L6568 24133
L6568 24088
L6580 24066
L6591 24055
L6613 24043
L6625 24043
L6647 24055
L6658 24066
L6670 24088
L6670 24133
L6681 24156
L6692 24167
L6715 24178
L6760 24178
L6782 24167
L6793 24156
L6805 24133
L6805 24088
L6793 24066
L6782 24055
L6760 24043
L6715 24043
L6692 24055
L6681 24066
L6670 24088
" />
<path d="M6568 23965
L6568 23807
L6805 23908
" />
<path d="M6805 23717
L6568 23717
" />
<path d="M6715 23695
L6805 23627
" />
<path d="M6647 23627
L6737 23717
" />
<path d="M7651 24881
L7651 24926
L7662 24949
L7674 24960
L7707 24983
L7752 24994
L7842 24994
L7865 24983
L7876 24971
L7887 24949
L7887 24904
L7876 24881
L7865 24870
L7842 24859
L7786 24859
L7764 24870
L7752 24881
L7741 24904
L7741 24949
L7752 24971
L7764 24983
L7786 24994
" />
<path d="M7752 24724
L7741 24746
L7730 24758
L7707 24769
L7696 24769
L7674 24758
L7662 24746
L7651 24724
L7651 24679
L7662 24656
L7674 24645
L7696 24634
L7707 24634
L7730 24645
L7741 24656
L7752 24679
L7752 24724
L7764 24746
L7775 24758
L7797 24769
L7842 24769
L7865 24758
L7876 24746
L7887 24724
L7887 24679
L7876 24656
L7865 24645
L7842 24634
L7797 24634
L7775 24645
L7764 24656
L7752 24679
" />
<path d="M7651 24488
L7651 24465
L7662 24443
L7674 24431
L7696 24420
L7741 24409
L7797 24409
L7842 24420
L7865 24431
L7876 24443
L7887 24465
L7887 24488
L7876 24510
L7865 24521
L7842 24533
L7797 24544
L7741 24544
L7696 24533
L7674 24521
L7662 24510
L7651 24488
" />
<path d="M7887 24308
L7651 24308
" />
<path d="M7797 24285
L7887 24218
" />
<path d="M7730 24218
L7820 24308
" />
<path d="M9496 21563
L9361 21563
" />
<path d="M9428 21563
L9428 21327
L9406 21361
L9383 21383
L9361 21394
" />
<path d="M9642 21327
L9665 21327
L9687 21338
L9698 21349
L9710 21372
L9721 21417
L9721 21473
L9710 21518
L9698 21541
L9687 21552
L9665 21563
L9642 21563
L9620 21552
L9608 21541
L9597 21518
L9586 21473
L9586 21417
L9597 21372
L9608 21349
L9620 21338
L9642 21327
" />
<path d="M9867 21327
L9890 21327
L9912 21338
L9923 21349
L9935 21372
L9946 21417
L9946 21473
L9935 21518
L9923 21541
L9912 21552
L9890 21563
L9867 21563
L9845 21552
L9833 21541
L9822 21518
L9811 21473
L9811 21417
L9822 21372
L9833 21349
L9845 21338
L9867 21327
" />
<path d="M10047 21563
L10047 21327
" />
<path d="M10069 21473
L10137 21563
" />
<path d="M10137 21406
L10047 21496
" />
<path d="M5919 23087
L5919 23222
" />
<path d="M5919 23155
L5683 23155
L5716 23177
L5739 23200
L5750 23222
" />
<path d="M5683 22941
L5683 22919
L5694 22896
L5705 22885
L5728 22874
L5773 22862
L5829 22862
L5874 22874
L5896 22885
L5908 22896
L5919 22919
L5919 22941
L5908 22964
L5896 22975
L5874 22986
L5829 22997
L5773 22997
L5728 22986
L5705 22975
L5694 22964
L5683 22941
" />
<path d="M5761 22660
L5919 22660
" />
<path d="M5761 22761
L5885 22761
L5908 22750
L5919 22727
L5919 22694
L5908 22671
L5896 22660
" />
<path d="M5795 22469
L5795 22547
" />
<path d="M5919 22547
L5683 22547
L5683 22435
" />
<path d="M10643 13442
L10643 13577
" />
<path d="M10643 13509
L10407 13509
L10441 13532
L10463 13554
L10474 13577
" />
<path d="M10407 13295
L10407 13273
L10418 13250
L10429 13239
L10452 13228
L10497 13217
L10553 13217
L10598 13228
L10621 13239
L10632 13250
L10643 13273
L10643 13295
L10632 13318
L10621 13329
L10598 13340
L10553 13352
L10497 13352
L10452 13340
L10429 13329
L10418 13318
L10407 13295
" />
<path d="M10486 13014
L10643 13014
" />
<path d="M10486 13115
L10609 13115
L10632 13104
L10643 13082
L10643 13048
L10632 13025
L10621 13014
" />
<path d="M10519 12823
L10519 12902
" />
<path d="M10643 12902
L10407 12902
L10407 12789
" />
<path d="M10643 15115
L10643 15250
" />
<path d="M10643 15182
L10407 15182
L10441 15205
L10463 15227
L10474 15250
" />
<path d="M10407 14969
L10407 14946
L10418 14924
L10429 14912
L10452 14901
L10497 14890
L10553 14890
L10598 14901
L10621 14912
L10632 14924
L10643 14946
L10643 14969
L10632 14991
L10621 15002
L10598 15014
L10553 15025
L10497 15025
L10452 15014
L10429 15002
L10418 14991
L10407 14969
" />
<path d="M10486 14687
L10643 14687
" />
<path d="M10486 14789
L10609 14789
L10632 14777
L10643 14755
L10643 14721
L10632 14699
L10621 14687
" />
<path d="M10519 14496
L10519 14575
" />
<path d="M10643 14575
L10407 14575
L10407 14462
" />
<path d="M8773 23579
L8773 23714
" />
<path d="M8773 23647
L8537 23647
L8571 23669
L8593 23692
L8604 23714
" />
<path d="M8537 23433
L8537 23411
L8548 23388
L8559 23377
L8582 23366
L8627 23354
L8683 23354
L8728 23366
L8751 23377
L8762 23388
L8773 23411
L8773 23433
L8762 23456
L8751 23467
L8728 23478
L8683 23489
L8627 23489
L8582 23478
L8559 23467
L8548 23456
L8537 23433
" />
<path d="M8616 23152
L8773 23152
" />
<path d="M8616 23253
L8739 23253
L8762 23242
L8773 23219
L8773 23186
L8762 23163
L8751 23152
" />
<path d="M8649 22961
L8649 23039
" />
<path d="M8773 23039
L8537 23039
L8537 22927
" />
<path d="M9265 23579
L9265 23714
" />
<path d="M9265 23647
L9029 23647
L9063 23669
L9085 23692
L9096 23714
" />
<path d="M9029 23433
L9029 23411
L9040 23388
L9051 23377
L9074 23366
L9119 23354
L9175 23354
L9220 23366
L9243 23377
L9254 23388
L9265 23411
L9265 23433
L9254 23456
L9243 23467
L9220 23478
L9175 23489
L9119 23489
L9074 23478
L9051 23467
L9040 23456
L9029 23433
" />
<path d="M9108 23152
L9265 23152
" />
<path d="M9108 23253
L9231 23253
L9254 23242
L9265 23219
L9265 23186
L9254 23163
L9243 23152
" />
<path d="M9141 22961
L9141 23039
" />
<path d="M9265 23039
L9029 23039
L9029 22927
" />
<path d="M8512 16839
L8377 16839
" />
<path d="M8444 16839
L8444 16602
L8422 16636
L8399 16659
L8377 16670
" />
<path d="M8658 16602
L8680 16602
L8703 16614
L8714 16625
L8725 16647
L8737 16692
L8737 16749
L8725 16794
L8714 16816
L8703 16827
L8680 16839
L8658 16839
L8635 16827
L8624 16816
L8613 16794
L8602 16749
L8602 16692
L8613 16647
L8624 16625
L8635 16614
L8658 16602
" />
<path d="M8939 16681
L8939 16839
" />
<path d="M8838 16681
L8838 16805
L8849 16827
L8872 16839
L8905 16839
L8928 16827
L8939 16816
" />
<path d="M9130 16715
L9051 16715
" />
<path d="M9051 16839
L9051 16602
L9164 16602
" />
<path d="M6706 22876
L6706 23011
" />
<path d="M6706 22944
L6470 22944
L6504 22966
L6526 22989
L6537 23011
" />
<path d="M6549 22674
L6706 22674
" />
<path d="M6549 22775
L6672 22775
L6695 22764
L6706 22741
L6706 22708
L6695 22685
L6684 22674
" />
<path d="M6582 22483
L6582 22561
" />
<path d="M6706 22561
L6470 22561
L6470 22449
" />
<path d="M6802 8532
L6824 8532
L6847 8543
L6858 8554
L6869 8577
L6881 8622
L6881 8678
L6869 8723
L6858 8745
L6847 8757
L6824 8768
L6802 8768
L6779 8757
L6768 8745
L6757 8723
L6746 8678
L6746 8622
L6757 8577
L6768 8554
L6779 8543
L6802 8532
" />
<path d="M6982 8745
L6993 8757
L6982 8768
L6971 8757
L6982 8745
L6982 8768
" />
<path d="M7218 8768
L7083 8768
" />
<path d="M7150 8768
L7150 8532
L7128 8565
L7105 8588
L7083 8599
" />
<path d="M7420 8610
L7420 8768
" />
<path d="M7319 8610
L7319 8734
L7330 8757
L7353 8768
L7387 8768
L7409 8757
L7420 8745
" />
<path d="M7612 8644
L7533 8644
" />
<path d="M7533 8768
L7533 8532
L7645 8532
" />
<path d="M9226 12888
L9226 12865
L9237 12843
L9248 12831
L9271 12820
L9316 12809
L9372 12809
L9417 12820
L9440 12831
L9451 12843
L9462 12865
L9462 12888
L9451 12910
L9440 12921
L9417 12933
L9372 12944
L9316 12944
L9271 12933
L9248 12921
L9237 12910
L9226 12888
" />
<path d="M9440 12708
L9451 12696
L9462 12708
L9451 12719
L9440 12708
L9462 12708
" />
<path d="M9462 12471
L9462 12606
" />
<path d="M9462 12539
L9226 12539
L9260 12561
L9282 12584
L9293 12606
" />
<path d="M9305 12269
L9462 12269
" />
<path d="M9305 12370
L9428 12370
L9451 12359
L9462 12336
L9462 12303
L9451 12280
L9440 12269
" />
<path d="M9338 12078
L9338 12156
" />
<path d="M9462 12156
L9226 12156
L9226 12044
" />
<path d="M9324 14955
L9324 14932
L9336 14910
L9347 14898
L9369 14887
L9414 14876
L9471 14876
L9516 14887
L9538 14898
L9549 14910
L9560 14932
L9560 14955
L9549 14977
L9538 14988
L9516 15000
L9471 15011
L9414 15011
L9369 15000
L9347 14988
L9336 14977
L9324 14955
" />
<path d="M9538 14775
L9549 14763
L9560 14775
L9549 14786
L9538 14775
L9560 14775
" />
<path d="M9560 14538
L9560 14673
" />
<path d="M9560 14606
L9324 14606
L9358 14628
L9381 14651
L9392 14673
" />
<path d="M9403 14336
L9560 14336
" />
<path d="M9403 14437
L9527 14437
L9549 14426
L9560 14403
L9560 14370
L9549 14347
L9538 14336
" />
<path d="M9437 14145
L9437 14223
" />
<path d="M9560 14223
L9324 14223
L9324 14111
" />
<path d="M8278 17291
L8301 17291
L8323 17303
L8334 17314
L8346 17336
L8357 17381
L8357 17438
L8346 17483
L8334 17505
L8323 17516
L8301 17528
L8278 17528
L8256 17516
L8244 17505
L8233 17483
L8222 17438
L8222 17381
L8233 17336
L8244 17314
L8256 17303
L8278 17291
" />
<path d="M8458 17505
L8469 17516
L8458 17528
L8447 17516
L8458 17505
L8458 17528
" />
<path d="M8694 17528
L8559 17528
" />
<path d="M8627 17528
L8627 17291
L8604 17325
L8582 17348
L8559 17359
" />
<path d="M8897 17370
L8897 17528
" />
<path d="M8796 17370
L8796 17494
L8807 17516
L8829 17528
L8863 17528
L8886 17516
L8897 17505
" />
<path d="M9088 17404
L9009 17404
" />
<path d="M9009 17528
L9009 17291
L9122 17291
" />
<path d="M8329 5815
L8194 5815
" />
<path d="M8261 5815
L8261 5579
L8239 5613
L8216 5635
L8194 5646
" />
<path d="M8531 5658
L8531 5815
" />
<path d="M8430 5658
L8430 5781
L8441 5804
L8464 5815
L8498 5815
L8520 5804
L8531 5793
" />
<path d="M8722 5691
L8644 5691
" />
<path d="M8644 5815
L8644 5579
L8756 5579
" />
</g>
<g style="fill:#C1C100; fill-opacity:0.0; 
stroke:#C1C100; stroke-width:19.685; stroke-opacity:1; 
stroke-linecap:round; stroke-linejoin:round;">
<path d="M8009 10744
L8454 10744
" />
<path d="M8454 10744
L8454 11185
" />
<path d="M8009 11185
L8454 11185
" />
<path d="M8009 11185
L8009 10744
" />
<circle cx="8174.61" cy="10826.8" r="1771.65" /> 
<circle cx="8174.61" cy="10826.8" r="984.252" /> 
<circle cx="11127.4" cy="10826.8" r="1673.23" /> 
<circle cx="5221.85" cy="10826.8" r="1673.23" /> 
<circle cx="5123.43" cy="24409.4" r="1673.23" /> 
<circle cx="11225.8" cy="24409.4" r="1673.23" /> 
</g> 
</svg>
