<?xml version="1.0" standalone="no"?>
 <!DOCTYPE svg PUBLIC "-//W3C//DTD SVG 1.1//EN" 
 "http://www.w3.org/Graphics/SVG/1.1/DTD/svg11.dtd"> 
<svg xmlns="http://www.w3.org/2000/svg" version="1.1" 
    width="3.57632cm" height="6.9977cm" viewBox="0 0 14080 27550 ">
<title>SVG Picture created as VacuBot-B_Fab.svg date 2015/04/12 11:41:17 </title>
  <desc>Picture generated by PCBNEW </desc>
<g style="fill:#000000; fill-opacity:1;stroke:#000000; stroke-opacity:1;
stroke-linecap:round; stroke-linejoin:round; "
 transform="translate(0 0) scale(1 1)">
</g>
<g style="fill:#840000; fill-opacity:0.0; 
stroke:#840000; stroke-width:50; stroke-opacity:1; 
stroke-linecap:round; stroke-linejoin:round;">
<path d="M12342 11957
L12342 11721
L12263 11889
L12184 11721
L12184 11957
" />
<path d="M12094 11721
L11948 11721
L12027 11811
L11993 11811
L11971 11822
L11959 11833
L11948 11856
L11948 11912
L11959 11934
L11971 11946
L11993 11957
L12060 11957
L12083 11946
L12094 11934
" />
<path d="M6436 11957
L6436 11721
L6357 11889
L6279 11721
L6279 11957
" />
<path d="M6189 11721
L6042 11721
L6121 11811
L6087 11811
L6065 11822
L6054 11833
L6042 11856
L6042 11912
L6054 11934
L6065 11946
L6087 11957
L6155 11957
L6177 11946
L6189 11934
" />
<path d="M6338 25539
L6338 25303
L6259 25472
L6180 25303
L6180 25539
" />
<path d="M6090 25303
L5944 25303
L6023 25393
L5989 25393
L5967 25404
L5955 25416
L5944 25438
L5944 25494
L5955 25517
L5967 25528
L5989 25539
L6057 25539
L6079 25528
L6090 25517
" />
<path d="M12440 25539
L12440 25303
L12361 25472
L12283 25303
L12283 25539
" />
<path d="M12193 25303
L12046 25303
L12125 25393
L12091 25393
L12069 25404
L12058 25416
L12046 25438
L12046 25494
L12058 25517
L12069 25528
L12091 25539
L12159 25539
L12181 25528
L12193 25517
" />
</g> 
</svg>
