<?xml version="1.0" standalone="no"?>
 <!DOCTYPE svg PUBLIC "-//W3C//DTD SVG 1.1//EN" 
 "http://www.w3.org/Graphics/SVG/1.1/DTD/svg11.dtd"> 
<svg xmlns="http://www.w3.org/2000/svg" version="1.1" 
    width="3.57632cm" height="6.9977cm" viewBox="0 0 14080 27550 ">
<title>SVG Picture created as VacuBot-F_CrtYd.svg date 2015/04/12 11:41:17 </title>
  <desc>Picture generated by PCBNEW </desc>
<g style="fill:#000000; fill-opacity:1;stroke:#000000; stroke-opacity:1;
stroke-linecap:round; stroke-linejoin:round; "
 transform="translate(0 0) scale(1 1)">
</g>
<g style="fill:#848484; fill-opacity:0.0; 
stroke:#848484; stroke-width:19.685; stroke-opacity:1; 
stroke-linecap:round; stroke-linejoin:round;">
<path d="M8076 22933
L7091 22933
" />
<path d="M7091 22933
L7091 21948
" />
<path d="M7091 21948
L8076 21948
" />
<path d="M8076 21948
L8076 22933
" />
<path d="M8666 12696
L8666 13681
" />
<path d="M8666 13681
L7682 13681
" />
<path d="M7682 13681
L7682 12696
" />
<path d="M7682 12696
L8666 12696
" />
<path d="M8765 10236
L8765 11417
" />
<path d="M8765 11417
L7584 11417
" />
<path d="M7584 11417
L7584 10236
" />
<path d="M7584 10236
L8765 10236
" />
<path d="M6776 25059
L6776 24547
" />
<path d="M6776 24547
L7800 24547
" />
<path d="M7800 24547
L7800 25059
" />
<path d="M7800 25059
L6776 25059
" />
<path d="M6993 17913
L9355 17913
" />
<path d="M9355 17913
L9355 20275
" />
<path d="M9355 20275
L6993 20275
" />
<path d="M6993 20275
L6993 17913
" />
<path d="M10044 23720
L8076 23720
" />
<path d="M8076 23720
L8076 21751
" />
<path d="M8076 21751
L10044 21751
" />
<path d="M10044 21751
L10044 23720
" />
<path d="M7525 14114
L7525 16200
" />
<path d="M7525 16200
L8824 16200
" />
<path d="M8824 16200
L8824 14114
" />
<path d="M7525 14114
L8824 14114
" />
<path d="M9867 7716
L9867 8228
" />
<path d="M9867 8228
L8843 8228
" />
<path d="M8843 8228
L8843 7716
" />
<path d="M8843 7716
L9867 7716
" />
<path d="M10025 8228
L10025 7716
" />
<path d="M10025 7716
L11048 7716
" />
<path d="M11048 7716
L11048 8228
" />
<path d="M11048 8228
L10025 8228
" />
<path d="M7662 7539
L7662 7027
" />
<path d="M7662 7027
L8686 7027
" />
<path d="M8686 7027
L8686 7539
" />
<path d="M8686 7539
L7662 7539
" />
<path d="M7662 8228
L7662 7716
" />
<path d="M7662 7716
L8686 7716
" />
<path d="M8686 7716
L8686 8228
" />
<path d="M8686 8228
L7662 8228
" />
<path d="M5891 16200
L5891 15688
" />
<path d="M5891 15688
L6914 15688
" />
<path d="M6914 15688
L6914 16200
" />
<path d="M6914 16200
L5891 16200
" />
<path d="M5891 15610
L5891 15098
" />
<path d="M5891 15098
L6914 15098
" />
<path d="M6914 15098
L6914 15610
" />
<path d="M6914 15610
L5891 15610
" />
<path d="M6363 18917
L5851 18917
" />
<path d="M5851 18917
L5851 17893
" />
<path d="M5851 17893
L6363 17893
" />
<path d="M6363 17893
L6363 18917
" />
<path d="M5773 18917
L5261 18917
" />
<path d="M5261 18917
L5261 17893
" />
<path d="M5261 17893
L5773 17893
" />
<path d="M5773 17893
L5773 18917
" />
<path d="M10556 18937
L10556 19448
" />
<path d="M10556 19448
L9532 19448
" />
<path d="M9532 19448
L9532 18937
" />
<path d="M9532 18937
L10556 18937
" />
<path d="M10556 19527
L10556 20039
" />
<path d="M10556 20039
L9532 20039
" />
<path d="M9532 20039
L9532 19527
" />
<path d="M9532 19527
L10556 19527
" />
<path d="M5891 14429
L5891 13917
" />
<path d="M5891 13917
L6914 13917
" />
<path d="M6914 13917
L6914 14429
" />
<path d="M6914 14429
L5891 14429
" />
<path d="M5891 15019
L5891 14507
" />
<path d="M5891 14507
L6914 14507
" />
<path d="M6914 14507
L6914 15019
" />
<path d="M6914 15019
L5891 15019
" />
<path d="M7446 24133
L6934 24133
" />
<path d="M6934 24133
L6934 23110
" />
<path d="M6934 23110
L7446 23110
" />
<path d="M7446 23110
L7446 24133
" />
<path d="M7525 23110
L8036 23110
" />
<path d="M8036 23110
L8036 24133
" />
<path d="M8036 24133
L7525 24133
" />
<path d="M7525 24133
L7525 23110
" />
<path d="M8253 21712
L8253 21200
" />
<path d="M8253 21200
L9276 21200
" />
<path d="M9276 21200
L9276 21712
" />
<path d="M9276 21712
L8253 21712
" />
<path d="M5467 22874
L5467 21614
" />
<path d="M5467 21614
L6156 21614
" />
<path d="M6156 21614
L6156 22874
" />
<path d="M6156 22874
L5467 22874
" />
<path d="M10290 12559
L10290 13818
" />
<path d="M10290 13818
L9601 13818
" />
<path d="M9601 13818
L9601 12559
" />
<path d="M9601 12559
L10290 12559
" />
<path d="M10290 14527
L10290 15787
" />
<path d="M10290 15787
L9601 15787
" />
<path d="M9601 15787
L9601 14527
" />
<path d="M9601 14527
L10290 14527
" />
<path d="M8814 23779
L8814 25039
" />
<path d="M8814 25039
L8125 25039
" />
<path d="M8125 25039
L8125 23779
" />
<path d="M8125 23779
L8814 23779
" />
<path d="M9503 23779
L9503 25039
" />
<path d="M9503 25039
L8814 25039
" />
<path d="M8814 25039
L8814 23779
" />
<path d="M8814 23779
L9503 23779
" />
<path d="M8312 17076
L7052 17076
" />
<path d="M7052 17076
L7052 16387
" />
<path d="M7052 16387
L8312 16387
" />
<path d="M8312 16387
L8312 17076
" />
<path d="M6343 21732
L6855 21732
" />
<path d="M6855 21732
L6855 22755
" />
<path d="M6855 22755
L6343 22755
" />
<path d="M6343 22755
L6343 21732
" />
<path d="M8686 8405
L8686 8917
" />
<path d="M8686 8917
L7662 8917
" />
<path d="M7662 8917
L7662 8405
" />
<path d="M7662 8405
L8686 8405
" />
<path d="M9414 13700
L8902 13700
" />
<path d="M8902 13700
L8902 12677
" />
<path d="M8902 12677
L9414 12677
" />
<path d="M9414 12677
L9414 13700
" />
<path d="M9414 15669
L8902 15669
" />
<path d="M8902 15669
L8902 14645
" />
<path d="M8902 14645
L9414 14645
" />
<path d="M9414 14645
L9414 15669
" />
<path d="M7170 17677
L7170 17165
" />
<path d="M7170 17165
L8194 17165
" />
<path d="M8194 17165
L8194 17677
" />
<path d="M8194 17677
L7170 17677
" />
<path d="M6973 5964
L6973 5452
" />
<path d="M6973 5452
L7997 5452
" />
<path d="M7997 5452
L7997 5964
" />
<path d="M7997 5964
L6973 5964
" />
</g> 
</svg>
