<?xml version="1.0" standalone="no"?>
 <!DOCTYPE svg PUBLIC "-//W3C//DTD SVG 1.1//EN" 
 "http://www.w3.org/Graphics/SVG/1.1/DTD/svg11.dtd"> 
<svg xmlns="http://www.w3.org/2000/svg" version="1.1" 
    width="3.57632cm" height="6.9977cm" viewBox="0 0 14080 27550 ">
<title>SVG Picture created as VacuBot-F_Mask.svg date 2015/04/12 11:41:17 </title>
  <desc>Picture generated by PCBNEW </desc>
<g style="fill:#000000; fill-opacity:1;stroke:#000000; stroke-opacity:1;
stroke-linecap:round; stroke-linejoin:round; "
 transform="translate(0 0) scale(1 1)">
</g>
<g style="fill:#840000; fill-opacity:0.0; 
stroke:#840000; stroke-width:49.2126; stroke-opacity:1; 
stroke-linecap:round; stroke-linejoin:round;">
</g>
<g style="fill:#840000; fill-opacity:1.0; 
stroke:#840000; stroke-width:49.2126; stroke-opacity:1; 
stroke-linecap:round; stroke-linejoin:round;">
<polyline style="fill-rule:evenodd;"
points="7092,22097
7307,22097
7307,22193
7092,22193
7092,22097
" /> 
<polyline style="fill-rule:evenodd;"
points="7092,22294
7307,22294
7307,22390
7092,22390
7092,22294
" /> 
<polyline style="fill-rule:evenodd;"
points="7092,22491
7307,22491
7307,22587
7092,22587
7092,22491
" /> 
<polyline style="fill-rule:evenodd;"
points="7092,22687
7307,22687
7307,22784
7092,22784
7092,22687
" /> 
<polyline style="fill-rule:evenodd;"
points="7860,22687
8075,22687
8075,22784
7860,22784
7860,22687
" /> 
<polyline style="fill-rule:evenodd;"
points="7860,22491
8075,22491
8075,22587
7860,22587
7860,22491
" /> 
<polyline style="fill-rule:evenodd;"
points="7860,22294
8075,22294
8075,22390
7860,22390
7860,22294
" /> 
<polyline style="fill-rule:evenodd;"
points="7860,22097
8075,22097
8075,22193
7860,22193
7860,22097
" /> 
<polyline style="fill-rule:evenodd;"
points="7407,22126
7760,22126
7760,22754
7407,22754
7407,22126
" /> 
<polyline style="fill-rule:evenodd;"
points="7687,12937
7687,12849
7923,12849
7923,12937
7687,12937
" /> 
<polyline style="fill-rule:evenodd;"
points="7687,13134
7687,13046
7923,13046
7923,13134
7687,13134
" /> 
<polyline style="fill-rule:evenodd;"
points="7687,13331
7687,13243
7923,13243
7923,13331
7687,13331
" /> 
<polyline style="fill-rule:evenodd;"
points="7687,13528
7687,13439
7923,13439
7923,13528
7687,13528
" /> 
<polyline style="fill-rule:evenodd;"
points="8425,13528
8425,13439
8661,13439
8661,13528
8425,13528
" /> 
<polyline style="fill-rule:evenodd;"
points="8425,13331
8425,13243
8661,13243
8661,13331
8425,13331
" /> 
<polyline style="fill-rule:evenodd;"
points="8425,13134
8425,13046
8661,13046
8661,13134
8425,13134
" /> 
<polyline style="fill-rule:evenodd;"
points="8425,12937
8425,12849
8661,12849
8661,12937
8425,12937
" /> 
<polyline style="fill-rule:evenodd;"
points="8317,12937
8228,12937
8228,12701
8317,12701
8317,12937
" /> 
<polyline style="fill-rule:evenodd;"
points="8120,12937
8031,12937
8031,12701
8120,12701
8120,12937
" /> 
<polyline style="fill-rule:evenodd;"
points="8120,13676
8031,13676
8031,13439
8120,13439
8120,13676
" /> 
<polyline style="fill-rule:evenodd;"
points="8317,13676
8228,13676
8228,13439
8317,13439
8317,13676
" /> 
<polyline style="fill-rule:evenodd;"
points="7588,10762
7588,10654
7894,10654
7894,10762
7588,10762
" /> 
<polyline style="fill-rule:evenodd;"
points="7588,10999
7588,10890
7894,10890
7894,10999
7588,10999
" /> 
<polyline style="fill-rule:evenodd;"
points="8455,10999
8455,10890
8760,10890
8760,10999
8455,10999
" /> 
<polyline style="fill-rule:evenodd;"
points="8455,10762
8455,10654
8760,10654
8760,10762
8455,10762
" /> 
<polyline style="fill-rule:evenodd;"
points="7992,11412
7884,11412
7884,11107
7992,11107
7992,11412
" /> 
<polyline style="fill-rule:evenodd;"
points="8228,11412
8120,11412
8120,11107
8228,11107
8228,11412
" /> 
<polyline style="fill-rule:evenodd;"
points="8464,11412
8356,11412
8356,11107
8464,11107
8464,11412
" /> 
<polyline style="fill-rule:evenodd;"
points="8464,10546
8356,10546
8356,10241
8464,10241
8464,10546
" /> 
<polyline style="fill-rule:evenodd;"
points="8228,10546
8120,10546
8120,10241
8228,10241
8228,10546
" /> 
<polyline style="fill-rule:evenodd;"
points="7992,10546
7884,10546
7884,10241
7992,10241
7992,10546
" /> 
<polyline style="fill-rule:evenodd;"
points="7697,24640
7697,24965
7451,24965
7451,24640
7697,24640
" /> 
<polyline style="fill-rule:evenodd;"
points="7126,24640
7126,24965
6880,24965
6880,24640
7126,24640
" /> 
</g>
<g style="fill:#840000; fill-opacity:1.0; 
stroke:#840000; stroke-width:137.795; stroke-opacity:1; 
stroke-linecap:round; stroke-linejoin:round;">
</g>
<g style="fill:#840000; fill-opacity:0.0; 
stroke:#840000; stroke-width:137.795; stroke-opacity:1; 
stroke-linecap:round; stroke-linejoin:round;">
<path d="M9011 19783
L9306 19783
" />
<path d="M9011 19586
L9306 19586
" />
<path d="M9011 19389
L9306 19389
" />
<path d="M9011 19192
L9306 19192
" />
<path d="M9011 18996
L9306 18996
" />
<path d="M9011 18799
L9306 18799
" />
<path d="M9011 18602
L9306 18602
" />
<path d="M9011 18405
L9306 18405
" />
<path d="M8863 18257
L8863 17962
" />
<path d="M8666 18257
L8666 17962
" />
<path d="M8469 18257
L8469 17962
" />
<path d="M8273 18257
L8273 17962
" />
<path d="M8076 18257
L8076 17962
" />
<path d="M7879 18257
L7879 17962
" />
<path d="M7682 18257
L7682 17962
" />
<path d="M7485 18257
L7485 17962
" />
<path d="M7042 18405
L7337 18405
" />
<path d="M7042 18602
L7337 18602
" />
<path d="M7042 18799
L7337 18799
" />
<path d="M7042 18996
L7337 18996
" />
<path d="M7042 19192
L7337 19192
" />
<path d="M7042 19389
L7337 19389
" />
<path d="M7042 19586
L7337 19586
" />
<path d="M7042 19783
L7337 19783
" />
<path d="M7485 20226
L7485 19931
" />
<path d="M7682 20226
L7682 19931
" />
<path d="M7879 20226
L7879 19931
" />
<path d="M8076 20226
L8076 19931
" />
<path d="M8273 20226
L8273 19931
" />
<path d="M8469 20226
L8469 19931
" />
<path d="M8666 20226
L8666 19931
" />
<path d="M8863 20226
L8863 19931
" />
</g>
<g style="fill:#840000; fill-opacity:0.0; 
stroke:#840000; stroke-width:49.2126; stroke-opacity:1; 
stroke-linecap:round; stroke-linejoin:round;">
</g>
<g style="fill:#840000; fill-opacity:1.0; 
stroke:#840000; stroke-width:49.2126; stroke-opacity:1; 
stroke-linecap:round; stroke-linejoin:round;">
<polyline style="fill-rule:evenodd;"
points="8878,19798
7470,19798
7470,18390
8878,18390
8878,19798
" /> 
<polyline style="fill-rule:evenodd;"
points="8327,21943
9793,21943
9793,22426
8327,22426
8327,21943
" /> 
<polyline style="fill-rule:evenodd;"
points="8327,23046
9793,23046
9793,23528
8327,23528
8327,23046
" /> 
</g>
<g style="fill:#840000; fill-opacity:1.0; 
stroke:#840000; stroke-width:551.181; stroke-opacity:1; 
stroke-linecap:round; stroke-linejoin:round;">
</g>
<g style="fill:#840000; fill-opacity:0.0; 
stroke:#840000; stroke-width:551.181; stroke-opacity:1; 
stroke-linecap:round; stroke-linejoin:round;">
<path d="M4788 17519
L4513 17519
" />
<path d="M4788 18110
L4513 18110
" />
<path d="M4788 18700
L4513 18700
" />
<path d="M4788 19291
L4513 19291
" />
<path d="M4788 19881
L4513 19881
" />
<path d="M4788 20472
L4513 20472
" />
<path d="M4788 21062
L4513 21062
" />
<path d="M4788 21653
L4513 21653
" />
<path d="M4788 22244
L4513 22244
" />
<path d="M11560 18503
L11836 18503
" />
<path d="M11560 17913
L11836 17913
" />
<path d="M11560 17322
L11836 17322
" />
<path d="M11560 16732
L11836 16732
" />
<path d="M11560 16141
L11836 16141
" />
<path d="M4788 13582
L4513 13582
" />
<path d="M4788 14173
L4513 14173
" />
<path d="M4788 14763
L4513 14763
" />
<path d="M4788 15354
L4513 15354
" />
<path d="M4788 15944
L4513 15944
" />
<path d="M11560 22244
L11836 22244
" />
<path d="M11560 21653
L11836 21653
" />
<path d="M11560 21062
L11836 21062
" />
<path d="M11560 20472
L11836 20472
" />
<path d="M11560 6594
L11836 6594
" />
<path d="M11560 6003
L11836 6003
" />
<path d="M11560 5413
L11836 5413
" />
<path d="M11560 4822
L11836 4822
" />
</g>
<g style="fill:#840000; fill-opacity:0.0; 
stroke:#840000; stroke-width:314.961; stroke-opacity:1; 
stroke-linecap:round; stroke-linejoin:round;">
<path d="M9552 4921
L9788 4921
" />
<path d="M10497 4547
L10733 4547
" />
<path d="M10497 5295
L10733 5295
" />
<path d="M9552 6397
L9788 6397
" />
<path d="M10497 6023
L10733 6023
" />
<path d="M10497 6771
L10733 6771
" />
</g>
<g style="fill:#840000; fill-opacity:0.0; 
stroke:#840000; stroke-width:49.2126; stroke-opacity:1; 
stroke-linecap:round; stroke-linejoin:round;">
</g>
<g style="fill:#840000; fill-opacity:1.0; 
stroke:#840000; stroke-width:49.2126; stroke-opacity:1; 
stroke-linecap:round; stroke-linejoin:round;">
<polyline style="fill-rule:evenodd;"
points="7667,14522
7667,14315
7894,14315
7894,14522
7667,14522
" /> 
<polyline style="fill-rule:evenodd;"
points="7667,14817
7667,14611
7894,14611
7894,14817
7667,14817
" /> 
<polyline style="fill-rule:evenodd;"
points="7667,15113
7667,14906
7894,14906
7894,15113
7667,15113
" /> 
<polyline style="fill-rule:evenodd;"
points="7667,15408
7667,15201
7894,15201
7894,15408
7667,15408
" /> 
<polyline style="fill-rule:evenodd;"
points="7667,15703
7667,15497
7894,15497
7894,15703
7667,15703
" /> 
<polyline style="fill-rule:evenodd;"
points="7667,15999
7667,15792
7894,15792
7894,15999
7667,15999
" /> 
<polyline style="fill-rule:evenodd;"
points="8455,15999
8455,15792
8681,15792
8681,15999
8455,15999
" /> 
<polyline style="fill-rule:evenodd;"
points="8455,15703
8455,15497
8681,15497
8681,15703
8455,15703
" /> 
<polyline style="fill-rule:evenodd;"
points="8455,15408
8455,15201
8681,15201
8681,15408
8455,15408
" /> 
<polyline style="fill-rule:evenodd;"
points="8455,15113
8455,14906
8681,14906
8681,15113
8455,15113
" /> 
<polyline style="fill-rule:evenodd;"
points="8455,14817
8455,14611
8681,14611
8681,14817
8455,14817
" /> 
<polyline style="fill-rule:evenodd;"
points="8455,14522
8455,14315
8681,14315
8681,14522
8455,14522
" /> 
<polyline style="fill-rule:evenodd;"
points="8223,5339
8960,5339
8960,6077
8223,6077
8223,5339
" /> 
<circle cx="5591.93" cy="5708.66" r="368.894" /> 
<circle cx="11127.4" cy="10826.8" r="703.78" /> 
<circle cx="5221.85" cy="10826.8" r="703.78" /> 
<circle cx="5123.43" cy="24409.4" r="703.78" /> 
<circle cx="11225.8" cy="24409.4" r="703.78" /> 
<polyline style="fill-rule:evenodd;"
points="8947,8134
8947,7810
9193,7810
9193,8134
8947,8134
" /> 
<polyline style="fill-rule:evenodd;"
points="9518,8134
9518,7810
9764,7810
9764,8134
9518,8134
" /> 
<polyline style="fill-rule:evenodd;"
points="10945,7810
10945,8134
10699,8134
10699,7810
10945,7810
" /> 
<polyline style="fill-rule:evenodd;"
points="10374,7810
10374,8134
10128,8134
10128,7810
10374,7810
" /> 
<polyline style="fill-rule:evenodd;"
points="8583,7121
8583,7445
8337,7445
8337,7121
8583,7121
" /> 
<polyline style="fill-rule:evenodd;"
points="8012,7121
8012,7445
7766,7445
7766,7121
8012,7121
" /> 
<polyline style="fill-rule:evenodd;"
points="8583,7810
8583,8134
8337,8134
8337,7810
8583,7810
" /> 
<polyline style="fill-rule:evenodd;"
points="8012,7810
8012,8134
7766,8134
7766,7810
8012,7810
" /> 
<polyline style="fill-rule:evenodd;"
points="6811,15782
6811,16107
6565,16107
6565,15782
6811,15782
" /> 
<polyline style="fill-rule:evenodd;"
points="6240,15782
6240,16107
5994,16107
5994,15782
6240,15782
" /> 
<polyline style="fill-rule:evenodd;"
points="6811,15191
6811,15516
6565,15516
6565,15191
6811,15191
" /> 
<polyline style="fill-rule:evenodd;"
points="6240,15191
6240,15516
5994,15516
5994,15191
6240,15191
" /> 
<polyline style="fill-rule:evenodd;"
points="5945,17997
6270,17997
6270,18243
5945,18243
5945,17997
" /> 
<polyline style="fill-rule:evenodd;"
points="5945,18567
6270,18567
6270,18813
5945,18813
5945,18567
" /> 
<polyline style="fill-rule:evenodd;"
points="5354,17997
5679,17997
5679,18243
5354,18243
5354,17997
" /> 
<polyline style="fill-rule:evenodd;"
points="5354,18567
5679,18567
5679,18813
5354,18813
5354,18567
" /> 
<polyline style="fill-rule:evenodd;"
points="9636,19355
9636,19030
9882,19030
9882,19355
9636,19355
" /> 
<polyline style="fill-rule:evenodd;"
points="10207,19355
10207,19030
10453,19030
10453,19355
10207,19355
" /> 
<polyline style="fill-rule:evenodd;"
points="9636,19945
9636,19621
9882,19621
9882,19945
9636,19945
" /> 
<polyline style="fill-rule:evenodd;"
points="10207,19945
10207,19621
10453,19621
10453,19945
10207,19945
" /> 
<polyline style="fill-rule:evenodd;"
points="6811,14010
6811,14335
6565,14335
6565,14010
6811,14010
" /> 
<polyline style="fill-rule:evenodd;"
points="6240,14010
6240,14335
5994,14335
5994,14010
6240,14010
" /> 
<polyline style="fill-rule:evenodd;"
points="6811,14601
6811,14926
6565,14926
6565,14601
6811,14601
" /> 
<polyline style="fill-rule:evenodd;"
points="6240,14601
6240,14926
5994,14926
5994,14601
6240,14601
" /> 
<polyline style="fill-rule:evenodd;"
points="7027,23213
7352,23213
7352,23459
7027,23459
7027,23213
" /> 
<polyline style="fill-rule:evenodd;"
points="7027,23784
7352,23784
7352,24030
7027,24030
7027,23784
" /> 
<polyline style="fill-rule:evenodd;"
points="7943,24030
7618,24030
7618,23784
7943,23784
7943,24030
" /> 
<polyline style="fill-rule:evenodd;"
points="7943,23459
7618,23459
7618,23213
7943,23213
7943,23459
" /> 
<polyline style="fill-rule:evenodd;"
points="9173,21294
9173,21619
8927,21619
8927,21294
9173,21294
" /> 
<polyline style="fill-rule:evenodd;"
points="8602,21294
8602,21619
8356,21619
8356,21294
8602,21294
" /> 
<polyline style="fill-rule:evenodd;"
points="6053,22770
5571,22770
5571,22445
6053,22445
6053,22770
" /> 
<polyline style="fill-rule:evenodd;"
points="6053,22042
5571,22042
5571,21717
6053,21717
6053,22042
" /> 
<polyline style="fill-rule:evenodd;"
points="9705,12662
10187,12662
10187,12987
9705,12987
9705,12662
" /> 
<polyline style="fill-rule:evenodd;"
points="9705,13390
10187,13390
10187,13715
9705,13715
9705,13390
" /> 
<polyline style="fill-rule:evenodd;"
points="9705,14630
10187,14630
10187,14955
9705,14955
9705,14630
" /> 
<polyline style="fill-rule:evenodd;"
points="9705,15359
10187,15359
10187,15684
9705,15684
9705,15359
" /> 
<polyline style="fill-rule:evenodd;"
points="8228,23882
8711,23882
8711,24207
8228,24207
8228,23882
" /> 
<polyline style="fill-rule:evenodd;"
points="8228,24611
8711,24611
8711,24936
8228,24936
8228,24611
" /> 
<polyline style="fill-rule:evenodd;"
points="8917,23882
9400,23882
9400,24207
8917,24207
8917,23882
" /> 
<polyline style="fill-rule:evenodd;"
points="8917,24611
9400,24611
9400,24936
8917,24936
8917,24611
" /> 
<polyline style="fill-rule:evenodd;"
points="8209,16491
8209,16973
7884,16973
7884,16491
8209,16491
" /> 
<polyline style="fill-rule:evenodd;"
points="7480,16491
7480,16973
7155,16973
7155,16491
7480,16491
" /> 
<polyline style="fill-rule:evenodd;"
points="6762,22652
6437,22652
6437,22406
6762,22406
6762,22652
" /> 
<polyline style="fill-rule:evenodd;"
points="6762,22081
6437,22081
6437,21835
6762,21835
6762,22081
" /> 
<polyline style="fill-rule:evenodd;"
points="7766,8823
7766,8499
8012,8499
8012,8823
7766,8823
" /> 
<polyline style="fill-rule:evenodd;"
points="8337,8823
8337,8499
8583,8499
8583,8823
8337,8823
" /> 
<polyline style="fill-rule:evenodd;"
points="8996,12780
9321,12780
9321,13026
8996,13026
8996,12780
" /> 
<polyline style="fill-rule:evenodd;"
points="8996,13351
9321,13351
9321,13597
8996,13597
8996,13351
" /> 
<polyline style="fill-rule:evenodd;"
points="8996,14749
9321,14749
9321,14995
8996,14995
8996,14749
" /> 
<polyline style="fill-rule:evenodd;"
points="8996,15319
9321,15319
9321,15565
8996,15565
8996,15319
" /> 
<polyline style="fill-rule:evenodd;"
points="8090,17258
8090,17583
7844,17583
7844,17258
8090,17258
" /> 
<polyline style="fill-rule:evenodd;"
points="7520,17258
7520,17583
7274,17583
7274,17258
7520,17258
" /> 
<polyline style="fill-rule:evenodd;"
points="7894,5546
7894,5871
7648,5871
7648,5546
7894,5546
" /> 
<polyline style="fill-rule:evenodd;"
points="7323,5546
7323,5871
7077,5871
7077,5546
7323,5546
" /> 
</g> 
</svg>
