<?xml version="1.0" standalone="no"?>
 <!DOCTYPE svg PUBLIC "-//W3C//DTD SVG 1.1//EN" 
 "http://www.w3.org/Graphics/SVG/1.1/DTD/svg11.dtd"> 
<svg xmlns="http://www.w3.org/2000/svg" version="1.1" 
    width="3.57632cm" height="6.9977cm" viewBox="0 0 14080 27550 ">
<title>SVG Picture created as VacuBot-F_SilkS.svg date 2015/04/12 11:41:17 </title>
  <desc>Picture generated by PCBNEW </desc>
<g style="fill:#000000; fill-opacity:1;stroke:#000000; stroke-opacity:1;
stroke-linecap:round; stroke-linejoin:round; "
 transform="translate(0 0) scale(1 1)">
</g>
<g style="fill:#C1C100; fill-opacity:0.0; 
stroke:#C1C100; stroke-width:50; stroke-opacity:1; 
stroke-linecap:round; stroke-linejoin:round;">
<path d="M7297 21878
L7297 21642
L7387 21642
L7409 21653
L7420 21664
L7432 21687
L7432 21721
L7420 21743
L7409 21754
L7387 21766
L7297 21766
" />
<path d="M7522 21867
L7555 21878
L7612 21878
L7634 21867
L7645 21856
L7657 21833
L7657 21811
L7645 21788
L7634 21777
L7612 21766
L7567 21754
L7544 21743
L7533 21732
L7522 21709
L7522 21687
L7533 21664
L7544 21653
L7567 21642
L7623 21642
L7657 21653
" />
<path d="M7882 21878
L7747 21878
" />
<path d="M7814 21878
L7814 21642
L7792 21676
L7769 21698
L7747 21709
" />
<path d="M7994 12370
L7994 12561
L8005 12584
L8017 12595
L8039 12606
L8084 12606
L8107 12595
L8118 12584
L8129 12561
L8129 12370
" />
<path d="M8219 12370
L8365 12370
L8287 12460
L8320 12460
L8343 12471
L8354 12483
L8365 12505
L8365 12561
L8354 12584
L8343 12595
L8320 12606
L8253 12606
L8230 12595
L8219 12584
" />
<path d="M7994 9929
L7994 10120
L8005 10143
L8017 10154
L8039 10165
L8084 10165
L8107 10154
L8118 10143
L8129 10120
L8129 9929
" />
<path d="M8230 9952
L8242 9940
L8264 9929
L8320 9929
L8343 9940
L8354 9952
L8365 9974
L8365 9997
L8354 10030
L8219 10165
L8365 10165
" />
</g>
<g style="fill:#000084; fill-opacity:0.0; 
stroke:#000084; stroke-width:50; stroke-opacity:1; 
stroke-linecap:round; stroke-linejoin:round;">
<path d="M6304 24786
L6225 24786
" />
<path d="M6225 24910
L6225 24673
L6338 24673
" />
<path d="M6507 24786
L6540 24797
L6551 24808
L6563 24831
L6563 24865
L6551 24887
L6540 24898
L6518 24910
L6428 24910
L6428 24673
L6507 24673
L6529 24685
L6540 24696
L6551 24718
L6551 24741
L6540 24763
L6529 24775
L6507 24786
L6428 24786
" />
<path d="M6788 24910
L6653 24910
" />
<path d="M6720 24910
L6720 24673
L6698 24707
L6675 24730
L6653 24741
" />
</g>
<g style="fill:#C1C100; fill-opacity:0.0; 
stroke:#C1C100; stroke-width:50; stroke-opacity:1; 
stroke-linecap:round; stroke-linejoin:round;">
<path d="M9521 18388
L9712 18388
L9735 18377
L9746 18366
L9757 18343
L9757 18298
L9746 18276
L9735 18264
L9712 18253
L9521 18253
" />
<path d="M9600 18039
L9757 18039
" />
<path d="M9510 18096
L9679 18152
L9679 18006
" />
<path d="M10249 22775
L10249 22888
L10013 22888
" />
<path d="M10249 22573
L10249 22708
" />
<path d="M10249 22640
L10013 22640
L10047 22663
L10069 22685
L10081 22708
" />
</g>
<g style="fill:#008484; fill-opacity:0.0; 
stroke:#008484; stroke-width:50; stroke-opacity:1; 
stroke-linecap:round; stroke-linejoin:round;">
<path d="M9628 4558
L9605 4547
L9583 4524
L9549 4491
L9527 4479
L9504 4479
" />
<path d="M9516 4535
L9493 4524
L9471 4502
L9459 4457
L9459 4378
L9471 4333
L9493 4311
L9516 4299
L9560 4299
L9583 4311
L9605 4333
L9617 4378
L9617 4457
L9605 4502
L9583 4524
L9560 4535
L9516 4535
" />
<path d="M9842 4535
L9707 4535
" />
<path d="M9774 4535
L9774 4299
L9752 4333
L9729 4356
L9707 4367
" />
<path d="M9628 6034
L9605 6023
L9583 6001
L9549 5967
L9527 5956
L9504 5956
" />
<path d="M9516 6012
L9493 6001
L9471 5978
L9459 5933
L9459 5854
L9471 5809
L9493 5787
L9516 5776
L9560 5776
L9583 5787
L9605 5809
L9617 5854
L9617 5933
L9605 5978
L9583 6001
L9560 6012
L9516 6012
" />
<path d="M9707 5798
L9718 5787
L9740 5776
L9797 5776
L9819 5787
L9830 5798
L9842 5821
L9842 5843
L9830 5877
L9695 6012
L9842 6012
" />
</g>
<g style="fill:#C1C100; fill-opacity:0.0; 
stroke:#C1C100; stroke-width:50; stroke-opacity:1; 
stroke-linecap:round; stroke-linejoin:round;">
<path d="M7994 13807
L7994 13998
L8005 14021
L8017 14032
L8039 14043
L8084 14043
L8107 14032
L8118 14021
L8129 13998
L8129 13807
" />
<path d="M8365 14043
L8230 14043
" />
<path d="M8298 14043
L8298 13807
L8275 13841
L8253 13863
L8230 13875
" />
</g>
<g style="fill:#C1C100; fill-opacity:0.0; 
stroke:#C1C100; stroke-width:49.2126; stroke-opacity:1; 
stroke-linecap:round; stroke-linejoin:round;">
<path d="M9951 8079
L9873 7966
" />
<path d="M9816 8079
L9816 7843
L9906 7843
L9929 7854
L9940 7865
L9951 7888
L9951 7921
L9940 7944
L9929 7955
L9906 7966
L9816 7966
" />
<path d="M10176 8079
L10041 8079
" />
<path d="M10109 8079
L10109 7843
L10086 7876
L10064 7899
L10041 7910
" />
<path d="M10255 7843
L10413 7843
L10311 8079
" />
<path d="M9636 8079
L9558 7966
" />
<path d="M9501 8079
L9501 7843
L9591 7843
L9614 7854
L9625 7865
L9636 7888
L9636 7921
L9625 7944
L9614 7955
L9591 7966
L9501 7966
" />
<path d="M9861 8079
L9726 8079
" />
<path d="M9794 8079
L9794 7843
L9771 7876
L9749 7899
L9726 7910
" />
<path d="M10064 7843
L10019 7843
L9996 7854
L9985 7865
L9963 7899
L9951 7944
L9951 8034
L9963 8056
L9974 8068
L9996 8079
L10041 8079
L10064 8068
L10075 8056
L10086 8034
L10086 7978
L10075 7955
L10064 7944
L10041 7933
L9996 7933
L9974 7944
L9963 7955
L9951 7978
" />
<path d="M7274 7390
L7195 7277
" />
<path d="M7139 7390
L7139 7154
L7229 7154
L7252 7165
L7263 7176
L7274 7199
L7274 7232
L7263 7255
L7252 7266
L7229 7277
L7139 7277
" />
<path d="M7499 7390
L7364 7390
" />
<path d="M7432 7390
L7432 7154
L7409 7187
L7387 7210
L7364 7221
" />
<path d="M7713 7154
L7600 7154
L7589 7266
L7600 7255
L7623 7244
L7679 7244
L7702 7255
L7713 7266
L7724 7289
L7724 7345
L7713 7367
L7702 7379
L7679 7390
L7623 7390
L7600 7379
L7589 7367
" />
<path d="M7274 8079
L7195 7966
" />
<path d="M7139 8079
L7139 7843
L7229 7843
L7252 7854
L7263 7865
L7274 7888
L7274 7921
L7263 7944
L7252 7955
L7229 7966
L7139 7966
" />
<path d="M7499 8079
L7364 8079
" />
<path d="M7432 8079
L7432 7843
L7409 7876
L7387 7899
L7364 7910
" />
<path d="M7702 7921
L7702 8079
" />
<path d="M7645 7831
L7589 8000
L7735 8000
" />
<path d="M5503 16051
L5424 15939
" />
<path d="M5368 16051
L5368 15815
L5458 15815
L5480 15826
L5491 15838
L5503 15860
L5503 15894
L5491 15916
L5480 15928
L5458 15939
L5368 15939
" />
<path d="M5728 16051
L5593 16051
" />
<path d="M5660 16051
L5660 15815
L5638 15849
L5615 15871
L5593 15883
" />
<path d="M5806 15815
L5953 15815
L5874 15905
L5908 15905
L5930 15916
L5941 15928
L5953 15950
L5953 16006
L5941 16029
L5930 16040
L5908 16051
L5840 16051
L5818 16040
L5806 16029
" />
<path d="M5503 15461
L5424 15348
" />
<path d="M5368 15461
L5368 15224
L5458 15224
L5480 15236
L5491 15247
L5503 15269
L5503 15303
L5491 15326
L5480 15337
L5458 15348
L5368 15348
" />
<path d="M5728 15461
L5593 15461
" />
<path d="M5660 15461
L5660 15224
L5638 15258
L5615 15281
L5593 15292
" />
<path d="M5818 15247
L5829 15236
L5851 15224
L5908 15224
L5930 15236
L5941 15247
L5953 15269
L5953 15292
L5941 15326
L5806 15461
L5953 15461
" />
<path d="M6214 19305
L6102 19384
" />
<path d="M6214 19440
L5978 19440
L5978 19350
L5989 19327
L6000 19316
L6023 19305
L6057 19305
L6079 19316
L6090 19327
L6102 19350
L6102 19440
" />
<path d="M6214 19080
L6214 19215
" />
<path d="M6214 19147
L5978 19147
L6012 19170
L6034 19192
L6045 19215
" />
<path d="M6214 18855
L6214 18990
" />
<path d="M6214 18922
L5978 18922
L6012 18945
L6034 18967
L6045 18990
" />
<path d="M5623 19305
L5511 19384
" />
<path d="M5623 19440
L5387 19440
L5387 19350
L5399 19327
L5410 19316
L5432 19305
L5466 19305
L5489 19316
L5500 19327
L5511 19350
L5511 19440
" />
<path d="M5623 19080
L5623 19215
" />
<path d="M5623 19147
L5387 19147
L5421 19170
L5444 19192
L5455 19215
" />
<path d="M5387 18934
L5387 18911
L5399 18889
L5410 18877
L5432 18866
L5477 18855
L5533 18855
L5578 18866
L5601 18877
L5612 18889
L5623 18911
L5623 18934
L5612 18956
L5601 18967
L5578 18979
L5533 18990
L5477 18990
L5432 18979
L5410 18967
L5399 18956
L5387 18934
" />
<path d="M10300 18807
L10221 18695
" />
<path d="M10165 18807
L10165 18571
L10255 18571
L10278 18582
L10289 18593
L10300 18616
L10300 18650
L10289 18672
L10278 18683
L10255 18695
L10165 18695
" />
<path d="M10413 18807
L10458 18807
L10480 18796
L10491 18785
L10514 18751
L10525 18706
L10525 18616
L10514 18593
L10503 18582
L10480 18571
L10435 18571
L10413 18582
L10401 18593
L10390 18616
L10390 18672
L10401 18695
L10413 18706
L10435 18717
L10480 18717
L10503 18706
L10514 18695
L10525 18672
" />
<path d="M9906 20382
L9828 20269
" />
<path d="M9771 20382
L9771 20146
L9861 20146
L9884 20157
L9895 20168
L9906 20191
L9906 20224
L9895 20247
L9884 20258
L9861 20269
L9771 20269
" />
<path d="M10041 20247
L10019 20236
L10008 20224
L9996 20202
L9996 20191
L10008 20168
L10019 20157
L10041 20146
L10086 20146
L10109 20157
L10120 20168
L10131 20191
L10131 20202
L10120 20224
L10109 20236
L10086 20247
L10041 20247
L10019 20258
L10008 20269
L9996 20292
L9996 20337
L10008 20359
L10019 20371
L10041 20382
L10086 20382
L10109 20371
L10120 20359
L10131 20337
L10131 20292
L10120 20269
L10109 20258
L10086 20247
" />
<path d="M5615 14280
L5536 14167
" />
<path d="M5480 14280
L5480 14043
L5570 14043
L5593 14055
L5604 14066
L5615 14088
L5615 14122
L5604 14145
L5593 14156
L5570 14167
L5480 14167
" />
<path d="M5829 14043
L5716 14043
L5705 14156
L5716 14145
L5739 14133
L5795 14133
L5818 14145
L5829 14156
L5840 14178
L5840 14235
L5829 14257
L5818 14268
L5795 14280
L5739 14280
L5716 14268
L5705 14257
" />
<path d="M5615 14870
L5536 14758
" />
<path d="M5480 14870
L5480 14634
L5570 14634
L5593 14645
L5604 14656
L5615 14679
L5615 14713
L5604 14735
L5593 14746
L5570 14758
L5480 14758
" />
<path d="M5818 14713
L5818 14870
" />
<path d="M5761 14623
L5705 14791
L5851 14791
" />
<path d="M7297 24409
L7184 24488
" />
<path d="M7297 24544
L7060 24544
L7060 24454
L7072 24431
L7083 24420
L7105 24409
L7139 24409
L7162 24420
L7173 24431
L7184 24454
L7184 24544
" />
<path d="M7060 24330
L7060 24184
L7150 24263
L7150 24229
L7162 24206
L7173 24195
L7195 24184
L7252 24184
L7274 24195
L7285 24206
L7297 24229
L7297 24296
L7285 24319
L7274 24330
" />
<path d="M7887 22913
L7775 22992
" />
<path d="M7887 23048
L7651 23048
L7651 22958
L7662 22935
L7674 22924
L7696 22913
L7730 22913
L7752 22924
L7764 22935
L7775 22958
L7775 23048
" />
<path d="M7674 22823
L7662 22812
L7651 22789
L7651 22733
L7662 22710
L7674 22699
L7696 22688
L7719 22688
L7752 22699
L7887 22834
L7887 22688
" />
<path d="M7977 21563
L7899 21451
" />
<path d="M7842 21563
L7842 21327
L7932 21327
L7955 21338
L7966 21349
L7977 21372
L7977 21406
L7966 21428
L7955 21439
L7932 21451
L7842 21451
" />
<path d="M8202 21563
L8067 21563
" />
<path d="M8135 21563
L8135 21327
L8112 21361
L8090 21383
L8067 21394
" />
<path d="M5896 21338
L5908 21349
L5919 21383
L5919 21406
L5908 21439
L5885 21462
L5863 21473
L5818 21484
L5784 21484
L5739 21473
L5716 21462
L5694 21439
L5683 21406
L5683 21383
L5694 21349
L5705 21338
" />
<path d="M5919 21113
L5919 21248
" />
<path d="M5919 21181
L5683 21181
L5716 21203
L5739 21226
L5750 21248
" />
<path d="M10030 14173
L10041 14184
L10053 14218
L10053 14240
L10041 14274
L10019 14296
L9996 14308
L9951 14319
L9918 14319
L9873 14308
L9850 14296
L9828 14274
L9816 14240
L9816 14218
L9828 14184
L9839 14173
" />
<path d="M9816 14094
L9816 13948
L9906 14026
L9906 13993
L9918 13970
L9929 13959
L9951 13948
L10008 13948
L10030 13959
L10041 13970
L10053 13993
L10053 14060
L10041 14083
L10030 14094
" />
<path d="M10030 16141
L10041 16152
L10053 16186
L10053 16209
L10041 16242
L10019 16265
L9996 16276
L9951 16287
L9918 16287
L9873 16276
L9850 16265
L9828 16242
L9816 16209
L9816 16186
L9828 16152
L9839 16141
" />
<path d="M9895 15939
L10053 15939
" />
<path d="M9805 15995
L9974 16051
L9974 15905
" />
<path d="M8554 25393
L8565 25404
L8576 25438
L8576 25461
L8565 25494
L8542 25517
L8520 25528
L8475 25539
L8441 25539
L8396 25528
L8374 25517
L8351 25494
L8340 25461
L8340 25438
L8351 25404
L8363 25393
" />
<path d="M8441 25258
L8430 25281
L8419 25292
L8396 25303
L8385 25303
L8363 25292
L8351 25281
L8340 25258
L8340 25213
L8351 25191
L8363 25179
L8385 25168
L8396 25168
L8419 25179
L8430 25191
L8441 25213
L8441 25258
L8453 25281
L8464 25292
L8486 25303
L8531 25303
L8554 25292
L8565 25281
L8576 25258
L8576 25213
L8565 25191
L8554 25179
L8531 25168
L8486 25168
L8464 25179
L8453 25191
L8441 25213
" />
<path d="M9243 25393
L9254 25404
L9265 25438
L9265 25461
L9254 25494
L9231 25517
L9209 25528
L9164 25539
L9130 25539
L9085 25528
L9063 25517
L9040 25494
L9029 25461
L9029 25438
L9040 25404
L9051 25393
" />
<path d="M9265 25281
L9265 25236
L9254 25213
L9243 25202
L9209 25179
L9164 25168
L9074 25168
L9051 25179
L9040 25191
L9029 25213
L9029 25258
L9040 25281
L9051 25292
L9074 25303
L9130 25303
L9153 25292
L9164 25281
L9175 25258
L9175 25213
L9164 25191
L9153 25179
L9130 25168
" />
<path d="M6585 16816
L6574 16827
L6540 16839
L6518 16839
L6484 16827
L6462 16805
L6450 16782
L6439 16737
L6439 16704
L6450 16659
L6462 16636
L6484 16614
L6518 16602
L6540 16602
L6574 16614
L6585 16625
" />
<path d="M6810 16839
L6675 16839
" />
<path d="M6743 16839
L6743 16602
L6720 16636
L6698 16659
L6675 16670
" />
<path d="M6956 16602
L6979 16602
L7001 16614
L7013 16625
L7024 16647
L7035 16692
L7035 16749
L7024 16794
L7013 16816
L7001 16827
L6979 16839
L6956 16839
L6934 16827
L6923 16816
L6911 16794
L6900 16749
L6900 16692
L6911 16647
L6923 16625
L6934 16614
L6956 16602
" />
<path d="M6684 21496
L6695 21507
L6706 21541
L6706 21563
L6695 21597
L6672 21619
L6650 21631
L6605 21642
L6571 21642
L6526 21631
L6504 21619
L6481 21597
L6470 21563
L6470 21541
L6481 21507
L6492 21496
" />
<path d="M6492 21406
L6481 21394
L6470 21372
L6470 21316
L6481 21293
L6492 21282
L6515 21271
L6537 21271
L6571 21282
L6706 21417
L6706 21271
" />
<path d="M8922 8745
L8911 8757
L8877 8768
L8855 8768
L8821 8757
L8798 8734
L8787 8712
L8776 8667
L8776 8633
L8787 8588
L8798 8565
L8821 8543
L8855 8532
L8877 8532
L8911 8543
L8922 8554
" />
<path d="M9136 8532
L9023 8532
L9012 8644
L9023 8633
L9046 8622
L9102 8622
L9125 8633
L9136 8644
L9147 8667
L9147 8723
L9136 8745
L9125 8757
L9102 8768
L9046 8768
L9023 8757
L9012 8745
" />
<path d="M9243 14015
L9254 14026
L9265 14060
L9265 14083
L9254 14116
L9231 14139
L9209 14150
L9164 14161
L9130 14161
L9085 14150
L9063 14139
L9040 14116
L9029 14083
L9029 14060
L9040 14026
L9051 14015
" />
<path d="M9029 13813
L9029 13858
L9040 13880
L9051 13892
L9085 13914
L9130 13925
L9220 13925
L9243 13914
L9254 13903
L9265 13880
L9265 13835
L9254 13813
L9243 13802
L9220 13790
L9164 13790
L9141 13802
L9130 13813
L9119 13835
L9119 13880
L9130 13903
L9141 13914
L9164 13925
" />
<path d="M9243 15984
L9254 15995
L9265 16029
L9265 16051
L9254 16085
L9231 16107
L9209 16119
L9164 16130
L9130 16130
L9085 16119
L9063 16107
L9040 16085
L9029 16051
L9029 16029
L9040 15995
L9051 15984
" />
<path d="M9029 15905
L9029 15748
L9265 15849
" />
<path d="M6743 17505
L6731 17516
L6698 17528
L6675 17528
L6641 17516
L6619 17494
L6608 17471
L6596 17426
L6596 17393
L6608 17348
L6619 17325
L6641 17303
L6675 17291
L6698 17291
L6731 17303
L6743 17314
" />
<path d="M6968 17528
L6833 17528
" />
<path d="M6900 17528
L6900 17291
L6878 17325
L6855 17348
L6833 17359
" />
<path d="M7193 17528
L7058 17528
" />
<path d="M7125 17528
L7125 17291
L7103 17325
L7080 17348
L7058 17359
" />
<path d="M6546 5793
L6535 5804
L6501 5815
L6478 5815
L6445 5804
L6422 5781
L6411 5759
L6400 5714
L6400 5680
L6411 5635
L6422 5613
L6445 5590
L6478 5579
L6501 5579
L6535 5590
L6546 5601
" />
<path d="M6771 5815
L6636 5815
" />
<path d="M6703 5815
L6703 5579
L6681 5613
L6658 5635
L6636 5646
" />
<path d="M6861 5601
L6872 5590
L6895 5579
L6951 5579
L6973 5590
L6985 5601
L6996 5624
L6996 5646
L6985 5680
L6850 5815
L6996 5815
" />
</g>
<g style="fill:#008484; fill-opacity:0.0; 
stroke:#008484; stroke-width:78.7402; stroke-opacity:1; 
stroke-linecap:round; stroke-linejoin:round;">
<circle cx="6993.5" cy="22007.9" r="39.3701" /> 
</g>
<g style="fill:#008484; fill-opacity:0.0; 
stroke:#008484; stroke-width:50; stroke-opacity:1; 
stroke-linecap:round; stroke-linejoin:round;">
<path d="M7111 22047
L7111 21968
" />
<path d="M7111 21968
L7269 21968
" />
<path d="M7111 22834
L7111 22913
" />
<path d="M7111 22913
L7269 22913
" />
<path d="M8056 22834
L8056 22913
" />
<path d="M8056 22913
L7899 22913
" />
<path d="M8056 21968
L7899 21968
" />
<path d="M8056 21968
L8056 22047
" />
<path d="M7702 13582
L7702 13661
" />
<path d="M8647 13661
L8647 13582
" />
<path d="M8647 12716
L8647 12795
" />
<path d="M7702 12716
L7702 12795
" />
</g>
<g style="fill:#008484; fill-opacity:0.0; 
stroke:#008484; stroke-width:78.7402; stroke-opacity:1; 
stroke-linecap:round; stroke-linejoin:round;">
<circle cx="7584.06" cy="12696.9" r="39.3701" /> 
</g>
<g style="fill:#008484; fill-opacity:0.0; 
stroke:#008484; stroke-width:50; stroke-opacity:1; 
stroke-linecap:round; stroke-linejoin:round;">
<path d="M8489 13661
L8647 13661
" />
<path d="M7702 13661
L7859 13661
" />
<path d="M8489 12716
L8647 12716
" />
<path d="M7702 12716
L7859 12716
" />
</g>
<g style="fill:#008484; fill-opacity:0.0; 
stroke:#008484; stroke-width:78.7402; stroke-opacity:1; 
stroke-linecap:round; stroke-linejoin:round;">
<circle cx="7465.95" cy="10334.6" r="39.3701" /> 
</g>
<g style="fill:#008484; fill-opacity:0.0; 
stroke:#008484; stroke-width:50; stroke-opacity:1; 
stroke-linecap:round; stroke-linejoin:round;">
<path d="M7780 11397
L7603 11397
" />
<path d="M7603 11397
L7603 11220
" />
<path d="M8745 11220
L8745 11397
" />
<path d="M8745 11397
L8568 11397
" />
<path d="M8568 10255
L8745 10255
" />
<path d="M8745 10255
L8745 10433
" />
<path d="M7780 10255
L7603 10255
" />
<path d="M7603 10255
L7603 10433
" />
<path d="M7406 24803
L7367 24803
" />
<path d="M7210 24803
L7170 24803
" />
<path d="M7210.04 24803.1 A39.3701 39.3701 0.0 0 0 7288.78 24803.1 " />
<path d="M7288.78 24803.1 A39.3701 39.3701 0.0 0 0 7367.52 24803.1 " />
<path d="M7406 24606
L7170 24606
" />
<path d="M7406 25000
L7170 25000
" />
</g>
<g style="fill:#008484; fill-opacity:0.0; 
stroke:#008484; stroke-width:78.7402; stroke-opacity:1; 
stroke-linecap:round; stroke-linejoin:round;">
<circle cx="9473.82" cy="20157.5" r="39.3701" /> 
</g>
<g style="fill:#008484; fill-opacity:0.0; 
stroke:#008484; stroke-width:50; stroke-opacity:1; 
stroke-linecap:round; stroke-linejoin:round;">
<path d="M9316 19921
L9316 20236
" />
<path d="M9316 20236
L9001 20236
" />
<path d="M9001 17952
L9316 17952
" />
<path d="M9316 17952
L9316 18267
" />
<path d="M7032 18267
L7032 17952
" />
<path d="M7032 17952
L7347 17952
" />
<path d="M7032 19921
L7032 20236
" />
<path d="M7032 20236
L7347 20236
" />
<path d="M8115 23484
L8115 23681
" />
<path d="M8115 23681
L8351 23681
" />
<path d="M8115 21791
L8115 21988
" />
<path d="M8115 21791
L8351 21791
" />
<path d="M10005 23484
L10005 23681
" />
<path d="M10005 23681
L9769 23681
" />
<path d="M10005 21791
L10005 21988
" />
<path d="M10005 21791
L9769 21791
" />
<path d="M10143 4396
L10143 4291
" />
<path d="M10143 5446
L10143 5551
" />
</g>
<g style="fill:#008484; fill-opacity:0.0; 
stroke:#008484; stroke-width:31; stroke-opacity:1; 
stroke-linecap:round; stroke-linejoin:round;">
<circle cx="10281.1" cy="5384.26" r="62.626" /> 
<path d="M9943 4421
L10343 4421
" />
<path d="M9943 5446
L10343 5446
" />
<path d="M10343 4421
L10343 5446
" />
<path d="M9943 5446
L9943 4421
" />
</g>
<g style="fill:#008484; fill-opacity:0.0; 
stroke:#008484; stroke-width:50; stroke-opacity:1; 
stroke-linecap:round; stroke-linejoin:round;">
<path d="M10143 5872
L10143 5767
" />
<path d="M10143 6922
L10143 7027
" />
</g>
<g style="fill:#008484; fill-opacity:0.0; 
stroke:#008484; stroke-width:31; stroke-opacity:1; 
stroke-linecap:round; stroke-linejoin:round;">
<circle cx="10281.1" cy="6860.64" r="62.626" /> 
<path d="M9943 5897
L10343 5897
" />
<path d="M9943 6922
L10343 6922
" />
<path d="M10343 5897
L10343 6922
" />
<path d="M9943 6922
L9943 5897
" />
</g>
<g style="fill:#008484; fill-opacity:0.0; 
stroke:#008484; stroke-width:393.701; stroke-opacity:1; 
stroke-linecap:round; stroke-linejoin:round;">
<circle cx="8174.61" cy="10826.8" r="1377.95" /> 
</g>
<g style="fill:#008484; fill-opacity:0.0; 
stroke:#008484; stroke-width:78.7402; stroke-opacity:1; 
stroke-linecap:round; stroke-linejoin:round;">
<circle cx="7426.58" cy="14212.6" r="39.3701" /> 
</g>
<g style="fill:#008484; fill-opacity:0.0; 
stroke:#008484; stroke-width:50; stroke-opacity:1; 
stroke-linecap:round; stroke-linejoin:round;">
<path d="M7544 15984
L7544 16181
" />
<path d="M7544 16181
L7741 16181
" />
<path d="M8607 16181
L8804 16181
" />
<path d="M8804 16181
L8804 15984
" />
<path d="M8607 14133
L8804 14133
" />
<path d="M8804 14133
L8804 14330
" />
<path d="M7544 14133
L7544 14330
" />
<path d="M7741 14133
L7544 14133
" />
</g>
<g style="fill:#008484; fill-opacity:0.0; 
stroke:#008484; stroke-width:59.0551; stroke-opacity:1; 
stroke-linecap:round; stroke-linejoin:round;">
<circle cx="11127.4" cy="10826.8" r="1151.57" /> 
<circle cx="5221.85" cy="10826.8" r="1151.57" /> 
<circle cx="5123.43" cy="24409.4" r="1151.57" /> 
<circle cx="11225.8" cy="24409.4" r="1151.57" /> 
<path d="M9237 7972
L9276 7972
" />
<path d="M9276 7972
L9316 7893
" />
<path d="M9316 7893
L9395 8051
" />
<path d="M9395 8051
L9434 7972
" />
<path d="M9434 7972
L9473 7972
" />
</g>
<g style="fill:#008484; fill-opacity:0.0; 
stroke:#008484; stroke-width:50; stroke-opacity:1; 
stroke-linecap:round; stroke-linejoin:round;">
<path d="M9237 8169
L9473 8169
" />
<path d="M9237 7775
L9473 7775
" />
</g>
<g style="fill:#008484; fill-opacity:0.0; 
stroke:#008484; stroke-width:59.0551; stroke-opacity:1; 
stroke-linecap:round; stroke-linejoin:round;">
<path d="M10654 7972
L10615 7972
" />
<path d="M10615 7972
L10576 8051
" />
<path d="M10576 8051
L10497 7893
" />
<path d="M10497 7893
L10458 7972
" />
<path d="M10458 7972
L10418 7972
" />
</g>
<g style="fill:#008484; fill-opacity:0.0; 
stroke:#008484; stroke-width:50; stroke-opacity:1; 
stroke-linecap:round; stroke-linejoin:round;">
<path d="M10654 7775
L10418 7775
" />
<path d="M10654 8169
L10418 8169
" />
</g>
<g style="fill:#008484; fill-opacity:0.0; 
stroke:#008484; stroke-width:59.0551; stroke-opacity:1; 
stroke-linecap:round; stroke-linejoin:round;">
<path d="M8292 7283
L8253 7283
" />
<path d="M8253 7283
L8213 7362
" />
<path d="M8213 7362
L8135 7204
" />
<path d="M8135 7204
L8095 7283
" />
<path d="M8095 7283
L8056 7283
" />
</g>
<g style="fill:#008484; fill-opacity:0.0; 
stroke:#008484; stroke-width:50; stroke-opacity:1; 
stroke-linecap:round; stroke-linejoin:round;">
<path d="M8292 7086
L8056 7086
" />
<path d="M8292 7480
L8056 7480
" />
</g>
<g style="fill:#008484; fill-opacity:0.0; 
stroke:#008484; stroke-width:59.0551; stroke-opacity:1; 
stroke-linecap:round; stroke-linejoin:round;">
<path d="M8292 7972
L8253 7972
" />
<path d="M8253 7972
L8213 8051
" />
<path d="M8213 8051
L8135 7893
" />
<path d="M8135 7893
L8095 7972
" />
<path d="M8095 7972
L8056 7972
" />
</g>
<g style="fill:#008484; fill-opacity:0.0; 
stroke:#008484; stroke-width:50; stroke-opacity:1; 
stroke-linecap:round; stroke-linejoin:round;">
<path d="M8292 7775
L8056 7775
" />
<path d="M8292 8169
L8056 8169
" />
</g>
<g style="fill:#008484; fill-opacity:0.0; 
stroke:#008484; stroke-width:59.0551; stroke-opacity:1; 
stroke-linecap:round; stroke-linejoin:round;">
<path d="M6521 15944
L6481 15944
" />
<path d="M6481 15944
L6442 16023
" />
<path d="M6442 16023
L6363 15866
" />
<path d="M6363 15866
L6324 15944
" />
<path d="M6324 15944
L6284 15944
" />
</g>
<g style="fill:#008484; fill-opacity:0.0; 
stroke:#008484; stroke-width:50; stroke-opacity:1; 
stroke-linecap:round; stroke-linejoin:round;">
<path d="M6521 15748
L6284 15748
" />
<path d="M6521 16141
L6284 16141
" />
</g>
<g style="fill:#008484; fill-opacity:0.0; 
stroke:#008484; stroke-width:59.0551; stroke-opacity:1; 
stroke-linecap:round; stroke-linejoin:round;">
<path d="M6521 15354
L6481 15354
" />
<path d="M6481 15354
L6442 15433
" />
<path d="M6442 15433
L6363 15275
" />
<path d="M6363 15275
L6324 15354
" />
<path d="M6324 15354
L6284 15354
" />
</g>
<g style="fill:#008484; fill-opacity:0.0; 
stroke:#008484; stroke-width:50; stroke-opacity:1; 
stroke-linecap:round; stroke-linejoin:round;">
<path d="M6521 15157
L6284 15157
" />
<path d="M6521 15551
L6284 15551
" />
</g>
<g style="fill:#008484; fill-opacity:0.0; 
stroke:#008484; stroke-width:59.0551; stroke-opacity:1; 
stroke-linecap:round; stroke-linejoin:round;">
<path d="M6107 18287
L6107 18326
" />
<path d="M6107 18326
L6186 18366
" />
<path d="M6186 18366
L6028 18444
" />
<path d="M6028 18444
L6107 18484
" />
<path d="M6107 18484
L6107 18523
" />
</g>
<g style="fill:#008484; fill-opacity:0.0; 
stroke:#008484; stroke-width:50; stroke-opacity:1; 
stroke-linecap:round; stroke-linejoin:round;">
<path d="M5910 18287
L5910 18523
" />
<path d="M6304 18287
L6304 18523
" />
</g>
<g style="fill:#008484; fill-opacity:0.0; 
stroke:#008484; stroke-width:59.0551; stroke-opacity:1; 
stroke-linecap:round; stroke-linejoin:round;">
<path d="M5517 18287
L5517 18326
" />
<path d="M5517 18326
L5595 18366
" />
<path d="M5595 18366
L5438 18444
" />
<path d="M5438 18444
L5517 18484
" />
<path d="M5517 18484
L5517 18523
" />
</g>
<g style="fill:#008484; fill-opacity:0.0; 
stroke:#008484; stroke-width:50; stroke-opacity:1; 
stroke-linecap:round; stroke-linejoin:round;">
<path d="M5320 18287
L5320 18523
" />
<path d="M5713 18287
L5713 18523
" />
</g>
<g style="fill:#008484; fill-opacity:0.0; 
stroke:#008484; stroke-width:59.0551; stroke-opacity:1; 
stroke-linecap:round; stroke-linejoin:round;">
<path d="M9926 19192
L9965 19192
" />
<path d="M9965 19192
L10005 19114
" />
<path d="M10005 19114
L10084 19271
" />
<path d="M10084 19271
L10123 19192
" />
<path d="M10123 19192
L10162 19192
" />
</g>
<g style="fill:#008484; fill-opacity:0.0; 
stroke:#008484; stroke-width:50; stroke-opacity:1; 
stroke-linecap:round; stroke-linejoin:round;">
<path d="M9926 19389
L10162 19389
" />
<path d="M9926 18996
L10162 18996
" />
</g>
<g style="fill:#008484; fill-opacity:0.0; 
stroke:#008484; stroke-width:59.0551; stroke-opacity:1; 
stroke-linecap:round; stroke-linejoin:round;">
<path d="M9926 19783
L9965 19783
" />
<path d="M9965 19783
L10005 19704
" />
<path d="M10005 19704
L10084 19862
" />
<path d="M10084 19862
L10123 19783
" />
<path d="M10123 19783
L10162 19783
" />
</g>
<g style="fill:#008484; fill-opacity:0.0; 
stroke:#008484; stroke-width:50; stroke-opacity:1; 
stroke-linecap:round; stroke-linejoin:round;">
<path d="M9926 19980
L10162 19980
" />
<path d="M9926 19586
L10162 19586
" />
</g>
<g style="fill:#008484; fill-opacity:0.0; 
stroke:#008484; stroke-width:59.0551; stroke-opacity:1; 
stroke-linecap:round; stroke-linejoin:round;">
<path d="M6521 14173
L6481 14173
" />
<path d="M6481 14173
L6442 14251
" />
<path d="M6442 14251
L6363 14094
" />
<path d="M6363 14094
L6324 14173
" />
<path d="M6324 14173
L6284 14173
" />
</g>
<g style="fill:#008484; fill-opacity:0.0; 
stroke:#008484; stroke-width:50; stroke-opacity:1; 
stroke-linecap:round; stroke-linejoin:round;">
<path d="M6521 13976
L6284 13976
" />
<path d="M6521 14370
L6284 14370
" />
</g>
<g style="fill:#008484; fill-opacity:0.0; 
stroke:#008484; stroke-width:59.0551; stroke-opacity:1; 
stroke-linecap:round; stroke-linejoin:round;">
<path d="M6521 14763
L6481 14763
" />
<path d="M6481 14763
L6442 14842
" />
<path d="M6442 14842
L6363 14685
" />
<path d="M6363 14685
L6324 14763
" />
<path d="M6324 14763
L6284 14763
" />
</g>
<g style="fill:#008484; fill-opacity:0.0; 
stroke:#008484; stroke-width:50; stroke-opacity:1; 
stroke-linecap:round; stroke-linejoin:round;">
<path d="M6521 14566
L6284 14566
" />
<path d="M6521 14960
L6284 14960
" />
</g>
<g style="fill:#008484; fill-opacity:0.0; 
stroke:#008484; stroke-width:59.0551; stroke-opacity:1; 
stroke-linecap:round; stroke-linejoin:round;">
<path d="M7190 23503
L7190 23543
" />
<path d="M7190 23543
L7269 23582
" />
<path d="M7269 23582
L7111 23661
" />
<path d="M7111 23661
L7190 23700
" />
<path d="M7190 23700
L7190 23740
" />
</g>
<g style="fill:#008484; fill-opacity:0.0; 
stroke:#008484; stroke-width:50; stroke-opacity:1; 
stroke-linecap:round; stroke-linejoin:round;">
<path d="M6993 23503
L6993 23740
" />
<path d="M7387 23503
L7387 23740
" />
</g>
<g style="fill:#008484; fill-opacity:0.0; 
stroke:#008484; stroke-width:59.0551; stroke-opacity:1; 
stroke-linecap:round; stroke-linejoin:round;">
<path d="M7780 23740
L7780 23700
" />
<path d="M7780 23700
L7702 23661
" />
<path d="M7702 23661
L7859 23582
" />
<path d="M7859 23582
L7780 23543
" />
<path d="M7780 23543
L7780 23503
" />
</g>
<g style="fill:#008484; fill-opacity:0.0; 
stroke:#008484; stroke-width:50; stroke-opacity:1; 
stroke-linecap:round; stroke-linejoin:round;">
<path d="M7977 23740
L7977 23503
" />
<path d="M7584 23740
L7584 23503
" />
</g>
<g style="fill:#008484; fill-opacity:0.0; 
stroke:#008484; stroke-width:59.0551; stroke-opacity:1; 
stroke-linecap:round; stroke-linejoin:round;">
<path d="M8883 21456
L8843 21456
" />
<path d="M8843 21456
L8804 21535
" />
<path d="M8804 21535
L8725 21377
" />
<path d="M8725 21377
L8686 21456
" />
<path d="M8686 21456
L8647 21456
" />
</g>
<g style="fill:#008484; fill-opacity:0.0; 
stroke:#008484; stroke-width:50; stroke-opacity:1; 
stroke-linecap:round; stroke-linejoin:round;">
<path d="M8883 21259
L8647 21259
" />
<path d="M8883 21653
L8647 21653
" />
<path d="M5812 22283
L5812 22342
" />
<path d="M5812 22204
L5812 22145
" />
<path d="M6087 22342
L6087 22145
" />
<path d="M5536 22342
L5536 22145
" />
<path d="M5733 22204
L5891 22204
" />
<path d="M5733 22283
L5891 22283
" />
<path d="M9946 13149
L9946 13090
" />
<path d="M9946 13228
L9946 13287
" />
<path d="M9670 13090
L9670 13287
" />
<path d="M10221 13090
L10221 13287
" />
<path d="M10025 13228
L9867 13228
" />
<path d="M10025 13149
L9867 13149
" />
<path d="M9946 15118
L9946 15059
" />
<path d="M9946 15196
L9946 15255
" />
<path d="M9670 15059
L9670 15255
" />
<path d="M10221 15059
L10221 15255
" />
<path d="M10025 15196
L9867 15196
" />
<path d="M10025 15118
L9867 15118
" />
<path d="M8469 24370
L8469 24311
" />
<path d="M8469 24448
L8469 24507
" />
<path d="M8194 24311
L8194 24507
" />
<path d="M8745 24311
L8745 24507
" />
<path d="M8548 24448
L8391 24448
" />
<path d="M8548 24370
L8391 24370
" />
<path d="M9158 24370
L9158 24311
" />
<path d="M9158 24448
L9158 24507
" />
<path d="M8883 24311
L8883 24507
" />
<path d="M9434 24311
L9434 24507
" />
<path d="M9237 24448
L9080 24448
" />
<path d="M9237 24370
L9080 24370
" />
<path d="M7721 16732
L7780 16732
" />
<path d="M7643 16732
L7584 16732
" />
<path d="M7780 16456
L7584 16456
" />
<path d="M7780 17007
L7584 17007
" />
<path d="M7643 16811
L7643 16653
" />
<path d="M7721 16811
L7721 16653
" />
<path d="M6599 22283
L6599 22362
" />
<path d="M6599 22204
L6599 22125
" />
<path d="M6796 22362
L6796 22125
" />
<path d="M6402 22362
L6402 22125
" />
<path d="M6521 22204
L6678 22204
" />
<path d="M6521 22283
L6678 22283
" />
<path d="M8135 8661
L8056 8661
" />
<path d="M8213 8661
L8292 8661
" />
<path d="M8056 8858
L8292 8858
" />
<path d="M8056 8464
L8292 8464
" />
<path d="M8213 8582
L8213 8740
" />
<path d="M8135 8582
L8135 8740
" />
<path d="M9158 13149
L9158 13070
" />
<path d="M9158 13228
L9158 13307
" />
<path d="M8962 13070
L8962 13307
" />
<path d="M9355 13070
L9355 13307
" />
<path d="M9237 13228
L9080 13228
" />
<path d="M9237 13149
L9080 13149
" />
<path d="M9158 15118
L9158 15039
" />
<path d="M9158 15196
L9158 15275
" />
<path d="M8962 15039
L8962 15275
" />
<path d="M9355 15039
L9355 15275
" />
<path d="M9237 15196
L9080 15196
" />
<path d="M9237 15118
L9080 15118
" />
<path d="M7721 17421
L7800 17421
" />
<path d="M7643 17421
L7564 17421
" />
<path d="M7800 17224
L7564 17224
" />
<path d="M7800 17618
L7564 17618
" />
<path d="M7643 17500
L7643 17342
" />
<path d="M7721 17500
L7721 17342
" />
<path d="M7525 5708
L7603 5708
" />
<path d="M7446 5708
L7367 5708
" />
<path d="M7603 5511
L7367 5511
" />
<path d="M7603 5905
L7367 5905
" />
<path d="M7446 5787
L7446 5629
" />
<path d="M7525 5787
L7525 5629
" />
</g> 
</svg>
