<?xml version="1.0" standalone="no"?>
 <!DOCTYPE svg PUBLIC "-//W3C//DTD SVG 1.1//EN" 
 "http://www.w3.org/Graphics/SVG/1.1/DTD/svg11.dtd"> 
<svg xmlns="http://www.w3.org/2000/svg" version="1.1" 
    width="3.57632cm" height="6.9977cm" viewBox="0 0 14080 27550 ">
<title>SVG Picture created as VacuBot-F_Paste.svg date 2015/04/12 11:41:17 </title>
  <desc>Picture generated by PCBNEW </desc>
<g style="fill:#000000; fill-opacity:1;stroke:#000000; stroke-opacity:1;
stroke-linecap:round; stroke-linejoin:round; "
 transform="translate(0 0) scale(1 1)">
</g>
<g style="fill:#840000; fill-opacity:0.0; 
stroke:#840000; stroke-width:49.2126; stroke-opacity:1; 
stroke-linecap:round; stroke-linejoin:round;">
</g>
<g style="fill:#840000; fill-opacity:1.0; 
stroke:#840000; stroke-width:49.2126; stroke-opacity:1; 
stroke-linecap:round; stroke-linejoin:round;">
<polyline style="fill-rule:evenodd;"
points="7128,22132
7272,22132
7272,22158
7128,22158
7128,22132
" /> 
<polyline style="fill-rule:evenodd;"
points="7128,22329
7272,22329
7272,22355
7128,22355
7128,22329
" /> 
<polyline style="fill-rule:evenodd;"
points="7128,22526
7272,22526
7272,22552
7128,22552
7128,22526
" /> 
<polyline style="fill-rule:evenodd;"
points="7128,22723
7272,22723
7272,22749
7128,22749
7128,22723
" /> 
<polyline style="fill-rule:evenodd;"
points="7896,22723
8039,22723
8039,22749
7896,22749
7896,22723
" /> 
<polyline style="fill-rule:evenodd;"
points="7896,22526
8039,22526
8039,22552
7896,22552
7896,22526
" /> 
<polyline style="fill-rule:evenodd;"
points="7896,22329
8039,22329
8039,22355
7896,22355
7896,22329
" /> 
<polyline style="fill-rule:evenodd;"
points="7896,22132
8039,22132
8039,22158
7896,22158
7896,22132
" /> 
<polyline style="fill-rule:evenodd;"
points="7443,22162
7724,22162
7724,22719
7443,22719
7443,22162
" /> 
<polyline style="fill-rule:evenodd;"
points="7726,12898
7726,12888
7884,12888
7884,12898
7726,12898
" /> 
<polyline style="fill-rule:evenodd;"
points="7726,13095
7726,13085
7884,13085
7884,13095
7726,13095
" /> 
<polyline style="fill-rule:evenodd;"
points="7726,13292
7726,13282
7884,13282
7884,13292
7726,13292
" /> 
<polyline style="fill-rule:evenodd;"
points="7726,13489
7726,13479
7884,13479
7884,13489
7726,13489
" /> 
<polyline style="fill-rule:evenodd;"
points="8464,13489
8464,13479
8622,13479
8622,13489
8464,13489
" /> 
<polyline style="fill-rule:evenodd;"
points="8464,13292
8464,13282
8622,13282
8622,13292
8464,13292
" /> 
<polyline style="fill-rule:evenodd;"
points="8464,13095
8464,13085
8622,13085
8622,13095
8464,13095
" /> 
<polyline style="fill-rule:evenodd;"
points="8464,12898
8464,12888
8622,12888
8622,12898
8464,12898
" /> 
<polyline style="fill-rule:evenodd;"
points="8277,12898
8268,12898
8268,12741
8277,12741
8277,12898
" /> 
<polyline style="fill-rule:evenodd;"
points="8081,12898
8071,12898
8071,12741
8081,12741
8081,12898
" /> 
<polyline style="fill-rule:evenodd;"
points="8081,13636
8071,13636
8071,13479
8081,13479
8081,13636
" /> 
<polyline style="fill-rule:evenodd;"
points="8277,13636
8268,13636
8268,13479
8277,13479
8277,13636
" /> 
<polyline style="fill-rule:evenodd;"
points="7628,10723
7628,10693
7854,10693
7854,10723
7628,10723
" /> 
<polyline style="fill-rule:evenodd;"
points="7628,10959
7628,10930
7854,10930
7854,10959
7628,10959
" /> 
<polyline style="fill-rule:evenodd;"
points="8494,10959
8494,10930
8720,10930
8720,10959
8494,10959
" /> 
<polyline style="fill-rule:evenodd;"
points="8494,10723
8494,10693
8720,10693
8720,10723
8494,10723
" /> 
<polyline style="fill-rule:evenodd;"
points="7953,11373
7923,11373
7923,11146
7953,11146
7953,11373
" /> 
<polyline style="fill-rule:evenodd;"
points="8189,11373
8159,11373
8159,11146
8189,11146
8189,11373
" /> 
<polyline style="fill-rule:evenodd;"
points="8425,11373
8396,11373
8396,11146
8425,11146
8425,11373
" /> 
<polyline style="fill-rule:evenodd;"
points="8425,10506
8396,10506
8396,10280
8425,10280
8425,10506
" /> 
<polyline style="fill-rule:evenodd;"
points="8189,10506
8159,10506
8159,10280
8189,10280
8189,10506
" /> 
<polyline style="fill-rule:evenodd;"
points="7953,10506
7923,10506
7923,10280
7953,10280
7953,10506
" /> 
<polyline style="fill-rule:evenodd;"
points="7638,24699
7638,24906
7510,24906
7510,24699
7638,24699
" /> 
<polyline style="fill-rule:evenodd;"
points="7067,24699
7067,24906
6939,24906
6939,24699
7067,24699
" /> 
</g>
<g style="fill:#840000; fill-opacity:1.0; 
stroke:#840000; stroke-width:59.0551; stroke-opacity:1; 
stroke-linecap:round; stroke-linejoin:round;">
</g>
<g style="fill:#840000; fill-opacity:0.0; 
stroke:#840000; stroke-width:59.0551; stroke-opacity:1; 
stroke-linecap:round; stroke-linejoin:round;">
<path d="M9011 19783
L9306 19783
" />
<path d="M9011 19586
L9306 19586
" />
<path d="M9011 19389
L9306 19389
" />
<path d="M9011 19192
L9306 19192
" />
<path d="M9011 18996
L9306 18996
" />
<path d="M9011 18799
L9306 18799
" />
<path d="M9011 18602
L9306 18602
" />
<path d="M9011 18405
L9306 18405
" />
<path d="M8863 18257
L8863 17962
" />
<path d="M8666 18257
L8666 17962
" />
<path d="M8469 18257
L8469 17962
" />
<path d="M8273 18257
L8273 17962
" />
<path d="M8076 18257
L8076 17962
" />
<path d="M7879 18257
L7879 17962
" />
<path d="M7682 18257
L7682 17962
" />
<path d="M7485 18257
L7485 17962
" />
<path d="M7042 18405
L7337 18405
" />
<path d="M7042 18602
L7337 18602
" />
<path d="M7042 18799
L7337 18799
" />
<path d="M7042 18996
L7337 18996
" />
<path d="M7042 19192
L7337 19192
" />
<path d="M7042 19389
L7337 19389
" />
<path d="M7042 19586
L7337 19586
" />
<path d="M7042 19783
L7337 19783
" />
<path d="M7485 20226
L7485 19931
" />
<path d="M7682 20226
L7682 19931
" />
<path d="M7879 20226
L7879 19931
" />
<path d="M8076 20226
L8076 19931
" />
<path d="M8273 20226
L8273 19931
" />
<path d="M8469 20226
L8469 19931
" />
<path d="M8666 20226
L8666 19931
" />
<path d="M8863 20226
L8863 19931
" />
</g>
<g style="fill:#840000; fill-opacity:0.0; 
stroke:#840000; stroke-width:49.2126; stroke-opacity:1; 
stroke-linecap:round; stroke-linejoin:round;">
</g>
<g style="fill:#840000; fill-opacity:1.0; 
stroke:#840000; stroke-width:49.2126; stroke-opacity:1; 
stroke-linecap:round; stroke-linejoin:round;">
<polyline style="fill-rule:evenodd;"
points="8838,19758
8297,19758
8297,19217
8838,19217
8838,19758
" /> 
<polyline style="fill-rule:evenodd;"
points="8838,18971
8297,18971
8297,18430
8838,18430
8838,18971
" /> 
<polyline style="fill-rule:evenodd;"
points="8051,18971
7510,18971
7510,18430
8051,18430
8051,18971
" /> 
<polyline style="fill-rule:evenodd;"
points="8051,19758
7510,19758
7510,19217
8051,19217
8051,19758
" /> 
<polyline style="fill-rule:evenodd;"
points="8376,21993
9744,21993
9744,22376
8376,22376
8376,21993
" /> 
<polyline style="fill-rule:evenodd;"
points="8376,23095
9744,23095
9744,23479
8376,23479
8376,23095
" /> 
</g>
<g style="fill:#840000; fill-opacity:1.0; 
stroke:#840000; stroke-width:314.961; stroke-opacity:1; 
stroke-linecap:round; stroke-linejoin:round;">
</g>
<g style="fill:#840000; fill-opacity:0.0; 
stroke:#840000; stroke-width:314.961; stroke-opacity:1; 
stroke-linecap:round; stroke-linejoin:round;">
<path d="M9552 4921
L9788 4921
" />
<path d="M10497 4547
L10733 4547
" />
<path d="M10497 5295
L10733 5295
" />
<path d="M9552 6397
L9788 6397
" />
<path d="M10497 6023
L10733 6023
" />
<path d="M10497 6771
L10733 6771
" />
</g>
<g style="fill:#840000; fill-opacity:0.0; 
stroke:#840000; stroke-width:49.2126; stroke-opacity:1; 
stroke-linecap:round; stroke-linejoin:round;">
</g>
<g style="fill:#840000; fill-opacity:1.0; 
stroke:#840000; stroke-width:49.2126; stroke-opacity:1; 
stroke-linecap:round; stroke-linejoin:round;">
<polyline style="fill-rule:evenodd;"
points="7714,14475
7714,14363
7846,14363
7846,14475
7714,14475
" /> 
<polyline style="fill-rule:evenodd;"
points="7714,14770
7714,14658
7846,14658
7846,14770
7714,14770
" /> 
<polyline style="fill-rule:evenodd;"
points="7714,15065
7714,14953
7846,14953
7846,15065
7714,15065
" /> 
<polyline style="fill-rule:evenodd;"
points="7714,15361
7714,15249
7846,15249
7846,15361
7714,15361
" /> 
<polyline style="fill-rule:evenodd;"
points="7714,15656
7714,15544
7846,15544
7846,15656
7714,15656
" /> 
<polyline style="fill-rule:evenodd;"
points="7714,15951
7714,15839
7846,15839
7846,15951
7714,15951
" /> 
<polyline style="fill-rule:evenodd;"
points="8502,15951
8502,15839
8634,15839
8634,15951
8502,15951
" /> 
<polyline style="fill-rule:evenodd;"
points="8502,15656
8502,15544
8634,15544
8634,15656
8502,15656
" /> 
<polyline style="fill-rule:evenodd;"
points="8502,15361
8502,15249
8634,15249
8634,15361
8502,15361
" /> 
<polyline style="fill-rule:evenodd;"
points="8502,15065
8502,14953
8634,14953
8634,15065
8502,15065
" /> 
<polyline style="fill-rule:evenodd;"
points="8502,14770
8502,14658
8634,14658
8634,14770
8502,14770
" /> 
<polyline style="fill-rule:evenodd;"
points="8502,14475
8502,14363
8634,14363
8634,14475
8502,14475
" /> 
<polyline style="fill-rule:evenodd;"
points="9006,8075
9006,7869
9134,7869
9134,8075
9006,8075
" /> 
<polyline style="fill-rule:evenodd;"
points="9577,8075
9577,7869
9705,7869
9705,8075
9577,8075
" /> 
<polyline style="fill-rule:evenodd;"
points="10886,7869
10886,8075
10758,8075
10758,7869
10886,7869
" /> 
<polyline style="fill-rule:evenodd;"
points="10315,7869
10315,8075
10187,8075
10187,7869
10315,7869
" /> 
<polyline style="fill-rule:evenodd;"
points="8524,7180
8524,7386
8396,7386
8396,7180
8524,7180
" /> 
<polyline style="fill-rule:evenodd;"
points="7953,7180
7953,7386
7825,7386
7825,7180
7953,7180
" /> 
<polyline style="fill-rule:evenodd;"
points="8524,7869
8524,8075
8396,8075
8396,7869
8524,7869
" /> 
<polyline style="fill-rule:evenodd;"
points="7953,7869
7953,8075
7825,8075
7825,7869
7953,7869
" /> 
<polyline style="fill-rule:evenodd;"
points="6752,15841
6752,16048
6624,16048
6624,15841
6752,15841
" /> 
<polyline style="fill-rule:evenodd;"
points="6181,15841
6181,16048
6053,16048
6053,15841
6181,15841
" /> 
<polyline style="fill-rule:evenodd;"
points="6752,15250
6752,15457
6624,15457
6624,15250
6752,15250
" /> 
<polyline style="fill-rule:evenodd;"
points="6181,15250
6181,15457
6053,15457
6053,15250
6181,15250
" /> 
<polyline style="fill-rule:evenodd;"
points="6004,18056
6211,18056
6211,18184
6004,18184
6004,18056
" /> 
<polyline style="fill-rule:evenodd;"
points="6004,18626
6211,18626
6211,18754
6004,18754
6004,18626
" /> 
<polyline style="fill-rule:evenodd;"
points="5413,18056
5620,18056
5620,18184
5413,18184
5413,18056
" /> 
<polyline style="fill-rule:evenodd;"
points="5413,18626
5620,18626
5620,18754
5413,18754
5413,18626
" /> 
<polyline style="fill-rule:evenodd;"
points="9695,19296
9695,19089
9823,19089
9823,19296
9695,19296
" /> 
<polyline style="fill-rule:evenodd;"
points="10266,19296
10266,19089
10394,19089
10394,19296
10266,19296
" /> 
<polyline style="fill-rule:evenodd;"
points="9695,19886
9695,19680
9823,19680
9823,19886
9695,19886
" /> 
<polyline style="fill-rule:evenodd;"
points="10266,19886
10266,19680
10394,19680
10394,19886
10266,19886
" /> 
<polyline style="fill-rule:evenodd;"
points="6752,14069
6752,14276
6624,14276
6624,14069
6752,14069
" /> 
<polyline style="fill-rule:evenodd;"
points="6181,14069
6181,14276
6053,14276
6053,14069
6181,14069
" /> 
<polyline style="fill-rule:evenodd;"
points="6752,14660
6752,14867
6624,14867
6624,14660
6752,14660
" /> 
<polyline style="fill-rule:evenodd;"
points="6181,14660
6181,14867
6053,14867
6053,14660
6181,14660
" /> 
<polyline style="fill-rule:evenodd;"
points="7087,23272
7293,23272
7293,23400
7087,23400
7087,23272
" /> 
<polyline style="fill-rule:evenodd;"
points="7087,23843
7293,23843
7293,23971
7087,23971
7087,23843
" /> 
<polyline style="fill-rule:evenodd;"
points="7884,23971
7677,23971
7677,23843
7884,23843
7884,23971
" /> 
<polyline style="fill-rule:evenodd;"
points="7884,23400
7677,23400
7677,23272
7884,23272
7884,23400
" /> 
<polyline style="fill-rule:evenodd;"
points="9114,21353
9114,21560
8986,21560
8986,21353
9114,21353
" /> 
<polyline style="fill-rule:evenodd;"
points="8543,21353
8543,21560
8415,21560
8415,21353
8543,21353
" /> 
<polyline style="fill-rule:evenodd;"
points="6014,22731
5610,22731
5610,22485
6014,22485
6014,22731
" /> 
<polyline style="fill-rule:evenodd;"
points="6014,22002
5610,22002
5610,21756
6014,21756
6014,22002
" /> 
<polyline style="fill-rule:evenodd;"
points="9744,12701
10148,12701
10148,12947
9744,12947
9744,12701
" /> 
<polyline style="fill-rule:evenodd;"
points="9744,13430
10148,13430
10148,13676
9744,13676
9744,13430
" /> 
<polyline style="fill-rule:evenodd;"
points="9744,14670
10148,14670
10148,14916
9744,14916
9744,14670
" /> 
<polyline style="fill-rule:evenodd;"
points="9744,15398
10148,15398
10148,15644
9744,15644
9744,15398
" /> 
<polyline style="fill-rule:evenodd;"
points="8268,23922
8671,23922
8671,24168
8268,24168
8268,23922
" /> 
<polyline style="fill-rule:evenodd;"
points="8268,24650
8671,24650
8671,24896
8268,24896
8268,24650
" /> 
<polyline style="fill-rule:evenodd;"
points="8957,23922
9360,23922
9360,24168
8957,24168
8957,23922
" /> 
<polyline style="fill-rule:evenodd;"
points="8957,24650
9360,24650
9360,24896
8957,24896
8957,24650
" /> 
<polyline style="fill-rule:evenodd;"
points="8169,16530
8169,16934
7923,16934
7923,16530
8169,16530
" /> 
<polyline style="fill-rule:evenodd;"
points="7441,16530
7441,16934
7195,16934
7195,16530
7441,16530
" /> 
<polyline style="fill-rule:evenodd;"
points="6703,22593
6496,22593
6496,22465
6703,22465
6703,22593
" /> 
<polyline style="fill-rule:evenodd;"
points="6703,22022
6496,22022
6496,21894
6703,21894
6703,22022
" /> 
<polyline style="fill-rule:evenodd;"
points="7825,8764
7825,8558
7953,8558
7953,8764
7825,8764
" /> 
<polyline style="fill-rule:evenodd;"
points="8396,8764
8396,8558
8524,8558
8524,8764
8396,8764
" /> 
<polyline style="fill-rule:evenodd;"
points="9055,12839
9262,12839
9262,12967
9055,12967
9055,12839
" /> 
<polyline style="fill-rule:evenodd;"
points="9055,13410
9262,13410
9262,13538
9055,13538
9055,13410
" /> 
<polyline style="fill-rule:evenodd;"
points="9055,14808
9262,14808
9262,14936
9055,14936
9055,14808
" /> 
<polyline style="fill-rule:evenodd;"
points="9055,15378
9262,15378
9262,15506
9055,15506
9055,15378
" /> 
<polyline style="fill-rule:evenodd;"
points="8031,17317
8031,17524
7903,17524
7903,17317
8031,17317
" /> 
<polyline style="fill-rule:evenodd;"
points="7461,17317
7461,17524
7333,17524
7333,17317
7461,17317
" /> 
<polyline style="fill-rule:evenodd;"
points="7835,5605
7835,5812
7707,5812
7707,5605
7835,5605
" /> 
<polyline style="fill-rule:evenodd;"
points="7264,5605
7264,5812
7136,5812
7136,5605
7264,5605
" /> 
</g> 
</svg>
