<?xml version="1.0" standalone="no"?>
 <!DOCTYPE svg PUBLIC "-//W3C//DTD SVG 1.1//EN" 
 "http://www.w3.org/Graphics/SVG/1.1/DTD/svg11.dtd"> 
<svg xmlns="http://www.w3.org/2000/svg" version="1.1" 
    width="3.57632cm" height="6.9977cm" viewBox="0 0 14080 27550 ">
<title>SVG Picture created as VacuBot-B_Mask.svg date 2015/04/12 11:41:17 </title>
  <desc>Picture generated by PCBNEW </desc>
<g style="fill:#000000; fill-opacity:1;stroke:#000000; stroke-opacity:1;
stroke-linecap:round; stroke-linejoin:round; "
 transform="translate(0 0) scale(1 1)">
</g>
<g style="fill:#840000; fill-opacity:0.0; 
stroke:#840000; stroke-width:551.181; stroke-opacity:1; 
stroke-linecap:round; stroke-linejoin:round;">
<path d="M4788 17519
L4513 17519
" />
<path d="M4788 18110
L4513 18110
" />
<path d="M4788 18700
L4513 18700
" />
<path d="M4788 19291
L4513 19291
" />
<path d="M4788 19881
L4513 19881
" />
<path d="M4788 20472
L4513 20472
" />
<path d="M4788 21062
L4513 21062
" />
<path d="M4788 21653
L4513 21653
" />
<path d="M4788 22244
L4513 22244
" />
<path d="M11560 18503
L11836 18503
" />
<path d="M11560 17913
L11836 17913
" />
<path d="M11560 17322
L11836 17322
" />
<path d="M11560 16732
L11836 16732
" />
<path d="M11560 16141
L11836 16141
" />
<path d="M4788 13582
L4513 13582
" />
<path d="M4788 14173
L4513 14173
" />
<path d="M4788 14763
L4513 14763
" />
<path d="M4788 15354
L4513 15354
" />
<path d="M4788 15944
L4513 15944
" />
<path d="M11560 22244
L11836 22244
" />
<path d="M11560 21653
L11836 21653
" />
<path d="M11560 21062
L11836 21062
" />
<path d="M11560 20472
L11836 20472
" />
<path d="M11560 6594
L11836 6594
" />
<path d="M11560 6003
L11836 6003
" />
<path d="M11560 5413
L11836 5413
" />
<path d="M11560 4822
L11836 4822
" />
</g>
<g style="fill:#840000; fill-opacity:0.0; 
stroke:#840000; stroke-width:49.2126; stroke-opacity:1; 
stroke-linecap:round; stroke-linejoin:round;">
</g>
<g style="fill:#840000; fill-opacity:1.0; 
stroke:#840000; stroke-width:49.2126; stroke-opacity:1; 
stroke-linecap:round; stroke-linejoin:round;">
<polyline style="fill-rule:evenodd;"
points="8223,5339
8960,5339
8960,6077
8223,6077
8223,5339
" /> 
<circle cx="5591.93" cy="5708.66" r="368.894" /> 
<circle cx="11127.4" cy="10826.8" r="703.78" /> 
</g>
<g style="fill:#008400; fill-opacity:1.0; 
stroke:#008400; stroke-width:49.2126; stroke-opacity:1; 
stroke-linecap:round; stroke-linejoin:round;">
<circle cx="11127.4" cy="10826.8" r="1156.54" /> 
</g>
<g style="fill:#840000; fill-opacity:1.0; 
stroke:#840000; stroke-width:49.2126; stroke-opacity:1; 
stroke-linecap:round; stroke-linejoin:round;">
<circle cx="5221.85" cy="10826.8" r="703.78" /> 
</g>
<g style="fill:#008400; fill-opacity:1.0; 
stroke:#008400; stroke-width:49.2126; stroke-opacity:1; 
stroke-linecap:round; stroke-linejoin:round;">
<circle cx="5221.85" cy="10826.8" r="1156.54" /> 
</g>
<g style="fill:#840000; fill-opacity:1.0; 
stroke:#840000; stroke-width:49.2126; stroke-opacity:1; 
stroke-linecap:round; stroke-linejoin:round;">
<circle cx="5123.43" cy="24409.4" r="703.78" /> 
</g>
<g style="fill:#008400; fill-opacity:1.0; 
stroke:#008400; stroke-width:49.2126; stroke-opacity:1; 
stroke-linecap:round; stroke-linejoin:round;">
<circle cx="5123.43" cy="24409.4" r="1156.54" /> 
</g>
<g style="fill:#840000; fill-opacity:1.0; 
stroke:#840000; stroke-width:49.2126; stroke-opacity:1; 
stroke-linecap:round; stroke-linejoin:round;">
<circle cx="11225.8" cy="24409.4" r="703.78" /> 
</g>
<g style="fill:#008400; fill-opacity:1.0; 
stroke:#008400; stroke-width:49.2126; stroke-opacity:1; 
stroke-linecap:round; stroke-linejoin:round;">
<circle cx="11225.8" cy="24409.4" r="1156.54" /> 
</g> 
</svg>
