<?xml version="1.0" standalone="no"?>
 <!DOCTYPE svg PUBLIC "-//W3C//DTD SVG 1.1//EN" 
 "http://www.w3.org/Graphics/SVG/1.1/DTD/svg11.dtd"> 
<svg xmlns="http://www.w3.org/2000/svg" version="1.1" 
    width="3.57632cm" height="6.9977cm" viewBox="0 0 14080 27550 ">
<title>SVG Picture created as VacuBot-B_Cu.svg date 2015/04/12 11:41:17 </title>
  <desc>Picture generated by PCBNEW </desc>
<g style="fill:#000000; fill-opacity:1;stroke:#000000; stroke-opacity:1;
stroke-linecap:round; stroke-linejoin:round; "
 transform="translate(0 0) scale(1 1)">
</g>
<g style="fill:#840000; fill-opacity:0.0; 
stroke:#840000; stroke-width:49.2126; stroke-opacity:1; 
stroke-linecap:round; stroke-linejoin:round;">
</g>
<g style="fill:#840000; fill-opacity:1.0; 
stroke:#840000; stroke-width:49.2126; stroke-opacity:1; 
stroke-linecap:round; stroke-linejoin:round;">
<circle cx="7584.06" cy="22283.5" r="73.8189" /> 
<circle cx="7584.06" cy="22598.4" r="73.8189" /> 
<polyline style="fill-rule:evenodd;"
points="8779,19699
8553,19699
8553,19473
8779,19473
8779,19699
" /> 
<polyline style="fill-rule:evenodd;"
points="8779,19404
8553,19404
8553,19178
8779,19178
8779,19404
" /> 
<polyline style="fill-rule:evenodd;"
points="8779,19010
8553,19010
8553,18784
8779,18784
8779,19010
" /> 
<polyline style="fill-rule:evenodd;"
points="8779,18715
8553,18715
8553,18489
8779,18489
8779,18715
" /> 
<polyline style="fill-rule:evenodd;"
points="8484,18715
8258,18715
8258,18489
8484,18489
8484,18715
" /> 
<polyline style="fill-rule:evenodd;"
points="8484,19404
8258,19404
8258,19178
8484,19178
8484,19404
" /> 
<polyline style="fill-rule:evenodd;"
points="8484,19699
8258,19699
8258,19473
8484,19473
8484,19699
" /> 
<polyline style="fill-rule:evenodd;"
points="7795,19699
7569,19699
7569,19473
7795,19473
7795,19699
" /> 
<polyline style="fill-rule:evenodd;"
points="8090,19699
7864,19699
7864,19473
8090,19473
8090,19699
" /> 
<polyline style="fill-rule:evenodd;"
points="7795,19404
7569,19404
7569,19178
7795,19178
7795,19404
" /> 
<polyline style="fill-rule:evenodd;"
points="7795,18715
7569,18715
7569,18489
7795,18489
7795,18715
" /> 
<polyline style="fill-rule:evenodd;"
points="7795,19010
7569,19010
7569,18784
7795,18784
7795,19010
" /> 
<polyline style="fill-rule:evenodd;"
points="8090,19404
7864,19404
7864,19178
8090,19178
8090,19404
" /> 
<polyline style="fill-rule:evenodd;"
points="8484,19010
8258,19010
8258,18784
8484,18784
8484,19010
" /> 
<polyline style="fill-rule:evenodd;"
points="8090,18715
7864,18715
7864,18489
8090,18489
8090,18715
" /> 
<polyline style="fill-rule:evenodd;"
points="8090,19010
7864,19010
7864,18784
8090,18784
8090,19010
" /> 
</g>
<g style="fill:#840000; fill-opacity:1.0; 
stroke:#840000; stroke-width:511.811; stroke-opacity:1; 
stroke-linecap:round; stroke-linejoin:round;">
</g>
<g style="fill:#840000; fill-opacity:0.0; 
stroke:#840000; stroke-width:511.811; stroke-opacity:1; 
stroke-linecap:round; stroke-linejoin:round;">
<path d="M4788 17519
L4513 17519
" />
<path d="M4788 18110
L4513 18110
" />
<path d="M4788 18700
L4513 18700
" />
<path d="M4788 19291
L4513 19291
" />
<path d="M4788 19881
L4513 19881
" />
<path d="M4788 20472
L4513 20472
" />
<path d="M4788 21062
L4513 21062
" />
<path d="M4788 21653
L4513 21653
" />
<path d="M4788 22244
L4513 22244
" />
<path d="M11560 18503
L11836 18503
" />
<path d="M11560 17913
L11836 17913
" />
<path d="M11560 17322
L11836 17322
" />
<path d="M11560 16732
L11836 16732
" />
<path d="M11560 16141
L11836 16141
" />
<path d="M4788 13582
L4513 13582
" />
<path d="M4788 14173
L4513 14173
" />
<path d="M4788 14763
L4513 14763
" />
<path d="M4788 15354
L4513 15354
" />
<path d="M4788 15944
L4513 15944
" />
<path d="M11560 22244
L11836 22244
" />
<path d="M11560 21653
L11836 21653
" />
<path d="M11560 21062
L11836 21062
" />
<path d="M11560 20472
L11836 20472
" />
<path d="M11560 6594
L11836 6594
" />
<path d="M11560 6003
L11836 6003
" />
<path d="M11560 5413
L11836 5413
" />
<path d="M11560 4822
L11836 4822
" />
</g>
<g style="fill:#840000; fill-opacity:0.0; 
stroke:#840000; stroke-width:49.2126; stroke-opacity:1; 
stroke-linecap:round; stroke-linejoin:round;">
</g>
<g style="fill:#840000; fill-opacity:1.0; 
stroke:#840000; stroke-width:49.2126; stroke-opacity:1; 
stroke-linecap:round; stroke-linejoin:round;">
<polyline style="fill-rule:evenodd;"
points="8223,5339
8960,5339
8960,6077
8223,6077
8223,5339
" /> 
<circle cx="5591.93" cy="5708.66" r="368.894" /> 
<circle cx="11127.4" cy="10826.8" r="703.74" /> 
</g>
<g style="fill:#008400; fill-opacity:1.0; 
stroke:#008400; stroke-width:49.2126; stroke-opacity:1; 
stroke-linecap:round; stroke-linejoin:round;">
<circle cx="11127.4" cy="10826.8" r="1156.5" /> 
</g>
<g style="fill:#840000; fill-opacity:1.0; 
stroke:#840000; stroke-width:49.2126; stroke-opacity:1; 
stroke-linecap:round; stroke-linejoin:round;">
<circle cx="5221.85" cy="10826.8" r="703.74" /> 
</g>
<g style="fill:#008400; fill-opacity:1.0; 
stroke:#008400; stroke-width:49.2126; stroke-opacity:1; 
stroke-linecap:round; stroke-linejoin:round;">
<circle cx="5221.85" cy="10826.8" r="1156.5" /> 
</g>
<g style="fill:#840000; fill-opacity:1.0; 
stroke:#840000; stroke-width:49.2126; stroke-opacity:1; 
stroke-linecap:round; stroke-linejoin:round;">
<circle cx="5123.43" cy="24409.4" r="703.74" /> 
</g>
<g style="fill:#008400; fill-opacity:1.0; 
stroke:#008400; stroke-width:49.2126; stroke-opacity:1; 
stroke-linecap:round; stroke-linejoin:round;">
<circle cx="5123.43" cy="24409.4" r="1156.5" /> 
</g>
<g style="fill:#840000; fill-opacity:1.0; 
stroke:#840000; stroke-width:49.2126; stroke-opacity:1; 
stroke-linecap:round; stroke-linejoin:round;">
<circle cx="11225.8" cy="24409.4" r="703.74" /> 
</g>
<g style="fill:#008400; fill-opacity:1.0; 
stroke:#008400; stroke-width:49.2126; stroke-opacity:1; 
stroke-linecap:round; stroke-linejoin:round;">
<circle cx="11225.8" cy="24409.4" r="1156.5" /> 
</g>
<g style="fill:#C1C1C1; fill-opacity:1.0; 
stroke:#C1C1C1; stroke-width:49.2126; stroke-opacity:1; 
stroke-linecap:round; stroke-linejoin:round;">
<circle cx="11127.4" cy="19094.5" r="110.394" /> 
<circle cx="5910.83" cy="16830.7" r="110.394" /> 
<circle cx="6599.8" cy="23031.5" r="110.394" /> 
<circle cx="6009.25" cy="21063" r="110.394" /> 
<circle cx="7091.93" cy="21653.5" r="110.394" /> 
<circle cx="9355.71" cy="8464.57" r="110.394" /> 
<circle cx="9946.26" cy="9448.82" r="110.394" /> 
<circle cx="5418.7" cy="13878" r="110.394" /> 
<circle cx="9650.99" cy="21456.7" r="110.394" /> 
<circle cx="9158.86" cy="17421.3" r="110.394" /> 
<circle cx="8469.88" cy="16830.7" r="110.394" /> 
<circle cx="8836.62" cy="15009.8" r="110.394" /> 
<circle cx="6435.11" cy="16282.2" r="110.394" /> 
<circle cx="5339.96" cy="19716.5" r="110.394" /> 
<circle cx="6698.23" cy="19841.7" r="110.394" /> 
<circle cx="9552.56" cy="12401.6" r="110.394" /> 
<circle cx="9552.56" cy="13976.4" r="110.394" /> 
<circle cx="6501.38" cy="24409.4" r="110.394" /> 
<circle cx="6895.08" cy="12500" r="110.394" /> 
<circle cx="10438.4" cy="15157.5" r="110.394" /> 
<circle cx="7189.6" cy="13191.4" r="110.394" /> 
<circle cx="8711.79" cy="17610.1" r="110.394" /> 
<circle cx="6796.65" cy="18110.2" r="110.394" /> 
<circle cx="6478.91" cy="19333.5" r="110.394" /> 
<circle cx="6289.7" cy="19778.5" r="110.394" /> 
<circle cx="7190.36" cy="15748" r="110.394" /> 
<circle cx="7091.93" cy="13582.7" r="110.394" /> 
<circle cx="6981.65" cy="17681" r="110.394" /> 
<circle cx="7387.21" cy="16141.7" r="110.394" /> 
<circle cx="6639.9" cy="19024.1" r="110.394" /> 
<circle cx="7487.92" cy="13560.2" r="110.394" /> 
<circle cx="8174.61" cy="11712.6" r="110.394" /> 
<circle cx="8910.82" cy="10728.3" r="110.394" /> 
<circle cx="10370.2" cy="16776.9" r="110.394" /> 
<circle cx="10241.5" cy="11811" r="110.394" /> 
<circle cx="8154.14" cy="20477.5" r="110.394" /> 
<circle cx="8785.3" cy="12666.6" r="110.394" /> 
<circle cx="9601.58" cy="17784.5" r="110.394" /> 
<circle cx="10507" cy="18270.5" r="110.394" /> 
<circle cx="8528.1" cy="20646.8" r="110.394" /> 
<circle cx="10545.9" cy="17302.3" r="110.394" /> 
<circle cx="9211.36" cy="20498.4" r="110.394" /> 
<circle cx="10635.2" cy="15649.6" r="110.394" /> 
<circle cx="9044.98" cy="18142.6" r="110.394" /> 
<circle cx="9090.88" cy="16600.1" r="110.394" /> 
<circle cx="6600.96" cy="20762.1" r="110.394" /> 
<circle cx="11341.1" cy="15649.6" r="110.394" /> 
</g>
<g style="fill:#008400; fill-opacity:1.0; 
stroke:#008400; stroke-width:78.7402; stroke-opacity:1; 
stroke-linecap:round; stroke-linejoin:round;">
</g>
<g style="fill:#008400; fill-opacity:0.0; 
stroke:#008400; stroke-width:78.7402; stroke-opacity:1; 
stroke-linecap:round; stroke-linejoin:round;">
<path d="M11028 19094
L11127 19094
" />
</g>
<g style="fill:#008400; fill-opacity:0.0; 
stroke:#008400; stroke-width:393.701; stroke-opacity:1; 
stroke-linecap:round; stroke-linejoin:round;">
<path d="M5910 16830
L5713 16633
" />
<path d="M5614 13405
L4828 13405
" />
<path d="M5713 16633
L5713 15127
" />
<path d="M5713 15127
L5910 14930
" />
<path d="M5910 14930
L5910 13701
" />
<path d="M5910 13701
L5614 13405
" />
<path d="M4828 13405
L4650 13582
" />
<path d="M9874 6594
L9847 6620
" />
<path d="M9847 6620
L9847 8739
" />
<path d="M9847 8739
L9350 9236
" />
<path d="M8822 9236
L4650 13407
" />
<path d="M9350 9236
L8822 9236
" />
<path d="M4650 13407
L4650 13582
" />
</g>
<g style="fill:#008400; fill-opacity:0.0; 
stroke:#008400; stroke-width:472.441; stroke-opacity:1; 
stroke-linecap:round; stroke-linejoin:round;">
<path d="M11698 6594
L9874 6594
" />
<path d="M9874 6594
L9477 6594
" />
<path d="M8887 5413
L8591 5708
" />
<path d="M11698 5413
L8887 5413
" />
<path d="M9477 6594
L8591 5708
" />
</g>
<g style="fill:#008400; fill-opacity:0.0; 
stroke:#008400; stroke-width:393.701; stroke-opacity:1; 
stroke-linecap:round; stroke-linejoin:round;">
<path d="M10123 23031
L6599 23031
" />
<path d="M10910 22244
L10123 23031
" />
<path d="M11698 22244
L10910 22244
" />
<path d="M7091 21844
L7091 21653
" />
<path d="M6599 23031
L7091 22539
" />
<path d="M7091 22539
L7091 21844
" />
<path d="M5812 18337
L5812 20866
" />
<path d="M4994 17519
L5812 18337
" />
<path d="M5812 20866
L5874 20927
" />
<path d="M4650 17519
L4994 17519
" />
<path d="M5874 20927
L6009 21062
" />
<path d="M9355 8464
L7584 8464
" />
<path d="M7584 8464
L5221 10826
" />
</g>
<g style="fill:#008400; fill-opacity:0.0; 
stroke:#008400; stroke-width:472.441; stroke-opacity:1; 
stroke-linecap:round; stroke-linejoin:round;">
<path d="M5591 10456
L5221 10826
" />
<path d="M5591 5708
L5591 10456
" />
</g>
<g style="fill:#008400; fill-opacity:0.0; 
stroke:#008400; stroke-width:393.701; stroke-opacity:1; 
stroke-linecap:round; stroke-linejoin:round;">
<path d="M11127 10826
L9946 9645
" />
<path d="M9946 9645
L9946 9639
" />
<path d="M9946 9639
L9946 9448
" />
<path d="M5418 14294
L5418 13877
" />
<path d="M4949 14763
L5418 14294
" />
<path d="M4650 14763
L4949 14763
" />
</g>
<g style="fill:#008400; fill-opacity:0.0; 
stroke:#008400; stroke-width:236.22; stroke-opacity:1; 
stroke-linecap:round; stroke-linejoin:round;">
<path d="M9650 21043
L9650 21456
" />
<path d="M11698 18996
L9650 21043
" />
<path d="M11698 18503
L11698 18996
" />
</g>
<g style="fill:#008400; fill-opacity:0.0; 
stroke:#008400; stroke-width:196.85; stroke-opacity:1; 
stroke-linecap:round; stroke-linejoin:round;">
<path d="M9060 17421
L8469 16830
" />
<path d="M9158 17421
L9060 17421
" />
<path d="M8469 15376
L8836 15009
" />
<path d="M8469 16830
L8469 15376
" />
<path d="M6983 16830
L6570 16417
" />
<path d="M8469 16830
L6983 16830
" />
<path d="M6570 16417
L6435 16282
" />
</g>
<g style="fill:#008400; fill-opacity:0.0; 
stroke:#008400; stroke-width:393.701; stroke-opacity:1; 
stroke-linecap:round; stroke-linejoin:round;">
<path d="M5339 19716
L5339 21160
" />
<path d="M5339 19090
L5339 19716
" />
</g>
<g style="fill:#008400; fill-opacity:0.0; 
stroke:#008400; stroke-width:78.7402; stroke-opacity:1; 
stroke-linecap:round; stroke-linejoin:round;">
<path d="M5339 19716
L5339 19859
" />
<path d="M6304 20866
L6304 20235
" />
<path d="M6304 20235
L6698 19841
" />
<path d="M6682 21244
L6304 20866
" />
</g>
<g style="fill:#008400; fill-opacity:0.0; 
stroke:#008400; stroke-width:393.701; stroke-opacity:1; 
stroke-linecap:round; stroke-linejoin:round;">
<path d="M6682 21274
L7682 20275
" />
<path d="M6402 21555
L6682 21274
" />
</g>
<g style="fill:#008400; fill-opacity:0.0; 
stroke:#008400; stroke-width:78.7402; stroke-opacity:1; 
stroke-linecap:round; stroke-linejoin:round;">
<path d="M6682 21274
L6682 21244
" />
</g>
<g style="fill:#008400; fill-opacity:0.0; 
stroke:#008400; stroke-width:393.701; stroke-opacity:1; 
stroke-linecap:round; stroke-linejoin:round;">
<path d="M9552 12401
L9552 13976
" />
<path d="M8371 18897
L8371 19291
" />
<path d="M8371 19291
L7977 19291
" />
<path d="M7977 18897
L7977 19291
" />
<path d="M7977 18897
L8371 18897
" />
<path d="M10956 16429
L10956 17530
" />
<path d="M10956 17530
L11339 17913
" />
<path d="M11339 17913
L11698 17913
" />
<path d="M10671 16144
L10956 16429
" />
<path d="M5734 23156
L5734 21555
" />
<path d="M6501 23922
L5734 23156
" />
<path d="M6501 24409
L6501 23922
" />
<path d="M5339 21160
L5734 21555
" />
<path d="M4949 18700
L5339 19090
" />
<path d="M4650 18700
L4949 18700
" />
<path d="M10126 15846
L10126 15469
" />
<path d="M10438 14862
L10438 14966
" />
<path d="M10424 16144
L10126 15846
" />
<path d="M9552 13976
L10438 14862
" />
<path d="M10303 15292
L10438 15157
" />
<path d="M10438 14966
L10438 15157
" />
<path d="M10671 16144
L10424 16144
" />
<path d="M10126 15469
L10303 15292
" />
</g>
<g style="fill:#008400; fill-opacity:0.0; 
stroke:#008400; stroke-width:118.11; stroke-opacity:1; 
stroke-linecap:round; stroke-linejoin:round;">
<path d="M6895 12500
L6895 12896
" />
<path d="M7054 13056
L7189 13191
" />
<path d="M6895 12896
L7054 13056
" />
</g>
<g style="fill:#008400; fill-opacity:0.0; 
stroke:#008400; stroke-width:393.701; stroke-opacity:1; 
stroke-linecap:round; stroke-linejoin:round;">
<path d="M7682 19133
L7682 18602
" />
<path d="M5734 21555
L6402 21555
" />
<path d="M7682 20275
L7682 19133
" />
<path d="M9938 18018
L10062 17894
" />
<path d="M9938 18116
L9938 18018
" />
<path d="M9453 18602
L9938 18116
" />
<path d="M10062 17622
L9884 17444
" />
<path d="M8666 18602
L9453 18602
" />
<path d="M10062 17894
L10062 17622
" />
<path d="M10140 16144
L10671 16144
" />
<path d="M9884 17444
L9884 16400
" />
<path d="M9884 16400
L10140 16144
" />
</g>
<g style="fill:#008400; fill-opacity:0.0; 
stroke:#008400; stroke-width:78.7402; stroke-opacity:1; 
stroke-linecap:round; stroke-linejoin:round;">
<path d="M8576 17745
L8711 17610
" />
<path d="M8211 18110
L8576 17745
" />
<path d="M6796 18110
L8211 18110
" />
<path d="M4650 15354
L4788 15354
" />
<path d="M4788 15354
L5202 15767
" />
<path d="M5202 15767
L5202 17059
" />
<path d="M5202 17059
L6343 18201
" />
<path d="M6343 18201
L6343 19198
" />
<path d="M6343 19198
L6478 19333
" />
<path d="M4650 16731
L6154 18234
" />
<path d="M6154 18234
L6154 19643
" />
<path d="M4650 15944
L4650 16731
" />
<path d="M6154 19643
L6289 19778
" />
<path d="M7190 15748
L7190 13681
" />
<path d="M7190 13681
L7091 13582
" />
<path d="M6540 18734
L6639 18833
" />
<path d="M6790 17680
L6540 17930
" />
<path d="M6540 17930
L6540 18734
" />
<path d="M6981 17680
L6790 17680
" />
<path d="M6639 18833
L6639 19024
" />
<path d="M7487 12399
L8039 11847
" />
<path d="M8039 11847
L8174 11712
" />
<path d="M7487 13560
L7487 12399
" />
<path d="M7513 14138
L7487 14112
" />
<path d="M7513 15824
L7513 14138
" />
<path d="M7487 14112
L7487 13560
" />
<path d="M7387 15950
L7513 15824
" />
<path d="M7387 16141
L7387 15950
" />
<path d="M10050 11811
L10241 11811
" />
<path d="M8910 10728
L9993 11811
" />
<path d="M9993 11811
L10050 11811
" />
<path d="M8698 20342
L8289 20342
" />
<path d="M10235 16911
L10235 17349
" />
<path d="M10377 18025
L10253 18149
" />
<path d="M10235 17349
L10377 17492
" />
<path d="M10253 18786
L8698 20342
" />
<path d="M8289 20342
L8154 20477
" />
<path d="M10370 16776
L10235 16911
" />
<path d="M10253 18149
L10253 18786
" />
<path d="M10377 17492
L10377 18025
" />
<path d="M8930 20405
L8962 20374
" />
<path d="M10507 18461
L10507 18270
" />
<path d="M9569 14438
L9569 17561
" />
<path d="M10507 18828
L10507 18461
" />
<path d="M8785 12666
L8785 13654
" />
<path d="M8785 13654
L9569 14438
" />
<path d="M9569 17561
L9601 17593
" />
<path d="M8930 20405
L10507 18828
" />
<path d="M9601 17593
L9601 17784
" />
<path d="M8930 20405
L8824 20511
" />
<path d="M8663 20511
L8528 20646
" />
<path d="M8824 20511
L8663 20511
" />
<path d="M10760 18949
L9346 20363
" />
<path d="M10760 18149
L10760 18949
" />
<path d="M10545 17302
L10545 17934
" />
<path d="M10545 17934
L10760 18149
" />
<path d="M9346 20363
L9211 20498
" />
<path d="M6600 20762
L7111 20251
" />
<path d="M7111 20251
L7111 18519
" />
<path d="M7111 18519
L7343 18287
" />
<path d="M7343 18287
L8900 18287
" />
<path d="M8900 18287
L8909 18277
" />
<path d="M8909 18277
L9044 18142
" />
<path d="M10635 15649
L11341 15649
" />
<path d="M9225 16735
L9090 16600
" />
<path d="M9044 18142
L9044 17951
" />
<path d="M9044 17951
L9411 17584
" />
<path d="M9411 17584
L9411 16921
" />
<path d="M9411 16921
L9225 16735
" />
</g>
<g style="fill:#008400; fill-opacity:1.0; 
stroke:#008400; stroke-width:78.7402; stroke-opacity:1; 
stroke-linecap:round; stroke-linejoin:round;">
<polyline style="fill-rule:evenodd;"
points="12269,24402
12248,24611
12212,24731
12212,22246
12212,21065
12205,20992
12185,20922
12151,20858
12105,20801
12065,20767
12102,20737
12148,20681
12183,20617
12204,20547
12212,20475
12205,20402
12185,20332
12151,20267
12105,20210
12049,20163
11985,20128
11916,20106
11843,20098
11838,20098
11557,20098
11485,20105
11415,20126
11350,20160
11294,20207
11247,20263
11213,20327
11191,20397
11183,20469
11190,20542
11211,20612
11244,20677
11290,20734
11330,20767
11294,20797
11247,20853
11213,20918
11191,20987
11183,21060
11190,21133
11211,21203
11244,21267
11290,21324
11346,21371
11410,21406
11480,21428
11552,21436
11557,21437
11838,21437
11911,21429
11981,21408
12045,21374
12102,21328
12148,21272
12183,21207
12204,21138
12212,21065
12212,22246
12205,22174
12185,22103
12151,22039
12105,21982
12049,21935
11985,21900
11916,21878
11843,21870
11838,21870
11557,21870
11485,21877
11415,21898
11357,21929
10910,21929
10881,21931
10852,21934
10851,21934
10849,21935
10821,21943
10793,21951
10792,21952
10790,21952
10765,21966
10739,21979
10737,21980
10736,21981
10713,22000
10691,22018
10688,22020
10688,22020
10688,22020
10688,22021
9992,22716
7352,22716
7352,22715
7353,22714
7367,22688
7381,22663
7381,22661
7382,22660
7391,22632
7400,22604
7400,22603
7400,22601
7403,22572
7406,22543
7406,22540
7406,22540
7406,22540
7406,22539
7406,21844
7406,21653
7400,21592
7383,21533
7354,21479
7315,21431
7268,21392
7213,21363
7169,21349
7927,20591
7927,20593
7954,20635
7989,20671
8030,20699
8075,20719
8124,20730
8173,20731
8222,20722
8268,20704
8280,20697
8283,20716
8301,20763
8328,20804
8363,20840
8404,20868
8449,20888
8497,20899
8547,20900
8596,20891
8642,20873
8684,20847
8720,20813
8749,20772
8769,20727
8780,20678
8780,20669
8824,20669
8838,20667
8853,20666
8853,20666
8854,20666
8868,20662
8882,20658
8883,20657
8884,20657
8897,20650
8909,20643
8910,20643
8911,20642
8922,20633
8933,20624
8935,20623
8935,20623
8935,20623
8935,20623
8968,20590
8975,20590
8985,20614
9012,20656
9046,20692
9087,20720
9132,20740
9181,20750
9230,20751
9279,20743
9326,20725
9367,20698
9403,20664
9432,20624
9452,20578
9463,20530
9464,20473
9463,20468
10871,19060
10877,19054
10876,19056
10874,19062
10871,19093
10874,19123
10877,19134
10882,19164
10901,19210
10928,19252
10962,19288
11003,19316
11031,19328
9483,20876
9470,20893
9456,20909
9455,20910
9454,20911
9444,20931
9433,20950
9433,20951
9432,20952
9426,20973
9419,20994
9419,20995
9419,20996
9417,21018
9414,21040
9414,21042
9414,21042
9414,21042
9414,21043
9414,21365
9408,21379
9398,21428
9397,21477
9406,21526
9424,21572
9451,21614
9486,21650
9526,21678
9572,21698
9620,21709
9670,21710
9719,21701
9765,21683
9807,21657
9843,21622
9872,21582
9892,21536
9903,21488
9904,21431
9894,21383
9887,21365
9887,21141
11865,19163
11879,19146
11893,19129
11893,19128
11894,19127
11904,19108
11915,19089
11915,19087
11916,19086
11922,19065
11929,19045
11929,19043
11929,19042
11931,19021
11934,18999
11934,18996
11934,18996
11934,18996
11934,18996
11934,18863
11981,18849
12045,18815
12102,18769
12148,18713
12183,18648
12204,18579
12212,18506
12205,18433
12185,18363
12151,18299
12105,18242
12065,18208
12102,18178
12148,18122
12183,18058
12204,17988
12212,17915
12205,17843
12185,17773
12151,17708
12105,17651
12065,17617
12102,17588
12148,17531
12183,17467
12204,17398
12212,17325
12205,17252
12185,17182
12151,17118
12105,17061
12065,17027
12102,16997
12148,16941
12183,16877
12204,16807
12212,16734
12205,16662
12185,16592
12151,16527
12105,16470
12065,16436
12102,16407
12148,16350
12183,16286
12204,16216
12212,16144
12212,6597
12205,6524
12185,6454
12151,6389
12105,6332
12065,6299
12102,6269
12148,6213
12183,6148
12204,6079
12212,6006
12205,5933
12185,5863
12151,5799
12105,5742
12065,5708
12102,5678
12148,5622
12183,5558
12204,5488
12212,5415
12205,5343
12185,5273
12151,5208
12105,5151
12065,5117
12102,5088
12148,5031
12183,4967
12204,4898
12212,4825
12205,4752
12185,4682
12151,4618
12105,4561
12049,4514
11985,4479
11916,4456
11843,4448
11838,4448
11557,4448
11485,4455
11415,4477
11350,4511
11294,4557
11247,4613
11213,4677
11191,4747
11183,4820
11190,4892
11211,4962
11244,5027
11270,5059
8887,5059
8854,5062
8822,5065
8820,5065
8818,5065
8787,5075
8755,5084
8753,5085
8752,5085
8723,5101
8694,5116
8692,5117
8691,5118
8665,5138
8640,5159
8637,5161
8637,5161
8637,5162
8636,5162
8603,5196
8198,5196
8179,5198
8147,5207
8119,5226
8098,5251
8084,5282
8079,5315
8079,6102
8081,6121
8091,6153
8109,6180
8135,6202
8165,6216
8198,6220
8603,6220
9227,6845
9252,6865
9277,6886
9279,6887
9280,6888
9309,6904
9338,6920
9339,6920
9341,6921
9372,6931
9404,6941
9405,6941
9407,6941
9440,6945
9472,6948
9476,6948
9476,6948
9476,6948
9477,6948
9532,6948
9532,8608
9219,8921
8822,8921
8793,8924
8764,8926
8762,8927
8761,8927
8733,8935
8705,8944
8703,8944
8702,8945
8676,8959
8650,8972
8649,8973
8648,8974
8625,8992
8602,9010
8600,9013
8600,9013
8600,9013
8599,9013
4428,13185
4409,13207
4391,13229
4391,13229
4368,13236
4303,13271
4247,13317
4200,13373
4165,13437
4144,13507
4136,13580
4143,13652
4163,13722
4197,13787
4243,13844
4283,13878
4247,13907
4200,13964
4165,14028
4144,14098
4136,14170
4143,14243
4163,14313
4197,14378
4243,14434
4299,14481
4363,14516
4432,14539
4505,14547
4510,14547
4791,14547
4863,14540
4933,14519
4998,14484
5054,14438
5101,14382
5136,14318
5157,14248
5165,14175
5158,14103
5138,14033
5104,13968
5058,13911
5018,13877
5054,13848
5101,13791
5136,13727
5138,13720
5483,13720
5595,13832
5595,14800
5491,14904
5472,14927
5454,14949
5453,14950
5452,14952
5438,14977
5424,15003
5423,15004
5423,15006
5414,15034
5405,15061
5405,15063
5405,15065
5402,15094
5399,15123
5399,15126
5399,15126
5399,15126
5399,15127
5399,16633
5401,16662
5404,16691
5404,16693
5405,16695
5413,16722
5421,16750
5422,16752
5422,16753
5436,16779
5449,16805
5450,16806
5451,16808
5470,16830
5488,16853
5490,16855
5490,16855
5490,16855
5491,16856
5688,17053
5735,17092
5789,17121
5848,17139
5909,17145
5970,17139
6029,17122
6084,17093
6131,17054
6171,17007
6200,16953
6219,16895
6225,16834
6220,16772
6203,16713
6174,16659
6136,16611
6133,16607
6028,16503
6028,15257
6133,15153
6151,15130
6170,15108
6171,15107
6172,15105
6186,15080
6200,15054
6200,15053
6201,15051
6210,15023
6218,14996
6219,14994
6219,14992
6222,14963
6225,14935
6225,14931
6225,14931
6225,14931
6225,14930
6225,13701
6222,13673
6220,13644
6219,13642
6219,13640
6211,13612
6203,13584
6202,13583
6202,13581
6188,13556
6174,13530
6173,13529
6173,13527
6154,13505
6136,13482
6134,13480
6134,13480
6134,13479
6133,13479
5837,13182
5814,13164
5792,13145
5790,13144
5789,13143
5763,13130
5738,13116
5736,13115
5735,13114
5707,13106
5679,13097
5678,13097
5676,13096
5647,13093
5618,13090
5615,13090
5615,13090
5615,13090
5614,13090
5413,13090
8952,9551
9350,9551
9379,9548
9408,9546
9409,9545
9411,9545
9439,9537
9467,9528
9468,9528
9470,9527
9496,9514
9521,9500
9523,9499
9524,9498
9547,9480
9569,9462
9572,9460
9572,9460
9572,9459
9573,9459
10070,8961
10089,8939
10107,8916
10108,8915
10109,8914
10123,8888
10137,8863
10137,8861
10138,8860
10147,8832
10155,8804
10156,8802
10156,8801
10159,8772
10162,8743
10162,8740
10162,8740
10162,8740
10162,8739
10162,6948
11443,6948
11480,6960
11552,6968
11557,6968
11838,6968
11911,6961
11981,6940
12045,6906
12102,6859
12148,6803
12183,6739
12204,6669
12212,6597
12212,16144
12205,16071
12185,16001
12151,15936
12105,15880
12049,15833
11985,15797
11916,15775
11843,15767
11838,15767
11704,15767
11690,15750
11593,15653
11594,15624
11584,15576
11565,15530
11538,15488
11503,15453
11462,15425
11416,15406
11367,15396
11318,15396
11269,15405
11223,15424
11181,15451
11146,15486
11142,15492
10834,15492
10832,15488
10797,15453
10756,15425
10753,15424
10753,15157
10753,14979
10753,14966
10753,14862
10750,14833
10747,14804
10747,14802
10747,14801
10738,14773
10730,14745
10730,14743
10729,14742
10715,14716
10702,14690
10701,14689
10700,14687
10682,14665
10664,14642
10661,14640
10661,14640
10661,14640
10661,14639
10494,14473
10494,11786
10485,11737
10466,11691
10438,11650
10403,11615
10362,11587
10316,11568
10268,11558
10218,11557
10169,11567
10123,11585
10082,11612
10049,11644
9163,10757
9163,10703
9154,10654
9135,10608
9107,10567
9072,10532
9031,10504
8986,10485
8937,10475
8887,10475
8839,10484
8792,10502
8751,10530
8715,10564
8687,10605
8668,10651
8658,10699
8657,10749
8666,10798
8684,10844
8711,10886
8745,10922
8786,10950
8832,10970
8880,10980
8930,10981
8939,10980
9882,11922
9893,11931
9904,11940
9905,11941
9905,11941
9918,11948
9931,11955
9932,11956
9932,11956
9946,11960
9960,11965
9961,11965
9962,11965
9976,11966
9991,11968
9992,11968
9992,11968
9992,11968
9993,11968
10041,11968
10042,11969
10076,12004
10117,12033
10162,12052
10211,12063
10261,12064
10309,12055
10356,12038
10398,12011
10434,11977
10462,11936
10482,11891
10493,11842
10494,11786
10494,14473
9867,13845
9867,12401
9861,12340
9843,12281
9814,12227
9776,12179
9728,12140
9674,12111
9615,12093
9554,12086
9493,12092
9434,12109
9380,12138
9332,12176
9292,12223
9263,12277
9244,12336
9237,12397
9237,12401
9237,13884
8942,13589
8942,12866
8977,12832
9006,12792
9026,12746
9037,12698
9038,12641
9028,12593
9009,12547
8982,12505
8947,12470
8906,12442
8860,12423
8811,12413
8762,12413
8713,12422
8667,12441
8625,12468
8590,12503
8562,12544
8542,12589
8532,12638
8531,12687
8540,12736
8559,12782
8585,12824
8620,12860
8627,12865
8627,13654
8629,13669
8630,13683
8630,13684
8630,13685
8635,13699
8639,13713
8639,13713
8639,13714
8646,13727
8653,13740
8653,13740
8654,13741
8663,13752
8672,13764
8673,13765
8673,13765
8673,13765
8673,13765
9411,14503
9411,16698
9343,16629
9344,16575
9334,16526
9315,16480
9287,16439
9252,16404
9211,16376
9166,16357
9117,16347
9067,16346
9019,16356
8973,16374
8931,16401
8896,16436
8868,16477
8848,16523
8838,16571
8837,16621
8846,16670
8864,16716
8891,16758
8926,16793
8966,16822
9012,16841
9060,16852
9110,16853
9120,16851
9254,16986
9254,17186
9234,17178
9185,17168
9135,17167
9116,17171
8716,16770
8713,16757
8694,16711
8686,16699
8686,15466
8896,15256
8905,15254
8951,15236
8993,15210
9029,15176
9057,15135
9077,15090
9088,15041
9089,14985
9080,14936
9061,14890
9033,14849
8998,14813
8957,14786
8911,14766
8863,14756
8813,14756
8764,14765
8718,14784
8677,14811
8641,14846
8613,14887
8594,14932
8590,14949
8427,15112
8427,11687
8418,11639
8399,11593
8371,11551
8336,11516
8295,11488
8249,11469
8201,11459
8151,11459
8102,11468
8056,11487
8015,11514
7979,11549
7951,11590
7932,11635
7921,11684
7921,11733
7922,11741
7376,12287
7367,12299
7357,12310
7357,12311
7357,12311
7350,12324
7343,12337
7342,12338
7342,12338
7338,12352
7333,12366
7333,12367
7333,12368
7332,12382
7330,12397
7330,12398
7330,12398
7330,12398
7330,12399
7330,12981
7310,12967
7264,12948
7216,12938
7187,12938
7179,12931
7072,12823
7072,12680
7087,12666
7116,12625
7136,12580
7147,12531
7148,12475
7138,12426
7119,12380
7092,12339
7057,12304
7016,12276
6970,12257
6921,12247
6872,12246
6823,12256
6777,12274
6735,12301
6700,12336
6672,12377
6652,12423
6642,12471
6641,12521
6650,12570
6668,12616
6695,12657
6717,12680
6717,12896
6719,12913
6720,12929
6721,12930
6721,12931
6726,12946
6730,12962
6731,12963
6731,12964
6738,12978
6746,12993
6747,12994
6747,12994
6757,13007
6768,13020
6769,13021
6769,13021
6769,13021
6769,13022
6929,13181
6936,13188
6936,13212
6945,13261
6963,13307
6990,13349
6991,13350
6974,13357
6932,13384
6897,13419
6869,13460
6849,13505
6839,13554
6838,13603
6847,13652
6865,13698
6892,13740
6927,13776
6967,13804
7013,13824
7032,13828
7032,15548
7030,15549
6995,15584
6967,15625
6947,15671
6937,15719
6936,15769
6945,15818
6964,15864
6991,15906
7025,15941
7066,15970
7111,15989
7160,16000
7176,16000
7164,16019
7144,16064
7134,16113
7133,16163
7142,16211
7160,16257
7187,16299
7222,16335
7263,16363
7308,16383
7357,16394
7406,16395
7455,16386
7501,16368
7543,16342
7579,16307
7608,16267
7628,16222
7639,16173
7640,16116
7630,16068
7611,16022
7584,15980
7582,15978
7624,15936
7633,15924
7643,15913
7643,15913
7644,15912
7650,15899
7657,15886
7658,15886
7658,15885
7662,15871
7667,15857
7667,15856
7667,15855
7669,15841
7670,15826
7670,15825
7670,15825
7670,15825
7670,15824
7670,14138
7669,14123
7668,14109
7667,14108
7667,14107
7663,14093
7659,14079
7659,14078
7658,14078
7651,14065
7645,14052
7645,13759
7680,13726
7709,13685
7729,13640
7740,13592
7741,13535
7731,13486
7712,13440
7685,13399
7650,13364
7645,13361
7645,12464
8144,11965
8194,11966
8243,11957
8289,11939
8331,11913
8367,11878
8395,11838
8415,11792
8426,11744
8427,11687
8427,15112
8316,15223
8304,15238
8291,15254
8290,15255
8289,15256
8280,15273
8270,15291
8270,15292
8269,15293
8264,15312
8258,15331
8257,15332
8257,15333
8255,15353
8253,15373
8253,15375
8253,15375
8253,15375
8253,15376
8253,16614
7073,16614
6723,16264
6723,16264
6681,16222
6678,16208
6659,16162
6632,16121
6597,16086
6556,16058
6510,16039
6461,16029
6412,16028
6363,16038
6317,16056
6275,16083
6240,16118
6212,16159
6192,16205
6182,16253
6181,16303
6190,16352
6208,16398
6235,16440
6270,16475
6311,16504
6356,16524
6374,16528
6416,16570
6416,16570
6830,16983
6845,16996
6861,17009
6862,17009
6863,17010
6880,17020
6898,17029
6899,17030
6900,17030
6919,17036
6938,17042
6939,17042
6940,17042
6960,17044
6980,17047
6982,17047
6982,17047
6982,17047
6983,17047
8337,17047
8345,17052
8391,17072
8409,17076
8689,17356
8688,17356
8639,17366
8593,17384
8552,17411
8516,17446
8488,17487
8469,17533
8459,17581
8458,17631
8459,17639
8146,17952
6995,17952
6993,17949
6978,17934
7001,17934
7050,17925
7096,17907
7138,17881
7174,17847
7202,17806
7222,17761
7233,17712
7234,17656
7225,17607
7206,17561
7178,17520
7143,17484
7102,17457
7056,17438
7008,17428
6958,17427
6909,17436
6863,17455
6822,17482
6786,17517
6782,17524
6776,17524
6761,17526
6760,17526
6760,17526
6746,17530
6732,17534
6731,17535
6730,17535
6717,17542
6704,17548
6704,17549
6703,17549
6692,17558
6680,17568
6679,17569
6679,17569
6679,17569
6679,17569
6429,17819
6420,17830
6410,17841
6410,17842
6409,17843
6403,17856
6396,17868
6395,17869
6395,17870
6391,17884
6386,17898
6386,17899
6386,17899
6384,17914
6383,17928
6383,17930
6383,17930
6383,17930
6383,17930
6383,17992
6357,17992
5359,16994
5359,15767
5358,15753
5356,15738
5356,15737
5356,15737
5352,15723
5348,15709
5347,15708
5347,15707
5340,15694
5334,15681
5333,15681
5333,15680
5324,15669
5315,15657
5313,15656
5313,15656
5313,15656
5313,15656
5140,15483
5157,15429
5165,15356
5158,15284
5138,15214
5104,15149
5058,15092
5002,15045
4938,15010
4869,14988
4796,14980
4791,14980
4510,14980
4438,14987
4368,15008
4303,15042
4247,15088
4200,15145
4165,15209
4144,15279
4136,15351
4143,15424
4163,15494
4197,15559
4243,15616
4283,15649
4247,15679
4200,15735
4165,15799
4144,15869
4136,15942
4143,16014
4163,16084
4197,16149
4243,16206
4299,16253
4363,16288
4432,16310
4493,16317
4493,16731
4494,16745
4496,16760
4496,16760
4496,16761
4500,16775
4504,16789
4505,16790
4505,16791
4512,16803
4518,16816
4519,16817
4519,16818
4529,16829
4538,16840
4539,16842
4539,16842
4539,16842
4539,16842
4848,17151
4796,17145
4791,17145
4510,17145
4438,17152
4368,17173
4303,17208
4247,17254
4200,17310
4165,17374
4144,17444
4136,17517
4143,17589
4163,17659
4197,17724
4243,17781
4283,17815
4247,17844
4200,17901
4165,17965
4144,18035
4136,18107
4143,18180
4163,18250
4197,18315
4243,18371
4283,18405
4247,18435
4200,18491
4165,18555
4144,18625
4136,18698
4143,18770
4163,18840
4197,18905
4243,18962
4283,18996
4247,19025
4200,19082
4165,19146
4144,19216
4136,19288
4143,19361
4163,19431
4197,19496
4243,19553
4283,19586
4247,19616
4200,19672
4165,19736
4144,19806
4136,19879
4143,19951
4163,20021
4197,20086
4243,20143
4283,20177
4247,20207
4200,20263
4165,20327
4144,20397
4136,20469
4143,20542
4163,20612
4197,20677
4243,20734
4283,20767
4247,20797
4200,20853
4165,20918
4144,20987
4136,21060
4143,21133
4163,21203
4197,21267
4243,21324
4283,21358
4247,21388
4200,21444
4165,21508
4144,21578
4136,21650
4143,21723
4163,21793
4197,21858
4243,21915
4283,21948
4247,21978
4200,22034
4165,22099
4144,22168
4136,22241
4143,22314
4163,22384
4197,22448
4243,22505
4299,22552
4363,22587
4432,22609
4505,22618
4510,22618
4791,22618
4863,22610
4933,22589
4998,22555
5054,22509
5101,22453
5136,22389
5157,22319
5165,22246
5158,22174
5138,22103
5104,22039
5058,21982
5018,21948
5054,21918
5101,21862
5136,21798
5157,21728
5165,21656
5158,21583
5138,21513
5104,21448
5058,21391
5018,21358
5054,21328
5066,21314
5075,21331
5076,21333
5077,21334
5096,21357
5114,21379
5116,21382
5116,21382
5116,21382
5117,21382
5419,21685
5419,23156
5422,23185
5425,23214
5425,23215
5425,23217
5434,23245
5442,23273
5443,23274
5443,23276
5457,23301
5470,23327
5471,23329
5472,23330
5490,23353
5509,23375
5511,23378
5511,23378
5511,23378
5512,23378
6186,24053
6186,24409
6192,24470
6210,24529
6239,24583
6277,24631
6325,24670
6379,24699
6438,24717
6499,24724
6560,24718
6619,24701
6673,24672
6721,24634
6761,24587
6790,24533
6809,24474
6816,24413
6816,24409
6816,23922
6813,23893
6810,23864
6810,23863
6810,23861
6801,23833
6793,23805
6793,23804
6792,23802
6778,23777
6765,23751
6764,23750
6763,23748
6745,23725
6727,23703
6724,23700
6724,23700
6724,23700
6724,23700
6049,23025
6049,22469
6776,21741
6776,21844
6776,22408
6377,22808
6357,22832
6338,22855
6338,22855
6338,22856
6323,22882
6309,22909
6309,22909
6309,22910
6300,22939
6291,22968
6291,22968
6291,22969
6288,22999
6284,23029
6284,23029
6284,23030
6287,23060
6290,23090
6290,23091
6290,23091
6299,23120
6307,23149
6308,23149
6308,23150
6322,23177
6336,23203
6336,23204
6336,23204
6355,23228
6374,23251
6375,23252
6375,23252
6398,23271
6421,23291
6422,23291
6422,23291
6449,23306
6475,23320
6476,23321
6476,23321
6505,23330
6534,23339
6534,23339
6535,23339
6565,23343
6595,23346
6596,23346
6596,23346
6596,23346
6599,23346
10123,23346
10152,23343
10181,23341
10182,23340
10184,23340
10212,23332
10240,23323
10241,23323
10243,23322
10269,23309
10294,23295
10296,23294
10297,23293
10320,23275
10343,23257
10345,23255
10345,23254
10345,23254
10346,23254
11041,22559
11358,22559
11410,22587
11480,22609
11552,22618
11557,22618
11838,22618
11911,22610
11981,22589
12045,22555
12102,22509
12148,22453
12183,22389
12204,22319
12212,22246
12212,24731
12189,24806
12094,24986
11965,25144
11808,25273
11629,25370
11435,25430
11226,25452
11225,25452
5130,25452
4920,25432
4726,25373
4546,25277
4388,25149
4259,24992
4162,24813
4102,24619
4080,24410
4080,24409
4080,5619
4156,5031
4343,4474
4635,3963
5021,3520
5486,3159
6011,2896
6578,2740
7171,2696
7186,2696
7187,2696
7188,2696
7190,2696
10923,2696
11190,2722
11440,2798
11670,2921
11873,3086
12039,3287
12163,3516
12241,3766
12269,4032
12269,4035
12269,24402
" /> 
<polyline style="fill-rule:evenodd;"
points="11656,18129
11557,18129
11485,18137
11415,18158
11350,18192
11294,18238
11247,18294
11213,18359
11191,18428
11183,18501
11190,18574
11211,18644
11244,18708
11286,18759
10917,18759
10917,18149
10916,18134
10914,18120
10914,18119
10914,18118
10910,18104
10906,18090
10905,18089
10905,18088
10898,18076
10892,18063
10891,18062
10891,18061
10882,18050
10873,18039
10871,18038
10871,18038
10871,18038
10871,18037
10703,17869
10703,17501
10738,17468
10767,17427
10787,17382
10798,17334
10799,17277
10789,17228
10770,17182
10743,17141
10708,17106
10666,17078
10621,17059
10572,17049
10522,17049
10474,17058
10428,17076
10392,17100
10392,17029
10438,17021
10484,17003
10526,16977
10562,16943
10591,16902
10611,16857
10622,16808
10623,16752
10613,16703
10594,16657
10567,16616
10532,16580
10491,16553
10445,16533
10396,16523
10347,16523
10298,16532
10252,16551
10210,16578
10175,16613
10147,16654
10127,16699
10117,16748
10116,16798
10118,16807
10114,16811
10105,16822
10104,16823
10104,16824
10097,16837
10090,16849
10090,16850
10089,16851
10085,16865
10081,16879
10081,16879
10080,16880
10079,16895
10077,16909
10077,16911
10077,16911
10077,16911
10077,16911
10077,17349
10079,17364
10080,17378
10080,17379
10080,17380
10084,17394
10089,17408
10089,17408
10089,17409
10096,17422
10103,17435
10103,17436
10104,17436
10113,17448
10122,17459
10123,17460
10123,17460
10123,17460
10123,17460
10220,17557
10220,17960
10142,18037
10133,18048
10123,18060
10123,18060
10123,18061
10116,18074
10109,18086
10108,18087
10108,18088
10104,18102
10099,18116
10099,18117
10099,18117
10098,18132
10096,18146
10096,18148
10096,18148
10096,18148
10096,18149
10096,18721
8633,20185
8289,20185
8274,20186
8260,20187
8259,20187
8258,20188
8244,20192
8230,20196
8229,20196
8229,20196
8216,20203
8203,20210
8202,20210
8201,20211
8190,20220
8184,20225
8180,20224
8131,20224
8082,20233
8036,20252
7994,20279
7959,20314
7931,20354
7911,20400
7904,20433
7902,20433
7884,20434
7866,20440
7848,20449
7835,20460
5691,22604
5686,22608
5683,22610
5679,22611
5675,22611
5671,22611
5667,22610
5664,22608
5661,22605
5658,22602
5656,22599
5655,22595
5654,22589
5654,21154
5786,21285
5834,21324
5888,21353
5946,21371
6008,21377
6069,21372
6128,21354
6182,21325
6230,21287
6269,21240
6299,21186
6317,21127
6324,21066
6318,21005
6301,20946
6273,20891
6235,20843
6231,20840
6127,20735
6127,19973
6165,20000
6211,20020
6259,20031
6309,20032
6358,20023
6404,20005
6446,19978
6482,19944
6510,19904
6531,19858
6542,19810
6542,19753
6533,19705
6514,19659
6486,19617
6455,19586
6498,19587
6547,19578
6593,19560
6635,19533
6671,19499
6700,19459
6720,19413
6731,19365
6732,19308
6723,19263
6754,19251
6796,19224
6832,19190
6861,19149
6881,19104
6892,19056
6893,18999
6883,18950
6864,18904
6836,18863
6802,18828
6796,18824
6795,18818
6794,18804
6794,18803
6794,18802
6790,18788
6786,18774
6785,18773
6785,18773
6778,18760
6771,18747
6771,18746
6771,18746
6761,18734
6752,18723
6751,18722
6751,18722
6751,18722
6751,18721
6698,18668
6698,18343
6718,18352
6766,18362
6816,18363
6865,18355
6911,18337
6953,18310
6989,18276
6995,18267
7140,18267
7000,18407
6991,18418
6981,18430
6981,18430
6980,18431
6973,18444
6966,18457
6966,18457
6966,18458
6961,18472
6957,18486
6957,18487
6957,18487
6955,18502
6954,18516
6954,18518
6954,18518
6954,18518
6954,18519
6954,20186
6630,20509
6627,20509
6577,20508
6529,20518
6483,20536
6441,20563
6406,20598
6378,20639
6358,20685
6348,20733
6347,20783
6356,20832
6374,20878
6401,20920
6436,20955
6476,20984
6522,21003
6570,21014
6620,21015
6669,21007
6715,20989
6757,20962
6793,20928
6822,20887
6842,20842
6853,20793
6854,20737
6853,20732
7222,20362
7232,20351
7241,20340
7241,20339
7242,20339
7249,20326
7256,20313
7256,20312
7257,20311
7261,20298
7265,20284
7265,20283
7265,20282
7267,20268
7269,20253
7269,20252
7269,20252
7269,20251
7269,20251
7269,18584
7408,18444
8900,18444
8914,18443
8929,18442
8929,18441
8930,18441
8944,18437
8958,18433
8959,18433
8960,18432
8972,18426
8985,18419
8986,18418
8987,18418
8998,18409
9009,18400
9011,18399
9011,18399
9011,18399
9011,18398
9015,18395
9064,18396
9113,18387
9159,18369
9201,18342
9237,18308
9266,18268
9286,18222
9297,18174
9298,18117
9288,18069
9269,18023
9242,17981
9239,17979
9359,17860
9375,17900
9402,17942
9436,17978
9477,18006
9522,18026
9571,18037
9621,18038
9669,18029
9716,18011
9758,17984
9794,17950
9822,17910
9842,17864
9853,17816
9854,17759
9845,17711
9826,17665
9798,17623
9763,17588
9758,17584
9757,17579
9756,17564
9756,17563
9756,17563
9751,17549
9747,17535
9747,17534
9747,17533
9740,17520
9733,17507
9733,17507
9732,17506
9726,17499
9726,14438
9725,14424
9724,14409
9724,14408
9723,14408
9719,14394
9715,14380
9715,14379
9715,14378
9708,14365
9701,14352
9701,14352
9700,14351
9691,14340
9682,14328
9681,14327
9681,14327
9681,14327
9680,14327
9591,14238
9591,14024
9592,14018
9593,14014
9595,14011
9598,14008
9601,14005
9604,14003
9608,14002
9612,14002
9616,14002
9620,14003
9623,14005
9628,14009
10588,14969
10592,14974
10594,14977
10595,14981
10595,14987
10595,15399
10563,15405
10517,15424
10475,15451
10440,15486
10412,15527
10392,15572
10382,15621
10381,15670
10390,15719
10409,15765
10435,15807
10470,15843
10511,15871
10556,15891
10605,15902
10654,15903
10703,15894
10749,15876
10791,15850
10827,15815
10833,15807
11141,15807
11141,15807
11176,15843
11217,15871
11262,15891
11278,15895
11247,15932
11213,15996
11191,16066
11183,16139
11190,16211
11211,16281
11244,16346
11290,16403
11330,16437
11294,16466
11247,16523
11213,16587
11191,16657
11183,16729
11190,16802
11211,16872
11244,16937
11290,16993
11330,17027
11294,17057
11247,17113
11213,17177
11191,17247
11183,17320
11190,17392
11211,17462
11244,17527
11290,17584
11346,17631
11410,17666
11480,17688
11552,17696
11557,17696
11641,17696
11656,18129
" /> 
</g>
<g style="fill:#FFFFFF; fill-opacity:1.0; 
stroke:#FFFFFF; stroke-width:49.2126; stroke-opacity:1; 
stroke-linecap:round; stroke-linejoin:round;">
<circle cx="11127.4" cy="19094.5" r="40.3937" /> 
<circle cx="5910.83" cy="16830.7" r="40.3937" /> 
<circle cx="6599.8" cy="23031.5" r="40.3937" /> 
<circle cx="6009.25" cy="21063" r="40.3937" /> 
<circle cx="7091.93" cy="21653.5" r="40.3937" /> 
<circle cx="9355.71" cy="8464.57" r="40.3937" /> 
<circle cx="9946.26" cy="9448.82" r="40.3937" /> 
<circle cx="5418.7" cy="13878" r="40.3937" /> 
<circle cx="9650.99" cy="21456.7" r="40.3937" /> 
<circle cx="9158.86" cy="17421.3" r="40.3937" /> 
<circle cx="8469.88" cy="16830.7" r="40.3937" /> 
<circle cx="8836.62" cy="15009.8" r="40.3937" /> 
<circle cx="6435.11" cy="16282.2" r="40.3937" /> 
<circle cx="5339.96" cy="19716.5" r="40.3937" /> 
<circle cx="6698.23" cy="19841.7" r="40.3937" /> 
<circle cx="9552.56" cy="12401.6" r="40.3937" /> 
<circle cx="9552.56" cy="13976.4" r="40.3937" /> 
<circle cx="6501.38" cy="24409.4" r="40.3937" /> 
<circle cx="6895.08" cy="12500" r="40.3937" /> 
<circle cx="10438.4" cy="15157.5" r="40.3937" /> 
<circle cx="7189.6" cy="13191.4" r="40.3937" /> 
<circle cx="8711.79" cy="17610.1" r="40.3937" /> 
<circle cx="6796.65" cy="18110.2" r="40.3937" /> 
<circle cx="6478.91" cy="19333.5" r="40.3937" /> 
<circle cx="6289.7" cy="19778.5" r="40.3937" /> 
<circle cx="7190.36" cy="15748" r="40.3937" /> 
<circle cx="7091.93" cy="13582.7" r="40.3937" /> 
<circle cx="6981.65" cy="17681" r="40.3937" /> 
<circle cx="7387.21" cy="16141.7" r="40.3937" /> 
<circle cx="6639.9" cy="19024.1" r="40.3937" /> 
<circle cx="7487.92" cy="13560.2" r="40.3937" /> 
<circle cx="8174.61" cy="11712.6" r="40.3937" /> 
<circle cx="8910.82" cy="10728.3" r="40.3937" /> 
<circle cx="10370.2" cy="16776.9" r="40.3937" /> 
<circle cx="10241.5" cy="11811" r="40.3937" /> 
<circle cx="8154.14" cy="20477.5" r="40.3937" /> 
<circle cx="8785.3" cy="12666.6" r="40.3937" /> 
<circle cx="9601.58" cy="17784.5" r="40.3937" /> 
<circle cx="10507" cy="18270.5" r="40.3937" /> 
<circle cx="8528.1" cy="20646.8" r="40.3937" /> 
<circle cx="10545.9" cy="17302.3" r="40.3937" /> 
<circle cx="9211.36" cy="20498.4" r="40.3937" /> 
<circle cx="10635.2" cy="15649.6" r="40.3937" /> 
<circle cx="9044.98" cy="18142.6" r="40.3937" /> 
<circle cx="9090.88" cy="16600.1" r="40.3937" /> 
<circle cx="6600.96" cy="20762.1" r="40.3937" /> 
<circle cx="11341.1" cy="15649.6" r="40.3937" /> 
<circle cx="7584.06" cy="22283.5" r="40.3937" /> 
<circle cx="7584.06" cy="22598.4" r="40.3937" /> 
<circle cx="8666.73" cy="19586.6" r="40.3937" /> 
<circle cx="8666.73" cy="19291.3" r="40.3937" /> 
<circle cx="8666.73" cy="18897.6" r="40.3937" /> 
<circle cx="8666.73" cy="18602.4" r="40.3937" /> 
<circle cx="8371.46" cy="18602.4" r="40.3937" /> 
<circle cx="8371.46" cy="19291.3" r="40.3937" /> 
<circle cx="8371.46" cy="19586.6" r="40.3937" /> 
<circle cx="7682.48" cy="19586.6" r="40.3937" /> 
<circle cx="7977.76" cy="19586.6" r="40.3937" /> 
<circle cx="7682.48" cy="19291.3" r="40.3937" /> 
<circle cx="7682.48" cy="18602.4" r="40.3937" /> 
<circle cx="7682.48" cy="18897.6" r="40.3937" /> 
<circle cx="7977.76" cy="19291.3" r="40.3937" /> 
<circle cx="8371.46" cy="18897.6" r="40.3937" /> 
<circle cx="7977.76" cy="18602.4" r="40.3937" /> 
<circle cx="7977.76" cy="18897.6" r="40.3937" /> 
<circle cx="4650.99" cy="17519.7" r="113.189" /> 
<circle cx="4650.99" cy="18110.2" r="113.189" /> 
<circle cx="4650.99" cy="18700.8" r="113.189" /> 
<circle cx="4650.99" cy="19291.3" r="113.189" /> 
<circle cx="4650.99" cy="19881.9" r="113.189" /> 
<circle cx="4650.99" cy="20472.4" r="113.189" /> 
<circle cx="4650.99" cy="21063" r="113.189" /> 
<circle cx="4650.99" cy="21653.5" r="113.189" /> 
<circle cx="4650.99" cy="22244.1" r="113.189" /> 
<circle cx="11698.2" cy="18503.9" r="113.189" /> 
<circle cx="11698.2" cy="17913.4" r="113.189" /> 
<circle cx="11698.2" cy="17322.8" r="113.189" /> 
<circle cx="11698.2" cy="16732.3" r="113.189" /> 
<circle cx="11698.2" cy="16141.7" r="113.189" /> 
<circle cx="4650.99" cy="13582.7" r="113.189" /> 
<circle cx="4650.99" cy="14173.2" r="113.189" /> 
<circle cx="4650.99" cy="14763.8" r="113.189" /> 
<circle cx="4650.99" cy="15354.3" r="113.189" /> 
<circle cx="4650.99" cy="15944.9" r="113.189" /> 
<circle cx="11698.2" cy="22244.1" r="113.189" /> 
<circle cx="11698.2" cy="21653.5" r="113.189" /> 
<circle cx="11698.2" cy="21063" r="113.189" /> 
<circle cx="11698.2" cy="20472.4" r="113.189" /> 
<circle cx="11698.2" cy="6594.49" r="113.189" /> 
<circle cx="11698.2" cy="6003.94" r="113.189" /> 
<circle cx="11698.2" cy="5413.39" r="113.189" /> 
<circle cx="11698.2" cy="4822.83" r="113.189" /> 
<circle cx="8591.93" cy="5708.66" r="132.894" /> 
<circle cx="5591.93" cy="5708.66" r="132.894" /> 
<circle cx="11127.4" cy="10826.8" r="585.63" /> 
<circle cx="5221.85" cy="10826.8" r="585.63" /> 
<circle cx="5123.43" cy="24409.4" r="585.63" /> 
<circle cx="11225.8" cy="24409.4" r="585.63" /> 
</g> 
</svg>
